<?xml version="1.0" encoding="utf-8"?>
<!-- Generator: Adobe Illustrator 25.3.1, SVG Export Plug-In . SVG Version: 6.00 Build 0)  -->
<svg version="1.1"
	 id="svg" sodipodi:docname="Blogger.svg" xmlns:cc="http://creativecommons.org/ns#" xmlns:dc="http://purl.org/dc/elements/1.1/" xmlns:inkscape="http://www.inkscape.org/namespaces/inkscape" xmlns:rdf="http://www.w3.org/1999/02/22-rdf-syntax-ns#" xmlns:sodipodi="http://sodipodi.sourceforge.net/DTD/sodipodi-0.dtd" xmlns:svg="http://www.w3.org/2000/svg"
	 xmlns="http://www.w3.org/2000/svg" xmlns:xlink="http://www.w3.org/1999/xlink" x="0px" y="0px" viewBox="0 0 143.6 143.6"
	 style="enable-background:new 0 0 143.6 143.6;" xml:space="preserve">
<style type="text/css">
	.st0{fill:#FFFFFF;}
</style>
<path id="contorno" class="st0" d="M143.6,69.9c-0.1-58.3,0.1-52.9-2.4-57.8c-3.1-6.2-8.4-10.3-15.3-11.7C123.5,0,19.3,0,17,0.6
	C8.9,2.4,2.6,8.4,0.6,16.3C0,18.6,0,19.7,0,71.9c0,52.5,0,53.3,0.6,55.5c0.6,2.1,2,5.2,3.2,7c1,1.5,3.6,4,5.4,5.3
	c2.1,1.5,4.5,2.5,7.1,3.2c2,0.5,4.6,0.5,55.2,0.6c52.3,0,53.1,0,55.4-0.6c9-2.3,15.3-9.3,16.4-18.4
	C143.6,122.6,143.7,107,143.6,69.9z M116.1,80c-0.1,12.3-0.2,13.3-0.7,15.4c-1.4,5-3.6,8.8-7,12.3c-4.7,4.8-9.8,7.4-16.3,8.3v0
	c-3.7,0.5-39.9,0.4-42.9-0.2c-6.2-1.1-12.3-5.1-16.5-10.5c-2.2-2.9-3.2-4.9-4.3-8.2c-1.3-4-1.4-6.9-1.3-27.1
	c0.1-16.1,0.2-18.9,0.6-20.6c2.3-9.3,8.5-16.6,17.1-20c4.7-1.9,7.7-2.1,21.5-2c8.8,0.1,11.4,0.2,12.6,0.6c4.9,1.5,9.2,4.1,13,8
	c5.4,5.5,8.1,11.6,8.1,18.1c0,3.4,0.6,4.7,2.6,5.9c1.3,0.7,1.7,0.8,5.7,1c2.4,0.1,4.6,0.3,5,0.5c1.1,0.6,2.1,2.1,2.5,3.7
	C116.1,66.3,116.2,70.7,116.1,80z"/>
<path id="b1" class="st0" d="M54.1,60.7c-3.3-0.9-4.5-5.6-2.1-8.1c1.5-1.6,2-1.6,11.7-1.6c8.7,0,9,0,10.3,0.7
	c1.8,0.9,2.7,2.3,2.7,4.3c0,1.9-0.8,3.2-2.4,4.3c-0.9,0.6-1.4,0.6-10,0.7C58.9,61,54.7,60.9,54.1,60.7z"/>
<path id="b2" class="st0" d="M53.6,92.5c-1.4-0.6-2.7-2.3-3-3.9c-0.2-1.4,0.5-3.4,1.6-4.4c1.4-1.3,2-1.3,19.3-1.3
	c17.8,0,17.7,0,19.4,1.6c2.4,2.2,1.9,6.2-1,7.8l-2.9,0.5l-15.4,0.2C58.2,93.1,54.3,92.9,53.6,92.5z"/>
</svg>
