<?xml version="1.0" encoding="utf-8"?>
<!-- Generator: Adobe Illustrator 25.3.1, SVG Export Plug-In . SVG Version: 6.00 Build 0)  -->
<svg version="1.1" id="Camada_1" xmlns="http://www.w3.org/2000/svg" xmlns:xlink="http://www.w3.org/1999/xlink" x="0px" y="0px"
	 viewBox="0 0 128 128" style="enable-background:new 0 0 128 128;" xml:space="preserve">
<style type="text/css">
	.st0{fill:#FFFFFF;}
</style>
<g>
	<path class="st0" d="M115.5,26.7H94.3l-9.1-9.5c-2.1-3.8-6.2-6.1-10.6-6.1H53.9c-4.4,0-8.5,2.4-10.6,6.1l-9.2,9.5H12.5
		C5.8,26.7,0.3,32,0.3,38.6V105c0,6.6,5.4,11.9,12.2,11.9h102.9c6.7,0,12.2-5.3,12.2-11.9V38.7C127.6,32.1,122.2,26.7,115.5,26.7z
		 M64,101.2c-17.6,0-31.9-14.3-31.9-31.9S46.4,37.4,64,37.4s31.9,14.3,31.9,31.9C95.8,87,81.6,101.2,64,101.2z M64,48.1
		c-11.7,0-21.2,9.5-21.2,21.2S52.3,90.5,64,90.5S85.2,81,85.2,69.3S75.7,48.1,64,48.1z"/>
</g>
</svg>
