<?xml version="1.0" encoding="utf-8"?>
<!-- Generator: Adobe Illustrator 25.3.1, SVG Export Plug-In . SVG Version: 6.00 Build 0)  -->
<svg version="1.1"
	 id="svg2" xmlns:cc="http://creativecommons.org/ns#" xmlns:dc="http://purl.org/dc/elements/1.1/" xmlns:rdf="http://www.w3.org/1999/02/22-rdf-syntax-ns#" xmlns:svg="http://www.w3.org/2000/svg"
	 xmlns="http://www.w3.org/2000/svg" xmlns:xlink="http://www.w3.org/1999/xlink" x="0px" y="0px" viewBox="0 0 199.6 199.6"
	 style="enable-background:new 0 0 199.6 199.6;" xml:space="preserve">
<style type="text/css">
	.st0{fill:#FFFFFF;}
</style>
<path id="path3095-5" class="st0" d="M111.9,27.8c-47.9,0-86.8,24.4-87.7,54.7c11.7-5.6,26-8.8,41.4-8.8c19,0,36.3,4.9,49.2,13.1
	c12.9,8.2,21.7,20.2,21.7,33.9c0,6.1-1.8,11.9-4.9,17.2c1-0.1,2-0.3,3-0.5c18.3,15.8,59.6,14.3,59.6,14.3s-16.8-4.9-27.2-15.5
	c-1.8-1.8-3.3-4.3-4.5-7.2c22.4-10.1,37-26.8,37-45.6C199.6,52.8,160.3,27.8,111.9,27.8L111.9,27.8z M65.6,79
	C29.3,79,0,97.7,0,120.7c0,14,10.9,26.5,27.6,34.1c-0.9,2.1-2,4-3.3,5.4C16.5,168.1,4,171.7,4,171.7s30.8,1.1,44.5-10.7
	c5.4,0.9,11.2,1.4,17.1,1.4c36.2,0,65.6-18.7,65.6-41.7C131.2,97.7,101.8,79,65.6,79L65.6,79z"/>
</svg>
