<?xml version="1.0" encoding="utf-8"?>
<!-- Generator: Adobe Illustrator 25.3.1, SVG Export Plug-In . SVG Version: 6.00 Build 0)  -->
<svg version="1.1" id="Camada_1" xmlns="http://www.w3.org/2000/svg" xmlns:xlink="http://www.w3.org/1999/xlink" x="0px" y="0px"
	 viewBox="0 0 241 241" style="enable-background:new 0 0 241 241;" xml:space="preserve">
<style type="text/css">
	.st0{fill:#FFFFFF;}
	.st1{fill:none;}
</style>
<g>
	<path class="st0" d="M48.3,15.7c5.9,8.3,11,15.5,16.3,22.9C76.3,29,90.2,27.1,104,26c6.1-0.4,12.2-0.6,18.3-0.6
		c6.9,0,13.7,0.2,20.6,0.7c11.1,0.7,21.6,3.9,29.8,12.5c6.4-7.6,12.5-15,18.7-22.3c0.5,0.1,1,0.3,1.6,0.4c0.8,4.3,2.2,8.6,2.5,12.9
		c1.7,25.3,3.1,50.5,4.7,75.8c0.2,3.6,0.7,7.3,1.7,10.7c7.4,23.4,10.8,47.1,5.6,71.4c-2.8,13.3-8.7,25.1-18.3,34.9
		c-1.1,1.2-2.4,2.2-4.8,4.4c-0.4-5.1-0.8-8.9-0.9-12.7c-0.2-6.5,0.4-13-0.5-19.4c-2.8-20.3-14.6-33.4-33.8-40.1
		c-10.6-3.7-21.2-5.9-31.7-5.9c-11,0-21.9,2.4-32.7,7.9c-17.8,9-27.2,23.4-28.2,43.3c-0.4,8.1-0.8,16.3-1.3,25.5
		c-7-6.2-11.9-13-15.6-20.7c-8.8-17.8-10.2-36.7-7.5-55.7c1.8-13.1,5.8-25.9,8.2-38.9c1.1-6.1,0.4-12.6,0.9-18.9
		C43,68.8,44.7,46.4,46.6,24C46.7,21.8,47.4,19.6,48.3,15.7 M85.7,120.4c6.5,0,14.5-2.9,20.3-8.1c10.5-9.4,10.5-23.9,0.1-33.3
		c-6-5.5-14.3-8.2-22.6-8.2c-8.4,0-16.8,2.8-22.8,8.3c-10.4,9.5-10.3,24,0.3,33.3C67.4,118.1,75.1,120.4,85.7,120.4 M156.3,120.4
		c8.4,0,15.6-2.1,21.9-7c12-9.4,12.3-25.1,0.7-34.9c-6-5.1-14-7.6-22-7.6c-8.3,0-16.6,2.7-22.7,8.2c-10.3,9.2-10.4,23.6-0.3,33
		C140.3,117.9,148.1,120.3,156.3,120.4 M45.3,1.2l-2.9,13.2c-0.3,1.3-0.6,2.4-0.8,3.4c-0.5,2-0.9,3.8-1.1,5.8
		c-1.5,18.3-3.4,42.6-5.3,67.2C35,93.5,35,96.1,35,98.7c0,3.7,0,7.2-0.6,10.4c-1,5.4-2.3,11-3.6,16.4c-1.8,7.4-3.6,15-4.6,22.8
		c-3.1,22.4-0.5,41.8,7.9,59.1c4.2,8.8,9.8,16.2,17.1,22.5l9.3,8.2l0.6-12.4l0.5-8.8l0.9-16.7c0.9-17.7,9.1-30.2,24.9-38.3
		c9.6-4.9,19.4-7.2,30-7.2c9.3,0,19,1.8,29.8,5.5c17.6,6.1,27.4,17.7,29.8,35.2c0.5,3.6,0.5,7.5,0.4,11.5c0,2.4-0.1,4.8,0,7.3
		c0.1,2.7,0.3,5.4,0.6,8.4c0.1,1.4,0.3,2.9,0.4,4.6l0.9,12.3l9.1-8.3c0.8-0.8,1.5-1.4,2.1-1.9c1.1-1,2-1.8,2.9-2.7
		c10.1-10.3,16.8-23,19.9-37.9c4.8-22.9,3-46.5-5.8-74.5c-1-3.1-1.3-6.6-1.5-9.3c-0.7-10.8-1.3-21.7-2-32.4
		c-0.8-14.2-1.7-29-2.7-43.4c-0.2-3.5-1-6.7-1.7-9.8c-0.3-1.3-0.6-2.6-0.9-3.9l-0.7-3.7l-3.7-0.9l-0.9-0.2l-0.7-0.2L189,9.5
		l-2.4,2.9l-4.2,5L171.9,30c-7.7-5.9-17.2-9.1-28.9-9.9c-7.4-0.5-14.3-0.7-20.9-0.7c-6.5,0-12.8,0.2-18.8,0.7
		c-12,0.9-25.6,2.5-37.7,10.1l-12.4-18L45.3,1.2L45.3,1.2z M85.7,114.4c-9.4,0-15.6-2-20.8-6.5c-3.8-3.4-5.9-7.7-6-12.1
		c0-4.5,2-8.8,5.8-12.3c4.7-4.3,11.5-6.7,18.7-6.7c7.2,0,13.9,2.4,18.6,6.6c3.8,3.4,5.9,7.8,5.8,12.2c0,4.5-2.1,8.8-5.9,12.2
		C97.6,111.8,91.2,114.4,85.7,114.4L85.7,114.4z M156.3,114.4c-7.3-0.1-13.5-2.4-18.3-6.9c-3.6-3.4-5.6-7.7-5.6-12.1s2.1-8.7,5.8-12
		c4.7-4.2,11.5-6.6,18.7-6.6c6.9,0,13.5,2.3,18.1,6.2c4.2,3.6,6.4,8.2,6.4,12.9c-0.1,4.8-2.5,9.3-6.9,12.7
		C169.5,112.6,163.7,114.4,156.3,114.4L156.3,114.4z"/>
</g>
<g>
	<path class="st0" d="M122,154.5c-0.8,3.7-1.4,5.4-3.1,5.4c-1.3,0-3.4-0.9-6.6-2.7c-0.3,0.4-0.5,0.7-0.8,1.1c2,1.4,3.7,3.7,5.9,4
		c0.4,0.1,0.8,0.1,1.2,0.1c3.7,0,5-3.4,6.2-6.9c2.5,0.4,5,0.7,7.4,1.2c2.4,0.4,4.7,1,7.4,1.5c-1.3,1.5-2,2.2-3.2,2.2
		c-1.1,0-2.8-0.8-6-2.3c0.9,3.4,3.2,5.3,5.7,5.3c1.5,0,3-0.7,4.3-2.2c1.1-1.3,2.1-1.8,3.2-1.8c0.7,0,1.5,0.2,2.3,0.6
		c5,2.2,9.9,4.5,14.7,6.8c-1,4.2-1.8,6-3.8,6c-1.4,0-3.4-1-6.4-2.7c-0.3,0.3-0.5,0.7-0.8,1c1.7,1.3,3.5,3.9,5,3.9c0.1,0,0.1,0,0.2,0
		c3.1-0.5,5.9-2.6,9.5-4.4c7.9,6.4,14,20.5,10.2,25.3c4.4,5.9,4.4,11.1-0.3,17c-2.3,3-4.6,6.3-7.7,8.1c-0.5,0.3-1.1,0.4-1.8,0.4
		c-1.9,0-4.3-0.8-6.5-1.1c0.9,1.2,2.1,2.9,4.1,5.5c-5.1,2.2-9.9,6-14.8,6c-2.7,0-5.8,1.6-8.8,1.6c-1.9,0-3.7-0.7-5.3-2.9
		c-1.9,1.6-5.4,2.3-8.9,2.3c-4.3,0-8.5-1.2-9.5-3.5c-1.6,2.4-3.4,3.6-5.4,3.6c-1.3,0-2.6-0.4-4.1-1.3c-0.1-0.1-0.3-0.1-0.5-0.1
		c-0.9,0-2.3,0.8-3.4,0.8c-0.1,0-0.2,0-0.2,0c-10.3-1.3-29.1-6.4-37-18.6c1.8-2.4,3.5-4.7,5.2-7.1c-0.5-0.5-1.1-1-1.6-1.4
		c-0.9,2-1.7,4-2.6,6c-0.6-0.5-1.2-1-1.8-1.5c-0.2-0.6-0.6-1.2-0.7-1.8c-0.5-10.7,0.7-21,6.6-30.2c0.8-1.3,2.9-2.2,4.5-2.3
		c4.1-0.3,6.2-2.2,6.3-7c-1.9,1.6-3.7,3.2-5.6,4.8c-0.5-0.6-1-1.3-1.4-1.9c5.1-3.3,10.1-6.7,15.3-9.8c0.2-0.1,0.5-0.2,0.8-0.2
		c0.9,0,2.2,0.5,3.1,0.9c1.2,0.6,2.4,0.9,3.6,0.9c1.8,0,3.4-0.8,4.2-2.8c1.7-4.2,4.8-4.6,8.3-4.9C112.9,155.2,117.4,154.9,122,154.5
		 M115.8,173c-2,0-4.2-1.5-6.5-3.9c-0.2,0.9-0.3,1.8-0.5,2.7c2.5,1.2,4.9,3.4,7.4,3.5h0.1c3.4,0,5.1-2.8,4.7-7
		C119.4,171.6,117.7,173,115.8,173 M93.1,174.1c-2,0-4.1-1.4-6.5-3.2c1.4,3.1,3.1,5.5,6.1,5.5c0.4,0,0.7,0,1.1-0.1
		c3.5-0.6,5.1-3,4.5-7.3C96.8,172.7,95,174.1,93.1,174.1 M134,173.6c-1.5,0-3.4-1.1-7.2-3.1c1.7,3.8,3.7,5.8,6.6,5.8
		c0.6,0,1.2-0.1,1.9-0.3c3-0.8,4.1-3.2,3.3-6.4C136.7,172.4,135.7,173.6,134,173.6 M119.9,185.8c-1.8,0-3.8-1.3-6-3.5
		c1.8,4.1,3.8,5.9,6.1,5.9c0.6,0,1.1-0.1,1.7-0.3c2.8-0.9,4.1-3.4,3.3-7.8C123.6,184.1,121.9,185.8,119.9,185.8 M102,184.6
		c-1.4,0-3.2-1.1-6.5-3c1.7,3.9,3.7,5.7,6.2,5.7c0.6,0,1.2-0.1,1.8-0.3c2.8-0.9,4.1-3.3,3.5-6.6C104.7,183.2,103.6,184.6,102,184.6
		 M142.9,184.9c-1.4,0-3.1-1.2-6.5-3.4c1.3,3.9,3.5,5.9,6.1,5.9c0.7,0,1.4-0.1,2.1-0.4c2.9-1.1,4-3.8,2.7-6.5
		C145.4,183.4,144.4,184.9,142.9,184.9 M160.8,185.8c-2,0-4.1-1.4-6.4-3.2c1.4,3.3,3.1,5.6,6,5.6c0.5,0,1-0.1,1.5-0.2
		c3.2-0.7,5-3,4.1-7C164.5,184.4,162.8,185.8,160.8,185.8 M79,185.2c-1.5,0-3.3-1.1-6.6-3.1c1.6,4,3.5,6.1,6.4,6.1
		c0.4,0,0.9,0,1.4-0.1c3.4-0.7,5.1-3,4.8-6.9C82.1,183.8,80.7,185.2,79,185.2 M99.2,197.8c-1.9,0-4.1-1.4-6.4-3.2
		c1.4,3.6,3.3,5.6,6.2,5.6c0.6,0,1.2-0.1,1.9-0.2c2.8-0.7,4.1-3.2,3.4-7.9C103,196.2,101.2,197.8,99.2,197.8 M140.3,198
		c-2,0-4.3-1.6-6.6-3.5c1.2,3.7,3.1,5.7,5.9,5.7c0.6,0,1.2-0.1,1.8-0.3c3-0.8,4.7-3.1,3.6-7.4C143.8,196.6,142.1,198,140.3,198
		 M157.7,198.6c-1.7,0-3.6-1.1-5.6-3.1c1,3.5,2.9,5.6,5.7,5.6c0.6,0,1.2-0.1,1.9-0.3c3-0.8,4.6-3.2,4-8.1
		C161.9,196.8,159.9,198.6,157.7,198.6 M76.7,198.8c-1.9,0-4-1.3-6.2-3.7c0.9,4,2.9,5.9,5.9,5.9c0.4,0,0.8,0,1.3-0.1
		c3.5-0.6,4.8-3.1,4.5-6.9C80.6,197.3,78.7,198.8,76.7,198.8 M117.6,198.2c-1.5,0-3.4-1-7.1-3c1.8,3.8,3.8,5.8,6.7,5.8
		c0.6,0,1.2-0.1,1.9-0.2c2.8-0.7,4.1-3.2,3.6-6.6C120.4,197,119.3,198.2,117.6,198.2 M167,209.7c-1.9,0-4-1.4-6.3-3.6
		c1,3.6,2.9,5.7,6.1,5.7c0.1,0,0.2,0,0.3,0c3.8-0.2,5.5-2.8,5.3-7.2C170.8,208.2,169,209.7,167,209.7 M126.2,209.6
		c-1.3,0-2.9-1-5.9-2.8c0.9,3.1,2.7,5.1,5.8,5.1c0.5,0,0.9,0,1.5-0.1c3-0.5,4.6-3.5,3.8-6.7C128.9,208.2,127.8,209.6,126.2,209.6
		 M85.3,209.5c-1.3,0-2.9-0.9-5.8-2.6c1,2.9,2.8,5,5.9,5c0.3,0,0.7,0,1-0.1c3.1-0.4,4.7-3.1,4.3-6.7
		C88.1,208.2,86.9,209.5,85.3,209.5 M144.4,210.2c-1.5,0-3.2-1.2-6.7-3.5c1.5,4.3,3.6,6.2,6.8,6.2c0.3,0,0.6,0,0.9-0.1
		c3.1-0.3,4.7-3.1,4.3-6.7C147.2,208.8,146,210.2,144.4,210.2 M104,210.2c-1.3,0-3-1-6.1-2.8c0.6,3.3,3,5.5,5.8,5.5
		c0.4,0,0.8,0,1.2-0.1c3.1-0.7,4.7-3.3,3.9-6.6C106.6,208.9,105.6,210.2,104,210.2 M82.4,222.6c-1.7,0-3.6-1.1-5.7-3.3
		c1.3,3.3,3,5.7,5.9,5.7c0.4,0,0.8,0,1.3-0.1c3.3-0.7,5.1-3,4.6-8.2C86.6,220.7,84.6,222.6,82.4,222.6 M123.6,222
		c-1.4,0-3.1-0.9-6.2-2.5c0.9,3.7,3,5.5,6,5.5c0.4,0,0.7,0,1.1-0.1c3.4-0.5,5.3-2.8,4.8-6.9C126.5,220.7,125.3,222,123.6,222
		 M142.1,223.2c-1.3,0-3.2-0.8-6.5-2.2c1.3,2.7,3,4.9,6.1,4.9c0.4,0,0.9,0,1.3-0.1c3.2-0.6,4.7-3.5,3.7-6.6
		C144.7,221.9,143.8,223.2,142.1,223.2 M101.2,222.9c-1.4,0-3.2-0.7-6.3-2c1.3,2.6,3,4.9,6.2,4.9c0.4,0,0.8,0,1.2-0.1
		c3-0.5,4.6-3.3,4.1-6.7C104,221.8,103,222.9,101.2,222.9 M121.5,148.5c-1.4,0.1-2.8,0.2-4.2,0.3c-3.3,0.3-6.3,0.5-9.5,0.9
		c-3.4,0.4-9.5,1-12.7,7.5c-0.1,0-0.1-0.1-0.2-0.1c-2.1-1-3.9-1.5-5.6-1.5c-1.4,0-2.7,0.3-3.9,1c-4,2.4-7.9,5-11.7,7.5
		c-1.3,0.8-2.5,1.7-3.8,2.5l-0.7,4.1c-1.9,0.8-3.7,2.2-4.9,4c-7.6,11.8-7.9,24.9-7.5,33.7c0.1,1.6,0.7,2.8,1,3.5
		c0,0.1,0.1,0.1,0.1,0.2V212l1.5,2.1l-0.1,3.1c10.8,16.5,36.3,20.6,41.3,21.2c0.3,0,0.7,0.1,1,0.1c1.1,0,2.1-0.2,2.9-0.5
		c1.7,0.7,3.4,1.1,5.1,1.1s3.8-0.4,5.9-1.7c2.5,1.1,5.5,1.6,9,1.6c1.6,0,4.7-0.2,7.8-1.2c1.9,1.2,4,1.8,6.3,1.8
		c2.3,0,4.4-0.6,6.2-1.1c1-0.3,2.1-0.6,2.7-0.6c4.9,0,9.2-2.4,13-4.4c1.5-0.8,2.8-1.5,4.2-2.1l1.1-4c1.4-0.1,2.6-0.5,3.7-1.2
		c3.7-2.2,6.3-5.5,8.5-8.5c0.3-0.4,0.6-0.8,0.9-1.1c5.5-7,6.3-14.2,2.3-21.3c0.9-3.8,0.3-8.5-1.9-13.8c-2.5-6.1-6.8-12-11.3-15.6
		l-2.9-0.3l-2.1-4.3c-1.4-0.6-2.7-1.3-4.1-1.9c-3.5-1.6-7-3.3-10.6-4.9c-1.1-0.5-2.8-1.1-4.8-1.1c-0.8,0-1.6,0.1-2.3,0.3l-0.4-1.4
		c-0.8-0.2-1.6-0.3-2.4-0.5c-1.8-0.4-3.4-0.7-5.2-1.1c-1.8-0.3-3.6-0.6-5.3-0.9c-0.7-0.1-1.5-0.2-2.3-0.4l-2.1,1.3L121.5,148.5
		L121.5,148.5z"/>
</g>
<path class="st0" d="M156.3,120.4c-8.1-0.1-15.9-2.5-22.4-8.5c-10.2-9.4-10-23.8,0.3-33c11.9-10.7,32.5-10.9,44.7-0.5
	c11.6,9.9,11.2,25.5-0.7,34.9C171.9,118.3,164.7,120.4,156.3,120.4z M177,91.9c-3.8-0.9-7.7-0.1-9.2,4c-0.7,2,0.1,6.2,1.5,6.9
	c2.7,1.4,6.6,2,9.6,1.3c3.2-0.7,4.7-3.9,3.7-7.1c-1.8,0-4.1,0.6-4.7-0.1C177,95.9,177.3,93.8,177,91.9z"/>
<path class="st0" d="M85.7,120.4c-10.6-0.1-18.3-2.4-24.7-8c-10.6-9.3-10.7-23.8-0.3-33.3c12-11,33.3-11.1,45.4-0.1
	c10.4,9.5,10.4,23.9-0.1,33.3C100.2,117.5,92.2,120.4,85.7,120.4z M103.3,91.9c-3.6-0.7-6.9,0.4-8.6,4.3c-1.4,3.1-0.3,6,2.6,7.8
	c3.4,2.1,7,2.1,10.2-0.4c2.7-2.1,3.7-4.9,2-7.5c-2,0.5-3.5,0.9-5.1,1.3C104.1,95.6,103.7,93.9,103.3,91.9z"/>
<path class="st0" d="M97.9,207.4c6.8,3.9,6.8,3.9,10.9-1.2c0.8,3.3-0.8,5.9-3.9,6.6C101.6,213.5,98.6,211.2,97.9,207.4z"/>
<path class="st0" d="M137.7,206.6c7,4.8,7,4.8,12-0.5c0.3,3.6-1.3,6.3-4.3,6.7C141.8,213.2,139.3,211.4,137.7,206.6z"/>
<path class="st0" d="M76.7,219.3c4.8,5,8.5,4.5,11.9-2.7c0.5,5.3-1.4,7.6-4.6,8.2C80.1,225.7,78.2,223.1,76.7,219.3z"/>
<path class="st0" d="M135.6,220.9c7.4,3.2,7.4,3.2,11.1-1.8c1,3.1-0.5,6.1-3.7,6.6C139.1,226.5,137.1,224,135.6,220.9z"/>
<path class="st0" d="M113.9,182.3c4.6,4.6,8.5,5.5,11.2-2.1c0.8,4.4-0.5,6.9-3.3,7.8C118.6,188.9,116,187.4,113.9,182.3z"/>
<path class="st0" d="M104.3,192c0.7,4.7-0.6,7.2-3.4,7.9c-4,1-6.5-1-8.1-5.4C97.5,198.3,101.8,200.2,104.3,192z"/>
<path class="st0" d="M172.5,204.7c0.2,4.4-1.5,7-5.3,7.2c-3.4,0.2-5.3-2-6.4-5.7C165.4,210.7,169.3,211.6,172.5,204.7z"/>
<path class="st0" d="M120.9,168.3c0.4,4.2-1.3,7-4.7,7c-2.5,0-4.9-2.2-7.4-3.5c0.2-0.9,0.3-1.8,0.5-2.7
	C113.9,173.9,117.9,175.1,120.9,168.3z"/>
<path class="st0" d="M98.3,169c0.6,4.3-1,6.7-4.5,7.3c-3.8,0.7-5.6-1.9-7.2-5.4C91.3,174.7,95.3,176.4,98.3,169z"/>
<path class="st0" d="M72.5,182c7,4.3,7,4.3,12.6-1c0.2,3.9-1.4,6.3-4.8,6.9C76.6,188.7,74.3,186.6,72.5,182z"/>
<path class="st0" d="M110.5,195.3c7.7,4.1,7.7,4.1,12.2-1c0.5,3.4-0.8,5.9-3.6,6.6C115.1,201.8,112.7,199.8,110.5,195.3z"/>
<path class="st0" d="M152.1,195.6c4.7,4.6,8.4,4.3,11.7-2.8c0.5,4.9-1,7.3-4,8.1C155.7,201.9,153.3,199.7,152.1,195.6z"/>
<path class="st0" d="M120.3,206.8c6.5,4,6.5,4,11-1.7c0.8,3.1-0.7,6.1-3.8,6.7C123.6,212.6,121.4,210.4,120.3,206.8z"/>
<path class="st0" d="M94.9,221c7.3,2.9,7.3,2.9,11.5-1.9c0.5,3.3-1,6.2-4.1,6.7C98.3,226.4,96.4,223.9,94.9,221z"/>
<path class="st0" d="M136.4,181.4c7.1,4.7,7.2,4.7,10.9-1c1.3,2.6,0.1,5.3-2.7,6.5C141.2,188.2,138.1,186.3,136.4,181.4z"/>
<path class="st0" d="M117.4,219.4c6.8,3.6,6.8,3.6,11.9-1.4c0.5,4-1.5,6.4-4.8,6.9C120.9,225.4,118.3,223.6,117.4,219.4z"/>
<path class="st0" d="M95.5,181.6c7.2,4.2,7.2,4.2,11.5-1.2c0.6,3.3-0.6,5.7-3.5,6.6C100.2,188,97.6,186.4,95.5,181.6z"/>
<path class="st0" d="M166,180.9c0.9,4-0.9,6.3-4.1,7c-3.8,0.9-5.9-1.6-7.5-5.4C159,186.3,163,188,166,180.9z"/>
<path class="st0" d="M145.1,192.6c1.1,4.3-0.6,6.6-3.6,7.4c-3.8,1-6.4-1-7.8-5.5C138.2,198.1,142.4,200.8,145.1,192.6z"/>
<path class="st0" d="M82.2,194c0.3,3.8-1.1,6.4-4.5,6.9c-3.6,0.6-6.1-1.2-7.2-5.8C75.1,200,79,200.4,82.2,194z"/>
<path class="st0" d="M79.6,207c6.4,3.7,6.4,3.7,11.3-1.8c0.4,3.6-1.2,6.3-4.3,6.7C82.7,212.4,80.7,210.1,79.6,207z"/>
<path class="st0" d="M126.9,170.5c7.9,4.3,7.9,4.3,11.9-0.9c0.8,3.2-0.4,5.7-3.3,6.4C131.4,177.1,129,175.1,126.9,170.5z"/>
<path class="st1" d="M177,91.9c0.3,1.9,0,3.9,0.9,5c0.6,0.7,2.8,0.1,4.7,0.1c1,3.2-0.5,6.4-3.7,7.1c-3,0.7-6.9,0.1-9.6-1.3
	c-1.4-0.7-2.2-4.9-1.5-6.9C169.3,91.8,173.2,91,177,91.9z"/>
<path class="st1" d="M103.3,91.9c0.4,2,0.8,3.7,1.1,5.4c1.6-0.4,3.1-0.8,5.1-1.3c1.7,2.6,0.7,5.4-2,7.5c-3.2,2.5-6.8,2.5-10.2,0.4
	c-2.9-1.8-3.9-4.7-2.6-7.8C96.4,92.4,99.7,91.2,103.3,91.9z"/>
</svg>
