<?xml version="1.0" encoding="utf-8"?>
<!-- Generator: Adobe Illustrator 25.3.1, SVG Export Plug-In . SVG Version: 6.00 Build 0)  -->
<svg version="1.1" id="Layer_1" xmlns="http://www.w3.org/2000/svg" xmlns:xlink="http://www.w3.org/1999/xlink" x="0px" y="0px"
	 viewBox="0 0 286.7 286.7" style="enable-background:new 0 0 286.7 286.7;" xml:space="preserve">
<style type="text/css">
	.st0{fill:#FFFFFF;}
</style>
<path id="Facebook-2" class="st0" d="M270.9,0H15.8C7.1,0,0,7.1,0,15.8v255.1c0,8.7,7.1,15.8,15.8,15.8c0,0,0,0,0,0h137.3v-111
	h-37.4v-43.3h37.4v-31.9c0-37,22.6-57.2,55.7-57.2c11.2,0,22.3,0.5,33.4,1.7v38.7h-22.9c-18,0-21.5,8.5-21.5,21.1v27.6h42.9
	l-5.6,43.3h-37.3v111h73.1c8.7,0,15.8-7.1,15.8-15.8v-255C286.7,7.1,279.6,0,270.9,0z"/>
</svg>
