<?xml version="1.0" encoding="utf-8"?>
<!-- Generator: Adobe Illustrator 25.3.1, SVG Export Plug-In . SVG Version: 6.00 Build 0)  -->
<svg version="1.1" id="Layer_1" xmlns="http://www.w3.org/2000/svg" xmlns:xlink="http://www.w3.org/1999/xlink" x="0px" y="0px"
	 viewBox="0 0 100 100" style="enable-background:new 0 0 100 100;" xml:space="preserve">
<style type="text/css">
	.st0{fill:#ffffff;}
</style>
<path class="st0" d="M77.4,8.3c6.1,0,11,4.9,11,11s-4.9,11-11,11s-11-4.9-11-11S71.3,8.3,77.4,8.3z"/>
<path class="st0" d="M21.7,8.3c6.1,0,11,4.9,11,11s-4.9,11-11,11s-11-4.9-11-11C10.7,13.2,15.6,8.3,21.7,8.3z"/>
<path class="st0" d="M51.3,19.7c8.1,0,14.7,6.6,14.7,14.7s-6.6,14.7-14.7,14.7s-14.7-6.6-14.7-14.7S43.2,19.7,51.3,19.7z"/>
<path class="st0" d="M90,34.1H69c0,0.1,0,0.2,0,0.3c0,5.9-2.9,11.1-7.3,14.4h5.5c7.1,0,12.8,5.1,12.8,11.5v8.8h20v-25
	C100,38.6,95.5,34.1,90,34.1z"/>
<path class="st0" d="M77.1,91.7V62.9c0-6.3-5.1-11.5-11.5-11.5H36c-6.3,0-11.5,5.1-11.5,11.5v28.8H77.1L77.1,91.7z"/>
<path class="st0" d="M33.5,34.4c0-0.1,0-0.2,0-0.3H10c-5.5,0-10,4.5-10,10V69h21.1v-8.9c0-6.3,5.7-11.5,12.8-11.5h7
	C36.4,45.5,33.5,40.3,33.5,34.4z"/>
</svg>
