<?xml version="1.0" encoding="utf-8"?>
<!-- Generator: Adobe Illustrator 25.3.1, SVG Export Plug-In . SVG Version: 6.00 Build 0)  -->
<svg version="1.1" id="Layer_1" xmlns="http://www.w3.org/2000/svg" xmlns:xlink="http://www.w3.org/1999/xlink" x="0px" y="0px"
	 viewBox="0 0 100 83.4" style="enable-background:new 0 0 100 83.4;" xml:space="preserve">
<path d="M77.4,0c6.1,0,11,4.9,11,11s-4.9,11-11,11c-6.1,0-11-4.9-11-11C66.4,4.9,71.3,0,77.4,0z"/>
<path d="M21.7,0c6.1,0,11,4.9,11,11s-4.9,11-11,11s-11-4.9-11-11C10.7,4.9,15.6,0,21.7,0z"/>
<path d="M51.3,11.4c8.1,0,14.7,6.6,14.7,14.7c0,8.1-6.6,14.7-14.7,14.7c-8.1,0-14.7-6.6-14.7-14.7C36.6,18,43.2,11.4,51.3,11.4z"/>
<path d="M90,25.8H69c0,0.1,0,0.2,0,0.3c0,5.9-2.9,11.1-7.3,14.4h5.5c7.1,0,12.8,5.1,12.8,11.5v8.8h20V35.8
	C100,30.3,95.5,25.8,90,25.8z"/>
<path d="M77.1,83.4V54.6c0-6.3-5.1-11.5-11.5-11.5H36c-6.3,0-11.5,5.1-11.5,11.5v28.8L77.1,83.4L77.1,83.4z"/>
<path d="M33.5,26.1c0-0.1,0-0.2,0-0.3H10c-5.5,0-10,4.5-10,10v24.9h21.1v-8.9c0-6.3,5.7-11.5,12.8-11.5h7
	C36.4,37.2,33.5,32,33.5,26.1z"/>
</svg>
