<?xml version="1.0" encoding="utf-8"?>
<!-- Generator: Adobe Illustrator 25.3.1, SVG Export Plug-In . SVG Version: 6.00 Build 0)  -->
<svg version="1.1" id="Camada_1" xmlns="http://www.w3.org/2000/svg" xmlns:xlink="http://www.w3.org/1999/xlink" x="0px" y="0px"
	 viewBox="0 0 556 556" style="enable-background:new 0 0 556 556;" xml:space="preserve">
<style type="text/css">
	.st0{fill:#FFFFFF;}
</style>
<g>
	<path class="st0" d="M440.2,420.2c-2.2-1.5-5.3-4.9-6.2-4.4c-2.7,1.5-3.8,4.9-4.1,8.2c-1.1,17.3-4.3,34.5-3.9,51.9h50.5
		C468.3,454.9,459.6,434.1,440.2,420.2z"/>
	<path class="st0" d="M501.2,80H54.8C24.5,80,0,104.5,0,134.8v286.4C0,451.5,24.5,476,54.8,476h202.1c-3-32.7-4.6-65.6-10.2-98
		c-18.4-15.7-39.3-27.7-59.1-41.4c-9.8-6.7-17.9-14.5-25.1-23.9c-19.8-25.8-40.2-51.1-60.2-76.7c-2.2-2.8-3.7-6.1-5.4-9.3
		c-4.6-8.6-3.8-16.6,4.2-22.5c8-5.8,16-4.2,22.8,2.7c10.7,10.9,21.2,22,31.7,33.1c11.1,11.6,22.2,23.3,33.3,34.9
		c26.5,27.5,59.7,39.9,97.2,41c29.7,0.9,59.6,1.7,89.3-0.2c35.7-2.3,60,13.2,77.6,42.4c12.5,15.1,24.3,30.8,37.5,45.2
		c14.4,15.6,17.8,35.6,24.8,54.2l5.1,14.9c20.8-7.8,35.7-27.8,35.7-51.4V134.8C556,104.5,531.5,80,501.2,80z M343,296
		c-34.8,0-63-28.2-63-63s28.2-63,63-63s63,28.2,63,63S377.8,296,343,296z"/>
</g>
</svg>
