<?xml version="1.0" encoding="utf-8"?>
<!-- Generator: Adobe Illustrator 25.3.1, SVG Export Plug-In . SVG Version: 6.00 Build 0)  -->
<svg version="1.1" id="layer" xmlns="http://www.w3.org/2000/svg" xmlns:xlink="http://www.w3.org/1999/xlink" x="0px" y="0px"
	 viewBox="0 0 885.6 885.6" style="enable-background:new 0 0 885.6 885.6;" xml:space="preserve">
<style type="text/css">
	.st0{fill:#FFFFFF;}
	.st1{fill:none;}
</style>
<path class="st0" d="M42.8,450.1c-1.9,0-3.4,1.5-3.7,3.6l-8.7,79.5l8.7,77.8c0.3,2.1,1.8,3.6,3.7,3.6c1.9,0,3.4-1.5,3.7-3.6
	l9.9-77.8l-9.9-79.5C46.2,451.6,44.7,450.1,42.8,450.1"/>
<path class="st0" d="M10.1,480.6c-1.8,0-3.3,1.4-3.6,3.5L0,533.2l6.5,48.3c0.3,2,1.7,3.4,3.6,3.4c1.8,0,3.3-1.4,3.5-3.4l7.7-48.4
	L13.6,484C13.4,482,11.9,480.6,10.1,480.6"/>
<path class="st0" d="M77.7,434.5c-2.3,0-4.2,1.8-4.4,4.4L65,533.1l8.3,90.9c0.2,2.5,2.1,4.4,4.4,4.4s4.2-1.8,4.4-4.3l9.4-90.9
	l-9.4-94.3C81.8,436.3,80,434.5,77.7,434.5"/>
<path class="st0" d="M112.7,431.2c-2.7,0-5,2.2-5.2,5.1l-7.8,96.9l7.8,93.8c0.2,2.9,2.5,5.1,5.2,5.1c2.7,0,4.9-2.2,5.2-5.1l8.9-93.8
	l-8.9-97C117.6,433.4,115.4,431.2,112.7,431.2"/>
<path class="st1" d="M154,627.8L154,627.8L154,627.8z"/>
<path class="st0" d="M154,443.3c-0.2-3.3-2.8-5.8-5.9-5.8c-3.2,0-5.8,2.5-6,5.9l-7.4,89.9l7.4,94.5c0.2,3.3,2.8,5.9,6,5.9
	c3.2,0,5.7-2.5,5.9-5.9l8.4-94.5L154,443.3z"/>
<path class="st0" d="M183.7,380.2c-3.6,0-6.5,2.9-6.7,6.6l-6.9,146.3l6.9,94.5c0.2,3.7,3.1,6.6,6.7,6.6c3.5,0,6.5-2.9,6.7-6.6l0,0
	l7.8-94.5l-7.8-146.3C190.2,383.2,187.2,380.2,183.7,380.2"/>
<path class="st0" d="M219.1,346.6c-4,0-7.3,3.2-7.5,7.4l-6.5,179.8l6.5,93.9c0.2,4.1,3.4,7.4,7.5,7.4c4,0,7.3-3.2,7.5-7.4l0,0
	l7.3-94l-7.3-179.8C226.3,349.9,223,346.6,219.1,346.6"/>
<path class="st0" d="M255.8,330.4c-4.5,0-8.1,3.6-8.2,8.2l-6,194.8l6,93c0.1,4.5,3.7,8.1,8.2,8.1c4.4,0,8-3.6,8.2-8.1v0.1l6.8-93
	L264,338.6C263.8,334,260.2,330.4,255.8,330.4"/>
<path class="st0" d="M301.3,332c-0.2-5-4.1-8.9-9-8.9s-8.8,3.9-9,8.9l-5.6,201.3l5.6,92.4c0.2,4.9,4.1,8.9,9,8.9s8.8-3.9,9-8.9
	l6.3-92.4L301.3,332z"/>
<path class="st1" d="M301.3,625.7L301.3,625.7L301.3,625.7z"/>
<path class="st0" d="M329.1,327.5c-5.3,0-9.6,4.2-9.7,9.7l-5.1,196.2l5.1,91.5c0.1,5.4,4.4,9.6,9.7,9.6c5.3,0,9.6-4.3,9.7-9.7v0.1
	l5.8-91.6l-5.8-196.2C338.6,331.7,334.4,327.5,329.1,327.5"/>
<path class="st0" d="M366.2,333.9c-5.8,0-10.4,4.6-10.5,10.4l-4.7,189l4.7,90.9c0.1,5.8,4.7,10.4,10.5,10.4
	c5.7,0,10.4-4.6,10.5-10.4v0.1l5.3-91l-5.3-189C376.5,338.5,371.9,333.9,366.2,333.9"/>
<path class="st0" d="M409.7,299.1c-1.8-1.2-3.9-1.9-6.2-1.9c-2.2,0-4.3,0.7-6,1.8c-3.1,2-5.1,5.5-5.2,9.4v2.1l-4.2,222.7l4.2,90.4
	v0.4c0.1,2.5,1.1,4.9,2.6,6.7c2.1,2.5,5.1,4.1,8.6,4.1c3.1,0,5.8-1.3,7.9-3.3c2-2,3.3-4.8,3.4-7.9l0.5-8.9l4.3-81.4l-4.7-224.9
	C414.7,304.6,412.7,301.1,409.7,299.1"/>
<polygon class="st1" points="414.7,623.7 414.7,623.7 414.7,623.7 414.7,623.7 414.7,623.7 "/>
<path class="st0" d="M446.9,277.8c-1.8-1.1-3.9-1.7-6.1-1.7c-2.9,0-5.5,1-7.6,2.7c-2.6,2.2-4.4,5.5-4.4,9.2v1.2l-4.9,244.1l2.5,45.1
	l2.4,43.9c0.1,6.5,5.5,11.9,12,11.9s11.9-5.4,12-12v0.1l5.3-89l-5.3-245.4C452.7,283.6,450.3,279.9,446.9,277.8"/>
<path class="st0" d="M776.6,417.2c-14.9,0-29.2,3-42.1,8.4c-8.7-98.1-91-175.1-191.3-175.1c-24.6,0-48.5,4.8-69.7,13
	c-8.2,3.2-10.4,6.5-10.5,12.8V622c0.1,6.7,5.3,11.9,11.8,12.5h301.9c60.1,0,108.9-48.2,108.9-108.4
	C885.6,466,836.8,417.2,776.6,417.2"/>
</svg>
