<?xml version="1.0" encoding="utf-8"?>
<!-- Generator: Adobe Illustrator 25.3.1, SVG Export Plug-In . SVG Version: 6.00 Build 0)  -->
<svg version="1.1" id="Camada_1" xmlns="http://www.w3.org/2000/svg" xmlns:xlink="http://www.w3.org/1999/xlink" x="0px" y="0px"
	 viewBox="0 0 104 104" style="enable-background:new 0 0 104 104;" xml:space="preserve">
<style type="text/css">
	.st0{fill:#FFFFFF;}
</style>
<path class="st0" d="M82.9,18C83.9,8.7,84,2,84,2H20c0,0,0.1,6.7,1.1,16C14.4,18,2,18,2,18v3c0,37,26.8,46.3,35.8,48.4
	c3.1,3.3,6.8,5.6,11.2,6.3V83c0,7-15,13-21,13c-1.7,0-3,1.3-3,3s1.3,3,3,3h24h24c1.7,0,3-1.3,3-3s-1.3-3-3-3c-6,0-21-6-21-13v-7.2
	c4.4-0.7,8.1-3,11.2-6.3C75.2,67.3,102,58,102,21v-3C102,18,88.2,18,82.9,18z M8.1,24h13.7c1.6,12.1,4.6,26.8,10.4,37.4
	C22.7,57.5,9.1,47.7,8.1,24z M57.7,28.1L61.3,39L52,32.3L42.7,39l3.5-10.9L37,21.4h11.5L52,10.5l3.5,10.9H67L57.7,28.1z M71.8,61.4
	c5.8-10.7,8.8-25.3,10.4-37.4h13.7C94.9,47.7,81.3,57.5,71.8,61.4z"/>
</svg>
