<?xml version="1.0" encoding="utf-8"?>
<!-- Generator: Adobe Illustrator 25.3.1, SVG Export Plug-In . SVG Version: 6.00 Build 0)  -->
<svg version="1.1" id="YouTube_Logo" xmlns="http://www.w3.org/2000/svg" xmlns:xlink="http://www.w3.org/1999/xlink" x="0px"
	 y="0px" viewBox="0 0 469.3 469.3" style="enable-background:new 0 0 469.3 469.3;" xml:space="preserve">
<style type="text/css">
	.st0{fill:#FFFFFF;}
</style>
<path class="st0" d="M463.6,128.4c-9-35.9-25.8-49.8-56.8-54.8c-17.9-2.6-103.7-6-171.8-6l0.3,0c-68.1,0-153.9,3.4-171.8,6
	c-31,5-47.8,18.8-56.8,54.8c-3,12.1-7.2,78.2-7.2,103.5v5.5c0,25.3,4.2,91.4,7.2,103.5c9,35.9,25.8,49.8,56.8,54.8
	c17.9,2.6,103.7,6,171.8,6l-0.3,0c68.1,0,153.9-3.4,171.8-6c31-5,47.8-18.8,56.8-54.8c3-12.1,7.2-78.2,7.2-103.5v-5.5
	C470.8,206.7,466.7,140.5,463.6,128.4z M186.3,300.8V167l125.2,65.3L186.3,300.8z"/>
</svg>
