<svg id="Camada_1" data-name="Camada 1" xmlns="http://www.w3.org/2000/svg" viewBox="0 0 497.07 256.6">
	<defs>
		<style>
			line {
				fill:none;
				stroke:#db3656;
				stroke-miterlimit:10;
				stroke-width:1.5px;
			}
			circle {
				fill:#db3656;
			}
		</style>
	</defs>
	<g id="linhas">
		<line x1="376.87" y1="172" x2="443.47" y2="146.6"/>
		<line x1="369.47" y1="120" x2="443.47" y2="146.6"/>
		<line x1="436.87" y1="92.8" x2="443.47" y2="146.6"/>
		<line x1="275.07" y1="1.6" x2="279.97" y2="50.7"/>
		<line x1="336.27" y1="3.4" x2="279.97" y2="50.7"/>
		<line x1="335.27" y1="86.4" x2="336.27" y2="3.4"/>
		<line x1="383.67" y1="47.6" x2="335.27" y2="86.4"/>
		<line x1="436.87" y1="92.8" x2="335.27" y2="86.4"/>
		<line x1="383.67" y1="47.6" x2="436.87" y2="92.8"/>
		<line x1="425.37" x2="436.87" y2="92.8"/>
		<line x1="470.07" y1="50.4" x2="425.37"/>
		<line x1="534.57" y1="35.6" x2="470.07" y2="50.4"/>
		<line x1="551.19" y1="78.64" x2="470.07" y2="50.4"/>
		<line x1="461.27" y1="205" x2="443.47" y2="146.6"/>
		<line x1="505.46" y1="182.04" x2="461.27" y2="205"/>
		<line x1="536.71" y1="220.3" x2="461.27" y2="205"/>
		<line x1="279.97" y1="50.7" x2="237.27" y2="17.4"/>
		<line x1="159.27" y1="23.4" x2="237.27" y2="17.4"/>
		<line x1="336.27" y1="3.4" x2="425.37"/>
		<line x1="35.67" y1="-2.22" x2="71.67" y2="35.8"/>
		<line x1="425.37" x2="383.67" y2="47.6"/>
		<line x1="425.37" x2="534.57" y2="35.6"/>
		<line x1="470.07" y1="50.4" x2="503.67" y2="89.6"/>
		<line x1="436.87" y1="92.8" x2="503.67" y2="89.6"/>
		<line x1="503.67" y1="89.6" x2="443.47" y2="146.6"/>
		<line x1="376.87" y1="172" x2="461.27" y2="205"/>
		<line x1="369.47" y1="120" x2="376.87" y2="172"/>
		<line x1="335.27" y1="86.4" x2="369.47" y2="120"/>
		<line x1="279.97" y1="50.7" x2="335.27" y2="86.4"/>
		<line x1="159.27" y1="23.4" x2="279.97" y2="50.7"/>
		<line x1="237.27" y1="17.4" x2="275.07" y2="1.6"/>
		<line x1="443.47" y1="146.6" x2="530.08" y2="145.72"/>
		<line x1="443.47" y1="146.6" x2="505.46" y2="182.04"/>
		<line x1="461.27" y1="205" x2="504.98" y2="268"/>
		<line x1="336.27" y1="3.4" x2="383.67" y2="47.6"/>
		<line x1="275.07" y1="1.6" x2="336.27" y2="3.4"/>
		<line x1="237.27" y1="17.4" x2="191.97" y2="-3.5"/>
		<line x1="191.97" y1="-3.5" x2="159.27" y2="23.4"/>
		<line x1="71.67" y1="35.8" x2="159.27" y2="23.4"/>
		<line x1="71.67" y1="35.8" x2="118.17" y2="-8.9"/>
		<line x1="159.27" y1="23.4" x2="118.17" y2="-8.9"/>
		<line x1="71.67" y1="35.8" x2="-13.2" y2="-7.72"/>
		<line x1="470.07" y1="50.4" x2="436.87" y2="92.8"/>
		<line x1="191.97" y1="-3.5" x2="275.07" y2="1.6"/>
	</g>
	<g id="circulos">
		<circle cx="335.27" cy="86.4" r="5.5"/>
		<circle cx="369.47" cy="120" r="7.25"/>
		<circle cx="376.87" cy="172" r="5.5"/>
		<circle cx="279.97" cy="50.7" r="8"/>
		<circle cx="443.59" cy="146.97" r="12"/>
		<circle cx="383.67" cy="47.6" r="12"/>
		<circle cx="436.87" cy="92.8" r="6.5"/>
		<circle cx="425.51" cy="0.15" r="6"/>
		<circle cx="237.27" cy="17.4" r="8"/>
		<circle cx="470.07" cy="50.4" r="6"/>
		<circle cx="336.27" cy="3.4" r="7.25"/>
		<circle cx="159.27" cy="23.4" r="5.5"/>
		<circle cx="71.67" cy="35.8" r="5.5"/>
		<circle cx="35.67" cy="-2.22" r="5.5"/>
		<circle cx="461.27" cy="205" r="5.5"/>
		<circle cx="275.07" cy="1.6" r="5.5"/>
		<circle cx="191.97" cy="-3.5" r="5.5"/>
	</g>
</svg>