<svg xmlns="http://www.w3.org/2000/svg" viewBox="0 0 432.65652 189.64441"><path d="M183.606,106.19443c-8.10206,3.88594-13.063,6.20049-20.42191,6.20049-11.74065,0-20.09062-7.19212-20.09062-17.28139,0-10.00361,8.43278-17.11347,20.42078-17.11347,6.94591,0,13.22866,2.31455,19.42915,5.78694V71.21979c-5.539-3.3073-12.56606-4.96039-20.42078-4.96039-21.57919,0-33.89848,14.0552-33.89848,29.1026,0,14.55328,10.913,28.77414,32.82345,28.77414,8.3511,0,14.30312-1.5714,22.15782-5.62186V106.19443Z" style="fill:#fff;fill-rule:evenodd"/><path d="M237.83225,67.74854H221.54362l-22.73647,56.3876h14.88232l4.21611-11.162H243.1228l4.63023,11.162h15.12966l-25.05044-56.3876Zm1.15727,35.38648H221.62587L229.8947,81.2251Z" style="fill:#fff;fill-rule:evenodd"/><path d="M275.89976,67.74854v56.3876h14.05463V101.4808H301.117c12.97962,0,18.60146-9.09424,18.60146-17.03121,0-7.68907-5.78752-16.701-18.68543-16.701ZM289.955,78.08345h4.96039c7.6068,0,10.33492,1.73648,10.33492,6.53122,0,4.21781-2.31511,6.53236-8.76407,6.53236H289.955V78.08345Z" style="fill:#fff;fill-rule:evenodd"/><polygon points="375.281 113.801 347.749 113.801 347.749 100.241 373.462 100.241 373.462 89.907 347.749 89.907 347.749 78.083 374.703 78.083 374.703 67.749 333.694 67.749 333.694 124.136 375.281 124.136 375.281 113.801" style="fill:#fff;fill-rule:evenodd"/><path d="M430.094,70.64059c-7.11042-3.05827-12.81567-4.38176-19.099-4.38176-13.063,0-21.49637,6.449-21.49637,16.20524,0,20.25683,28.68906,16.86784,28.68906,26.12716,0,3.30731-2.89431,5.20887-8.26769,5.20887-6.20218,0-11.16259-1.90156-19.26463-7.27494V118.6788c5.62184,2.89318,10.50057,5.45677,20.33911,5.45677,12.5672,0,21.662-6.28331,21.662-17.11517,0-19.67819-28.68905-17.28025-28.68905-25.79643,0-2.81092,3.22449-4.63023,8.26658-4.63023,4.79586,0,9.67459,1.40632,17.85945,5.04379V70.64059Z" style="fill:#fff;fill-rule:evenodd"/><path d="M111.01773,107.0516h0l.00511-.00454a16.51827,16.51827,0,0,0,.91618-1.83915,16.28306,16.28306,0,0,0,.76641-2.22946c1.07331-4.09073.73634-9.62522-4.69491-15.13532l-.01645-.01645a28.32993,28.32993,0,0,0-3.32943-2.88014,31.89354,31.89354,0,0,0-3.77986-2.394c-6.88238-3.726-15.461-5.31382-24.40373-5.1493h0l-.03744.00056h0c-.15657.00454-.59.025-1.252.06184-.59339.03347-1.40008.08509-2.38093.156-2.39907.17415-5.5759.41979-7.93072.64954A109.87926,109.87926,0,0,1,76.034,80.85183a70.73025,70.73025,0,0,1,14.65029,6.15795q1.11473.61692,2.13471,1.2401c8.22005,5.00577,12.3295,10.34228,14.03081,15.1478a16.35492,16.35492,0,0,1,.78287,8.23366c.09474-.10211.1889-.20365.28307-.308a25.57774,25.57774,0,0,0,3.10365-4.26887l-.0017-.00284ZM37.79634,128.683l.03574.00795q1.9095.38718,4.03684.66146,2.15457.274,4.42657.41639a106.886,106.886,0,0,0,27.74678-2.31795h0l.00226-.00113h.00454q1.5036-.3089,2.83362-.624c.86341-.20366,1.796-.43852,2.78823-.70344.18777-.04992.37555-.09985.56275-.152-1.551.10212-3.03614.16282-4.43111.20706l-.01646.00114c-2.4575.07772-4.99443.05332-7.56312-.05219-2.55849-.10438-5.16235-.29046-7.76168-.53609a222.70657,222.70657,0,0,1-32.4065-5.70071q-2.41071-.62968-4.54287-1.26336-.86625-.25953-1.71322-.52758a15.43509,15.43509,0,0,0,1.07615,1.91348c2.41044,3.65,6.87672,7.0293,14.92148,8.671Zm65.86873-21.01529a9.97455,9.97455,0,0,1-1.0614,5.62753A13.92157,13.92157,0,0,1,99.0581,117.5a36.24212,36.24212,0,0,1-6.02633,1.87887c-2.13075.48106-4.22292.80782-6.23567,1.08466a117.24609,117.24609,0,0,1-15.10866,1.10111,120.415,120.415,0,0,1-12.90587-.59849c-6.51194-.65012-11.93637-1.70074-16.1054-2.50856-.788-.15317-1.526-.29556-2.40644-.46064l-.00965-.0034-.00283-.00113-.00057.00226c-4.76354-.88837-8.71926-1.74158-12.09861-2.61237a76.08519,76.08519,0,0,1-7.81784-2.411,18.06174,18.06174,0,0,1,.07942-4.94961c.04424-.27344.08736-.50433.12934-.69607.04028-.18607.08282-.35569.12367-.49978l.00113.00113v-.00681c1.86526-6.56695,5.81474-12.4509,10.55275-17.39484.93092-.97177,1.88681-1.9027,2.858-2.78937.95135-.86909,1.95319-1.7257,2.99133-2.56473l.00113-.0017h0c1.13345-.915,2.28789-1.80115,3.4514-2.65095q.48333-.354.68983-.50148c.15487-.11119.28932-.2065.40164-.28762A108.523,108.523,0,0,1,52.998,81.178l.34945.0312H53.352A114.866,114.866,0,0,1,78.002,85.98242c.9661.31257,1.79775.59962,2.49212.85207.666.2428,1.23215.46461,1.67464.64557h0l.00113.00057C92.45427,91.68426,98.8743,97.689,101.835,102.71807a16.41064,16.41064,0,0,1,1.294,2.70258,9.17782,9.17782,0,0,1,.53438,2.24023l.00169.0068ZM33.755,80.95678q-2.03885.14209-4.12477.34207L29.62451,81.3c-.89349.08679-1.842.22294-2.82511.40788-.99219.18664-2.01729.42036-3.0594.6989-5.35353,1.43241-11.15692,4.05216-15.03322,7.52a15.33635,15.33635,0,0,0-2.75136,3.25853,10.07108,10.07108,0,0,0-1.64514,5.18788,9.25036,9.25036,0,0,0,2.37581,6.03427,20.01462,20.01462,0,0,0,4.3029,3.764c.97461.65579,1.98155,1.28548,3.06735,1.89816v.00454c.53041.299,1.071.58941,1.627.87192.0051-.60076.0346-1.19131.084-1.766a25.74293,25.74293,0,0,1,1.93446-7.73048h0l.00114-.00113A39.368,39.368,0,0,1,19.913,97.07523c.82371-1.41539,1.72343-2.78256,2.668-4.0913A72.2054,72.2054,0,0,1,33.755,80.95678Zm52.492,47.92588a100.96361,100.96361,0,0,1-15.03435,3.85588,119.4886,119.4886,0,0,1-20.4117,1.75974h-.12424c-1.69449.00567-3.296-.04992-4.80268-.15317-1.51864-.10552-2.97884-.26039-4.37325-.4544-7.13482-.99389-12.23193-3.01175-14.61966-4.48046l-.00283-.00227q-1.38278-.85263-2.5687-1.7586a26.43591,26.43591,0,0,1-2.1818-1.85277,20.08072,20.08072,0,0,1-5.8465-9.68934,37.13766,37.13766,0,0,1-10.36611-5.9021A17.697,17.697,0,0,1,.35172,102.106v-.00227h0A11.95166,11.95166,0,0,1,0,96.003c.9661-4.84863,4.717-9.00631,8.40669-11.67031h0l.0017-.0017c.54176-.39086,1.16238-.801,1.85107-1.21741.66543-.40277,1.4239-.82881,2.2669-1.26789A51.33853,51.33853,0,0,1,28.5875,76.60679c2.12224-.29045,4.22065-.48957,6.28105-.61607,1.926-.118,3.8519-.173,5.75687-.1787q3.55266-2.369,7.19212-4.40161c2.51706-1.41142,5.04661-2.70484,7.56823-3.88765A133.027,133.027,0,0,1,90.64233,56.76805a2.968,2.968,0,0,1,.33187-.2706,3.59554,3.59554,0,0,1,2.01389-.60076h.00057v.00511a3.14669,3.14669,0,0,1,2.28562.98879,3.43938,3.43938,0,0,1,.94057,2.37808H96.22v.0017h-.00511a3.43714,3.43714,0,0,1-.94057,2.37865,3.15345,3.15345,0,0,1-2.285.98936v.00454h-.00228v-.00454a3.10206,3.10206,0,0,1-1.349-.30634,3.00921,3.00921,0,0,1-.29159-.15884,3.24786,3.24786,0,0,1-.662-.5429q-2.9536.36336-5.97584.92412-3.374.62629-6.67134,1.46134a113.14189,113.14189,0,0,0-29.359,12.05494q1.22535.0851,2.386.19061c1.78469.16224,3.53819.3659,5.22815.59339a7.27033,7.27033,0,0,1,.982-.58715,13.3375,13.3375,0,0,1,1.72626-.70344,47.95949,47.95949,0,0,1,9.52312-1.76484A96.35289,96.35289,0,0,1,82.209,73.26715a53.19156,53.19156,0,0,1,11.44,1.7915l.01759.00567h.00453a47.41942,47.41942,0,0,1,7.38272,2.588,36.13925,36.13925,0,0,1,5.82835,3.27213c8.85144,6.163,11.16486,14.40125,10.75074,19.42632l-.00057.00681a24.10279,24.10279,0,0,1-.36364,2.61237,23.43928,23.43928,0,0,1-.7,2.72357A24.01155,24.01155,0,0,1,105.40609,119.098c-.68812.40788-1.35016.77322-1.98949,1.10565q-.8918.46206-1.88284.915c-.51737.40561-1.08126.81633-1.68656,1.22989-.62629.42773-1.28265.84867-1.96453,1.25654A61.85774,61.85774,0,0,1,86.247,128.88266Z" style="fill:#fff;fill-rule:evenodd"/><path d="M68.24625,101.91421v.00114h-.00511a9.80826,9.80826,0,0,1-9.81924,9.81981v.00454h-.0017v-.00454a9.80923,9.80923,0,0,1-9.82038-9.81981h-.00454v-.00227h.00454a9.81115,9.81115,0,0,1,9.81981-9.82038v-.004h.00114v.004a9.80923,9.80923,0,0,1,9.81981,9.82038h.0051v.00113Z" style="fill:#fff;fill-rule:evenodd"/></svg>