<svg xmlns="http://www.w3.org/2000/svg" viewBox="0 0 339.4809 189.64441"><path d="M83.79,78.30563c1.69211,6.76887,1.49918,10.44356.33817,15.907a27.13015,27.13015,0,0,1-8.02571,13.39294l11.26513,38.53483H76.1987c-3.72324-14.11782-8.36431-29.68669-12.23235-43.7564,2.27218-1.20871,8.65434-4.83485,9.66969-13.34438,1.01536-7.92946-3.9643-14.11783-7.34895-16.39087A17.2447,17.2447,0,0,0,40.27465,84.05958c-.14481.91867-.14481,1.4025-.29,2.65977,0,0-3.09419,8.70289-4.10911,11.45891h2.32075l-.04856,22.5788H65.02983l3.09461,11.02407H27.0278V106.49444l-5.65727-.049c2.03027-6.14023,7.30082-19.7261,7.30082-19.7261.62863-4.932.91867-14.31162,10.927-21.99916a27.99892,27.99892,0,0,1,19.7751-5.94731A29.001,29.001,0,0,1,83.79,78.30563Z" style="fill:#fff;fill-rule:evenodd"/><path d="M95.20078,68.24921c8.17052,18.034,2.8527,35.00451-3.19086,43.03152l9.283,34.56967H90.31738L79.58421,108.621c6.62407-6.38216,10.78216-19.33939,7.54231-30.0253a31.39981,31.39981,0,0,0-24.65807-22.434c-13.63486-2.80414-26.544,4.20622-32.056,13.87591-3.48047,5.31868-4.10911,10.44356-4.68962,16.68091,0,0-6.866,16.53525-9.18672,22.53068h7.30082l.04813,25.43236h45.0618l3.14273,11.31411H12.71618V119.20976L0,119.1612s13.77966-31.524,13.73111-32.44229c.77386-11.02407,5.75352-24.75517,16.29376-32.92654a41.65283,41.65283,0,0,1,22.14439-9.18673c10.39458-1.01535,14.84314.87055,21.75725,3.1913C85.57921,52.777,93.45969,63.994,95.20078,68.24921Z" style="fill:#fff;fill-rule:evenodd"/><path d="M45.83566,87.05708a11.07209,11.07209,0,1,1,11.0722,11.02321A11.06986,11.06986,0,0,1,45.83566,87.05708Z" style="fill:#fff;fill-rule:evenodd"/><path d="M26.98526,156.89423H24.4067l-.04254-.37813a2.48155,2.48155,0,0,0-.09539-.4473,1.86,1.86,0,0,0-.60113-.88515,2.35242,2.35242,0,0,0-1.54731-.40391,3.245,3.245,0,0,0-.76484.10312,3.37766,3.37766,0,0,0-.85121.34332,4.60816,4.60816,0,0,0-1.35782,1.32387,6.75748,6.75748,0,0,0-.99687,2.54376,6.95356,6.95356,0,0,0-.12891.76527,6.58616,6.58616,0,0,0-.04254.73048,3.31329,3.31329,0,0,0,.541,1.93316,2.02722,2.02722,0,0,0,1.79609.78247,3.23586,3.23586,0,0,0,1.90825-.593,3.80952,3.80952,0,0,0,1.30668-1.72734l2.5777-.01719a7.75389,7.75389,0,0,1-2.40583,3.29184,6.12733,6.12733,0,0,1-3.91918,1.26328,4.6584,4.6584,0,0,1-3.27422-1.12621,4.28254,4.28254,0,0,1-1.21172-3.36016,9.19165,9.19165,0,0,1,.05156-.94489,8.78695,8.78695,0,0,1,.17231-1.03168,8.29352,8.29352,0,0,1,2.68082-4.87266,6.74118,6.74118,0,0,1,4.38367-1.64141,4.42545,4.42545,0,0,1,3.14575.95348,3.94394,3.94394,0,0,1,1.22031,2.10546c.02278.12634.03953.2548.05113.38672s.01719.26082.01719.38672c0,.09238-.003.18089-.00859.26683-.006.08551-.01418.17446-.02578.26641v-.01719Zm9.79774,3.73012a5.6656,5.6656,0,0,1-2.05434,3.54964,5.96686,5.96686,0,0,1-3.32621,1.24609.81459.81459,0,0,1-.16328.0172h-.16328a4.28793,4.28793,0,0,1-2.69028-.85079A3.1149,3.1149,0,0,1,27.277,161.9482a4.92349,4.92349,0,0,1,.0434-.62734q.04188-.33581.11128-.67933a5.704,5.704,0,0,1,2.04575-3.54106,5.89791,5.89791,0,0,1,3.31762-1.25469.81782.81782,0,0,1,.16328-.0172h.16328a4.25988,4.25988,0,0,1,2.69028.85938,3.1602,3.1602,0,0,1,1.10859,2.66449c0,.19422-.00859.4009-.02578.61875a4.05843,4.05843,0,0,1-.11172.66988v-.01673Zm-2.47543,0c.0232-.09153.04254-.19165.05973-.30079a2.101,2.101,0,0,0,.02621-.33516.8258.8258,0,0,0,.01718-.16371v-.16328a2.27776,2.27776,0,0,0-.35234-1.2547,1.50432,1.50432,0,0,0-1.36641-.55043,2.24207,2.24207,0,0,0-1.6848.61875,3.88986,3.88986,0,0,0-.87657,1.35867q-.06832.20625-.1289.41249a4.05543,4.05543,0,0,0-.095.39532q-.05156.24105-.0855.49844a3.85353,3.85353,0,0,0-.03481.51563,2.16346,2.16346,0,0,0,.36094,1.2289,1.51645,1.51645,0,0,0,1.35781.54183,2.24209,2.24209,0,0,0,1.68481-.61875,3.89043,3.89043,0,0,0,.87656-1.35781,3.9482,3.9482,0,0,0,.14609-.41293,3.70715,3.70715,0,0,0,.09454-.39532v-.01715Zm12.7888-1.75312-1.34063,6.32543H43.34906l1.18637-5.552a1.641,1.641,0,0,0,.05973-.25781,1.83585,1.83585,0,0,0,.02621-.30981v-.15425a1.184,1.184,0,0,0-.24965-.73906,1.24489,1.24489,0,0,0-1.02266-.32657,2.2638,2.2638,0,0,0-1.45191.53324,2.65874,2.65874,0,0,0-.88559,1.58168l-1.11719,5.225H37.48812l1.94262-9.14462h2.3027l-.275,1.341h.03437c.06918-.08077.1491-.17187.24063-.275a4.1813,4.1813,0,0,1,.327-.32657,4.302,4.302,0,0,1,1.00547-.66172,3.37537,3.37537,0,0,1,1.50391-.30121,2.93834,2.93834,0,0,1,1.89062.57578,2.05567,2.05567,0,0,1,.72188,1.71058,2.87141,2.87141,0,0,1-.02578.36953q-.02578.19787-.06016.4039v-.01759Zm9.78013-.03437H54.5218v-.10312a1.31561,1.31561,0,0,0-.22386-.74766q-.22366-.33514-1.13438-.33515a2.32635,2.32635,0,0,0-1.15973.21484,1.044,1.044,0,0,0-.45589.47266l-.03481.1027c-.01074.034-.02234.06875-.03395.10312v.05156a.0498.0498,0,0,0-.01718.03481v.03437c.0116.21827.16629.38371.46449.49843a7.53915,7.53915,0,0,0,1.06606.30981c.15984.02278.32355.05113.48941.08551q.25008.05156.4907.12032a6.623,6.623,0,0,1,1.72692.66214,1.51772,1.51772,0,0,1,.78246,1.43559,2.0633,2.0633,0,0,1-.01718.25738,2.2967,2.2967,0,0,1-.052.27542,3.36315,3.36315,0,0,1-1.0566,1.91641,4.7613,4.7613,0,0,1-1.67621.93715,6.52911,6.52911,0,0,1-1.03984.21484,7.873,7.873,0,0,1-.90278.05973h-.05156a6.06137,6.06137,0,0,1-2.57855-.54141,1.9776,1.9776,0,0,1-1.16833-1.968,1.88876,1.88876,0,0,1,.02578-.30981c.01719-.10312.0318-.21184.043-.32614l2.475-.01761c-.0116.05758-.01976.11173-.02578.16372a1.50746,1.50746,0,0,0-.00859.16328.88408.88408,0,0,0,.38672.74766,2.4094,2.4094,0,0,0,1.36641.28359,2.37469,2.37469,0,0,0,1.02308-.18,1.33455,1.33455,0,0,0,.52422-.40434,1.40263,1.40263,0,0,0,.11172-.19723.97728.97728,0,0,0,.05973-.16329.08.08,0,0,1,.00859-.0348.0715.0715,0,0,0,.0086-.03437v-.05113q0-.36093-.4559-.53324a7.63725,7.63725,0,0,0-1.10817-.30894q-.22365-.05156-.4473-.09453c-.14911-.02879-.30379-.05973-.4645-.095a6.566,6.566,0,0,1-1.702-.66129,1.5373,1.5373,0,0,1-.77344-1.45278,1.40391,1.40391,0,0,1,.02578-.25781q.02578-.13729.0434-.275a2.28964,2.28964,0,0,1,.10269-.37813c.04555-.1259.098-.25223.15512-.37812a4.20631,4.20631,0,0,1,1.36641-1.58168,4.49036,4.49036,0,0,1,2.72422-.72188H53.653a1.73745,1.73745,0,0,1,.24922.01719,4.90283,4.90283,0,0,1,2.07152.54183,1.9395,1.9395,0,0,1,.93629,1.89923v.2664a1.342,1.342,0,0,1-.03437.30121v-.01846Zm6.618,3.67812H65.97a5.21858,5.21858,0,0,1-1.375,1.77934,4.93965,4.93965,0,0,1-1.68481.90234,5.61234,5.61234,0,0,1-.79879.1809,5.39175,5.39175,0,0,1-.78246.05973,4.51642,4.51642,0,0,1-2.65547-.73048,2.9237,2.9237,0,0,1-1.04027-2.56995,6.286,6.286,0,0,1,.052-.79019q.05157-.41251.15469-.89375a7.95237,7.95237,0,0,1,.2664-.92856,5.93183,5.93183,0,0,1,2.23438-2.92145,4.79748,4.79748,0,0,1,2.86259-.77387q.18884,0,.37812.00859a2.82444,2.82444,0,0,1,.3777.04341,3.63752,3.63752,0,0,1,1.83132.868,3.08323,3.08323,0,0,1,.83317,2.44879,7.4629,7.4629,0,0,1-.043.77387,8.64133,8.64133,0,0,1-.1461.89374l-.10312.4125H60.05747c-.01159.09153-.02019.1895-.02578.29262-.006.10312-.00859.21184-.00859.32613a1.654,1.654,0,0,0,.00859.17231c.00559.05671.0086.1087.0086.15468a1.73485,1.73485,0,0,0,.4125.90235,1.64286,1.64286,0,0,0,1.28907.4039,1.65985,1.65985,0,0,0,.1723-.00859,1.716,1.716,0,0,0,.17231-.02578,2.20642,2.20642,0,0,0,.8164-.30894,1.593,1.593,0,0,0,.593-.65355v-.018Zm.70513-2.802a.97067.97067,0,0,0,.01718-.18v-.18a1.44686,1.44686,0,0,0-.4125-1.16918,1.57117,1.57117,0,0,0-.91137-.37813h-.13707a2.0792,2.0792,0,0,0-1.4184.50145,3.07777,3.07777,0,0,0-.868,1.40637h3.73013Zm5.37968,5.48325H67.1731l2.62969-12.34149h2.40668l-2.63012,12.34149Zm11.91224-6.325v.01719q.03415-.20626.05973-.40391a2.79631,2.79631,0,0,0,.02578-.36952,2.05544,2.05544,0,0,0-.72144-1.71059,2.94039,2.94039,0,0,0-1.89106-.57578,3.75506,3.75506,0,0,0-1.7875.42926,3.09712,3.09712,0,0,0-1.16918.98055h-.03438l.94575-4.38367H74.51261l-2.62969,12.3415h2.40625l1.11719-5.225a2.65882,2.65882,0,0,1,.88559-1.58168,2.26383,2.26383,0,0,1,1.45192-.53324,1.24647,1.24647,0,0,1,1.02308.32657,1.18793,1.18793,0,0,1,.24922.73906v.15425a1.84244,1.84244,0,0,1-.02621.30981,1.71467,1.71467,0,0,1-.05973.25781l-1.18637,5.552h2.40668l1.341-6.3246Zm10.69106,1.75312a5.661,5.661,0,0,1-2.05348,3.54964,5.96789,5.96789,0,0,1-3.32578,1.24609.82436.82436,0,0,1-.16329.0172h-.16285a4.287,4.287,0,0,1-2.69027-.85079,3.11421,3.11421,0,0,1-1.10946-2.63829,4.92349,4.92349,0,0,1,.0434-.62734q.04318-.33581.11172-.67933a5.70545,5.70545,0,0,1,2.04531-3.54106,5.90146,5.90146,0,0,1,3.318-1.25469.81459.81459,0,0,1,.16328-.0172h.16328a4.25984,4.25984,0,0,1,2.69028.85938,3.1602,3.1602,0,0,1,1.1086,2.66449c0,.19422-.0086.4009-.02536.61875a4.10829,4.10829,0,0,1-.11257.66988v-.01673Zm-2.47457,0c.02277-.09153.043-.19165.05973-.30079a2.15114,2.15114,0,0,0,.02578-.33516.82761.82761,0,0,0,.01762-.16371v-.16328a2.27777,2.27777,0,0,0-.35235-1.2547,1.50432,1.50432,0,0,0-1.3664-.55043,2.24143,2.24143,0,0,0-1.68481.61875,3.88969,3.88969,0,0,0-.87656,1.35867q-.06962.20625-.12891.41249a4.05527,4.05527,0,0,0-.095.39532q-.05091.24105-.08593.49844a3.9265,3.9265,0,0,0-.03395.51563,2.16353,2.16353,0,0,0,.36094,1.2289,1.517,1.517,0,0,0,1.35781.54183,2.24209,2.24209,0,0,0,1.68481-.61875,3.88308,3.88308,0,0,0,.87614-1.35781,4.05817,4.05817,0,0,0,.14652-.41293c.03953-.13751.07133-.26942.09453-.39532v-.01715Zm18.306-7.76961h2.40625l-2.62969,12.34149h-2.57856l-3.1625-8.80043h-.03481l-1.87344,8.80043H97.73508l2.62969-12.34149h2.71605l3.05981,8.59461h.03438l1.83907-8.59461Zm10.89732,5.60356v.01719a2.96244,2.96244,0,0,0,.052-.30036,2.46728,2.46728,0,0,0,.01719-.2664,1.583,1.583,0,0,0-.61875-1.375,3.5233,3.5233,0,0,0-1.375-.60156c-.20625-.034-.40691-.06058-.60156-.07734q-.29262-.02579-.54957-.02578-.17208,0-.33558.00859c-.10914.006-.21485.00859-.3184.00859a5.81859,5.81859,0,0,0-2.39765.70512,3.93327,3.93327,0,0,0-1.71017,2.45824l2.32075.01719c.02278-.05714.046-.11731.06832-.18089a1.08019,1.08019,0,0,1,.08594-.18,1.56451,1.56451,0,0,1,1.58168-.91094h.22343a1.67692,1.67692,0,0,1,.24019.01719,1.71326,1.71326,0,0,1,.63637.18863.60027.60027,0,0,1,.29218.58437.93061.93061,0,0,1-.00859.1289c-.00558.04039-.01417.08938-.02578.1461a.74532.74532,0,0,1-.28359.46405,1.21083,1.21083,0,0,1-.4559.20668c-.046.0116-.08852.02278-.1289.03395a.24442.24442,0,0,1-.12934,0l-2.23438.34418a4.34738,4.34738,0,0,0-2.08871.87656,3.40779,3.40779,0,0,0-1.19411,2.04574c-.0232.11429-.04038.229-.052.34332-.01117.11473-.01718.22344-.01718.32657a1.64114,1.64114,0,0,0,.68793,1.5125,2.83733,2.83733,0,0,0,1.59844.46449,4.14549,4.14549,0,0,0,1.65-.29175,5.73687,5.73687,0,0,0,1.15156-.65356,2.2573,2.2573,0,0,1,.21485-.18863c.07433-.05758.14652-.11472.21484-.1723-.01161.12633-.02019.232-.02578.318-.006.08636-.00859.1693-.00859.24921v.06832c0,.06919.00258.13794.00859.20626q.00839.10377.02578.22343h2.59574l.06875-.34418a.5753.5753,0,0,1-.22343-.18.74684.74684,0,0,1-.10312-.45547,2.67193,2.67193,0,0,1,.02578-.33559c.01719-.13148.04253-.28961.07777-.47222l1.048-4.95127Zm-3.07615,3.45469v.01719A1.93881,1.93881,0,0,1,115.07,163.108a3.03055,3.03055,0,0,1-1.29765.57621,1.19043,1.19043,0,0,1-.24062.043c-.08078.006-.16071.00859-.24063.00859a.75212.75212,0,0,1-.11172-.00859.93543.93543,0,0,0-.1289-.00859,1.04832,1.04832,0,0,1-.4559-.232.66756.66756,0,0,1-.21485-.54142V162.842a.65643.65643,0,0,0,.02578-.10312.593.593,0,0,0,.009-.10312,1.30263,1.30263,0,0,1,.69566-1.00547,4.97072,4.97072,0,0,1,1.22934-.36952,8.26215,8.26215,0,0,0,1.15156-.24063,1.98349,1.98349,0,0,0,.5848-.27457l-.24061,1.16744Zm9.93481-.05114h2.44106a5.37751,5.37751,0,0,1-.29262.73047,4.79889,4.79889,0,0,1-.56676.90235,5.57881,5.57881,0,0,1-1.5559,1.34063,4.77651,4.77651,0,0,1-2.518.60156,3.11355,3.11355,0,0,1-2.72465-1.00547,3.70663,3.70663,0,0,1-.67934-2.209,6.58913,6.58913,0,0,1,.0348-.67934,5.48273,5.48273,0,0,1,.10271-.64453,7.56846,7.56846,0,0,1,1.81371-3.64376,4.75162,4.75162,0,0,1,3.65278-1.427q.2578,0,.53281.02578a3.74576,3.74576,0,0,1,.55043.09453,3.6564,3.6564,0,0,1,1.55547.834,2.41974,2.41974,0,0,1,.69653,1.9512v.29175a1.41242,1.41242,0,0,1-.03481.30981l-2.44019-.01761v-.06832c0-.06918-.003-.1375-.00859-.20625-.00645-.06919-.0146-.13751-.02621-.20583a1.51964,1.51964,0,0,0-.31754-.68793.97492.97492,0,0,0-.834-.29262h-.10312a1.88549,1.88549,0,0,0-1.46094.60156,3.85655,3.85655,0,0,0-.80738,1.34063,3.50279,3.50279,0,0,0-.12031.35234q-.05155.18046-.08637.35235a.28677.28677,0,0,0-.02534.07734.45253.45253,0,0,0-.00859.0941,4.40165,4.40165,0,0,0-.08637.45547c-.02277.16628-.04038.33559-.05156.507a.55905.55905,0,0,0-.01719.13793v.13707a2.08681,2.08681,0,0,0,.2836,1.08281,1.19724,1.19724,0,0,0,1.12578.48125,1.6862,1.6862,0,0,0,.9711-.27457,2.622,2.622,0,0,0,.64453-.60156,2.43546,2.43546,0,0,0,.24921-.40391,1.20289,1.20289,0,0,0,.11172-.3184v-.01588ZM133.608,156.052l-1.94177,9.14462h-2.40668l1.94261-9.14462Zm.2243-1.08281h-2.40669l.48125-2.2348h2.40625l-.48081,2.2348Zm9.93481,5.65512a5.66669,5.66669,0,0,1-2.05347,3.54964,5.96932,5.96932,0,0,1-3.32665,1.24609.81452.81452,0,0,1-.16328.0172h-.16329a4.2879,4.2879,0,0,1-2.69027-.85079,3.1149,3.1149,0,0,1-1.10859-2.63829,4.92175,4.92175,0,0,1,.04341-.62734q.04189-.33581.11129-.67933a5.704,5.704,0,0,1,2.04574-3.54106,5.90019,5.90019,0,0,1,3.31762-1.25469.81775.81775,0,0,1,.16328-.0172h.16329a4.25984,4.25984,0,0,1,2.69027.85938,3.1602,3.1602,0,0,1,1.10859,2.66449c0,.19422-.00859.4009-.02578.61875a4.05953,4.05953,0,0,1-.11173.66988v-.01673Zm-2.47543,0c.0232-.09153.043-.19165.06017-.30079a2.101,2.101,0,0,0,.02621-.33516.82584.82584,0,0,0,.01719-.16371v-.16328a2.27768,2.27768,0,0,0-.35235-1.2547,1.50429,1.50429,0,0,0-1.3664-.55043,2.24207,2.24207,0,0,0-1.6848.61875,3.89582,3.89582,0,0,0-.87657,1.35867c-.046.1375-.08851.275-.1289.41249a3.81081,3.81081,0,0,0-.0941.39532q-.0522.24105-.08594.49844a3.85517,3.85517,0,0,0-.0348.51563,2.16682,2.16682,0,0,0,.36093,1.2289,1.51648,1.51648,0,0,0,1.35782.54183,2.24208,2.24208,0,0,0,1.6848-.61875,4.424,4.424,0,0,0,1.02266-1.77074,3.707,3.707,0,0,0,.09453-.39532v-.01715Zm12.7888-1.75312-1.34062,6.32543h-2.40669l1.18637-5.552a1.69334,1.69334,0,0,0,.05973-.25781,1.83585,1.83585,0,0,0,.02621-.30981v-.15425a1.18614,1.18614,0,0,0-.24922-.73906,1.24647,1.24647,0,0,0-1.02309-.32657,2.2638,2.2638,0,0,0-1.45191.53324,2.65879,2.65879,0,0,0-.88559,1.58168l-1.11719,5.225h-2.40626l1.94262-9.14462h2.3027l-.275,1.341h.03437c.06918-.08077.14909-.17187.24062-.275a4.11111,4.11111,0,0,1,.327-.32657,4.30216,4.30216,0,0,1,1.00546-.66172,3.3754,3.3754,0,0,1,1.50391-.30121,2.93837,2.93837,0,0,1,1.89063.57578,2.05569,2.05569,0,0,1,.72187,1.71058,2.72651,2.72651,0,0,1-.02578.36953c-.01719.13191-.03739.2664-.05973.4039v-.01759Zm9.729-.41293-1.04888,4.95086c-.03437.18261-.06058.34074-.07777.47223a2.83683,2.83683,0,0,0-.02578.33559.753.753,0,0,0,.10312.45546.58788.58788,0,0,0,.22343.18l-.06831.34417h-2.59618c-.01117-.07992-.01934-.15468-.02578-.22343-.00558-.06832-.00858-.1375-.00858-.20625v-.06832c0-.07993.003-.16329.00858-.24922.006-.08594.01461-.19164.02578-.318q-.10246.08572-.21441.17231a2.31894,2.31894,0,0,0-.21484.18863,5.728,5.728,0,0,1-1.15156.65355,4.14144,4.14144,0,0,1-1.65043.29175,2.8383,2.8383,0,0,1-1.59844-.46449,1.64156,1.64156,0,0,1-.68707-1.51249,3.24475,3.24475,0,0,1,.01719-.32657c.0116-.11429.02878-.229.05113-.34333a3.40657,3.40657,0,0,1,1.195-2.04573,4.34388,4.34388,0,0,1,2.08871-.87657l2.23438-.34418a.24263.24263,0,0,0,.1289,0c.04039-.0116.08293-.02234.1289-.034a1.19638,1.19638,0,0,0,.45547-.20667.74542.74542,0,0,0,.2836-.46406c.0116-.05671.02019-.1057.02578-.14609a.86475.86475,0,0,0,.00859-.1289.59914.59914,0,0,0-.29219-.58437,1.71338,1.71338,0,0,0-.63594-.18863,1.68607,1.68607,0,0,0-.24062-.01719h-.22387a1.56547,1.56547,0,0,0-1.58125.91093,1.04682,1.04682,0,0,0-.08551.18c-.0232.0636-.046.12332-.06918.1809l-2.32075-.01719a3.93779,3.93779,0,0,1,1.71016-2.45825,5.82249,5.82249,0,0,1,2.39809-.70512c.1027,0,.20883-.00258.31755-.00858q.163-.00839.33558-.00859.25716,0,.54957.02578c.19508.01719.39574.0434.60156.07734a3.5296,3.5296,0,0,1,1.375.60156,1.58343,1.58343,0,0,1,.61875,1.375,2.26519,2.26519,0,0,1-.01719.26641c-.01161.09711-.02878.19808-.05113.30035v-.01678Zm-3.07657,3.45469.24062-1.16875a1.99456,1.99456,0,0,1-.5848.27457,8.21616,8.21616,0,0,1-1.15156.24063,4.962,4.962,0,0,0-1.2289.36952,1.3034,1.3034,0,0,0-.69652,1.00547.64867.64867,0,0,1-.03437.20624v.10312a.66619.66619,0,0,0,.21484.54141,1.04777,1.04777,0,0,0,.455.232.93083.93083,0,0,1,.1289.00859.75906.75906,0,0,0,.11172.00859c.08078,0,.1607-.00259.24062-.00859a1.18069,1.18069,0,0,0,.24063-.043,3.02676,3.02676,0,0,0,1.29723-.57622,1.934,1.934,0,0,0,.76528-1.17777V161.913Zm6.27388,3.28324H164.6001l2.63055-12.34149h2.40626l-2.63012,12.34149Zm15.43524,0h-2.35469l.24062-1.15156h-.03437a3.224,3.224,0,0,1-.95434.868,3.77612,3.77612,0,0,1-1.07422.42066,3.98652,3.98652,0,0,1-.45546.07778,4.11277,4.11277,0,0,1-.455.02578,2.60175,2.60175,0,0,1-2.295-.9711,4.05331,4.05331,0,0,1-.67934-2.38048,6.87814,6.87814,0,0,1,.04341-.76484,7.62485,7.62485,0,0,1,.1289-.78247,6.17166,6.17166,0,0,1,1.71918-3.37734,4.67233,4.67233,0,0,1,2.68168-1.31527c.05672,0,.12032-.00259.18863-.00859.06876-.00559.13751-.00859.20626-.00859a2.59839,2.59839,0,0,1,1.38359.30894,2.39705,2.39705,0,0,1,.73048.67075c.046.07992.08851.15769.1289.232a1.4086,1.4086,0,0,1,.095.21484l.034-.01719.94574-4.38367h2.40626L182.442,165.19623Zm-5.44845-4.50355a3.93578,3.93578,0,0,0-.07734.46449,4.51357,4.51357,0,0,0-.02578.48125,2.56051,2.56051,0,0,0,.3184,1.26328,1.206,1.206,0,0,0,1.15973.57621,2.22047,2.22047,0,0,0,1.81371-.80738,4.30231,4.30231,0,0,0,.88516-1.8223c.01161-.046.02278-.09454.03437-.1461a.66781.66781,0,0,0,.01719-.14609,3.036,3.036,0,0,0,.06875-.4473c.01117-.14909.01719-.29261.01719-.43012a2.23955,2.23955,0,0,0-.33559-1.26328,1.38584,1.38584,0,0,0-1.24609-.507,2.04985,2.04985,0,0,0-1.77031.85938,5.20807,5.20807,0,0,0-.85937,1.94176v-.01677Z" style="fill:#fff;fill-rule:evenodd"/><path d="M190.53864,162.515h2.47457a5.202,5.202,0,0,1-1.37457,1.77934,4.93965,4.93965,0,0,1-1.68481.90234,5.65256,5.65256,0,0,1-.79879.1809,5.39642,5.39642,0,0,1-.78247.05973,4.51634,4.51634,0,0,1-2.65546-.73048,2.92477,2.92477,0,0,1-1.04027-2.56995,6.28791,6.28791,0,0,1,.052-.79019q.05156-.41251.15468-.89375a7.95237,7.95237,0,0,1,.2664-.92856,5.932,5.932,0,0,1,2.23439-2.92145,4.79462,4.79462,0,0,1,2.86172-.77387c.12633,0,.25223.003.37856.00859a2.82609,2.82609,0,0,1,.37726.04341,3.63623,3.63623,0,0,1,1.8309.868,3.08183,3.08183,0,0,1,.83359,2.44879,7.46012,7.46012,0,0,1-.043.77387,8.52413,8.52413,0,0,1-.14609.89374l-.10312.4125h-6.27388c-.01161.09153-.0202.1895-.02621.29262-.00559.10312-.00774.21184-.00774.32613,0,.05758.00258.11473.00774.17231a1.48552,1.48552,0,0,1,.009.15468,1.7383,1.7383,0,0,0,.41249.90235,2.18568,2.18568,0,0,0,1.46094.39531,1.69986,1.69986,0,0,0,.17144-.02578,2.20009,2.20009,0,0,0,.81684-.30894,1.59312,1.59312,0,0,0,.593-.65355v-.018Zm.70469-2.802a.93446.93446,0,0,0,.01719-.18v-.18a1.44554,1.44554,0,0,0-.41293-1.16918,1.56763,1.56763,0,0,0-.91093-.37813h-.13751a2.07841,2.07841,0,0,0-1.41839.50145,3.08118,3.08118,0,0,0-.868,1.40637h3.73054Zm10.50243-6.85824h5.44887q2.33772.0174,3.14532,1.26328a5.04629,5.04629,0,0,1,.82542,2.74141v.052a7.44087,7.44087,0,0,1-.05973.94488q-.06059.46471-.14652.89418-.10248.46342-.25782.9711-.15468.50661-.36093,1.02266a9.42136,9.42136,0,0,1-2.12266,3.05981,5.13046,5.13046,0,0,1-3.75547,1.39218h-5.34617l2.62969-12.34149Zm.34332,10.21024h2.50981a2.76241,2.76241,0,0,0,2.39765-1.20657,7.66213,7.66213,0,0,0,1.24653-2.68726c.01117-.046.01976-.08851.02578-.1289a.67685.67685,0,0,1,.02493-.11173c.06875-.33215.11772-.63594.14652-.90535a7.06284,7.06284,0,0,0,.04254-.74765,2.29573,2.29573,0,0,0-.48125-1.6818,2.06052,2.06052,0,0,0-1.0652-.559,2.46826,2.46826,0,0,0-.33515-.043c-.10871-.00559-.21528-.00859-.3184-.00859h-2.475l-1.71875,8.07984Zm15.19548-.55h2.47457a5.20734,5.20734,0,0,1-1.37457,1.77934,4.94366,4.94366,0,0,1-1.68481.90234,5.63727,5.63727,0,0,1-.79964.1809,5.38622,5.38622,0,0,1-.782.05973,4.5127,4.5127,0,0,1-2.65546-.73048,2.92365,2.92365,0,0,1-1.04027-2.56995,6.28791,6.28791,0,0,1,.052-.79019q.05156-.41251.15468-.89375a7.78664,7.78664,0,0,1,.2664-.92856,5.89384,5.89384,0,0,1,.593-1.22031,5.96378,5.96378,0,0,1,1.64141-1.70114,4.79372,4.79372,0,0,1,2.86172-.77387q.18949,0,.37813.00859a2.83059,2.83059,0,0,1,.37812.04341,3.63333,3.63333,0,0,1,1.83048.868,3.08044,3.08044,0,0,1,.834,2.44879,7.58081,7.58081,0,0,1-.04254.77387,8.42312,8.42312,0,0,1-.14653.89374l-.1027.4125h-6.2743c-.0116.09153-.02019.1895-.02621.29262q-.00838.15468-.00817.32613c0,.05758.00258.11473.00817.17231a1.48277,1.48277,0,0,1,.009.15468,1.735,1.735,0,0,0,.4125.90235,2.18684,2.18684,0,0,0,1.46137.39531,1.69986,1.69986,0,0,0,.17144-.02578,2.2,2.2,0,0,0,.81683-.30894,1.59314,1.59314,0,0,0,.593-.65355v-.018Zm.70426-2.802a.90161.90161,0,0,0,.01719-.18v-.18a1.444,1.444,0,0,0-.4125-1.16918,1.56763,1.56763,0,0,0-.91093-.37813h-.13707a2.07842,2.07842,0,0,0-1.4184.50145,3.07768,3.07768,0,0,0-.868,1.40637h3.72968Zm11.79193-.87612h-2.35513v-.10312a1.31509,1.31509,0,0,0-.22344-.74766q-.22365-.33514-1.13438-.33515a2.32939,2.32939,0,0,0-1.16017.21484,1.04046,1.04046,0,0,0-.45546.47266l-.03481.1027-.03438.10312v.05156a.04984.04984,0,0,0-.01718.03481v.03437c.0116.21827.1663.38371.46407.49843a7.55912,7.55912,0,0,0,1.0652.30981c.16071.02278.32355.05113.48985.08551q.25008.05156.49027.12032a6.62261,6.62261,0,0,1,1.72691.66214,1.51771,1.51771,0,0,1,.78245,1.43559,2.06425,2.06425,0,0,1-.01762.25738,2.13851,2.13851,0,0,1-.05156.27542,3.36089,3.36089,0,0,1-1.0566,1.91641,4.7613,4.7613,0,0,1-1.67621.93715,6.53368,6.53368,0,0,1-1.04028.21484,7.86007,7.86007,0,0,1-.90234.05973h-.05156a6.05991,6.05991,0,0,1-2.57854-.54141,1.97823,1.97823,0,0,1-1.16919-1.968,1.88946,1.88946,0,0,1,.0262-.30981q.02577-.15468.04254-.32614l2.475-.01761c-.01159.05758-.0202.11173-.02578.16372a1.40546,1.40546,0,0,0-.0086.16328.884.884,0,0,0,.38673.74766,2.4103,2.4103,0,0,0,1.3664.28359,2.37,2.37,0,0,0,1.02266-.18,1.33006,1.33006,0,0,0,.52465-.40434,1.3954,1.3954,0,0,0,.11128-.19723.9894.9894,0,0,0,.06058-.16329.08.08,0,0,1,.0086-.0348.07674.07674,0,0,0,.0086-.03437v-.05113q0-.36093-.45546-.53324a7.64491,7.64491,0,0,0-1.10861-.30894c-.14823-.03437-.29735-.06617-.44644-.09453-.1491-.02879-.30336-.05973-.46407-.095a6.55433,6.55433,0,0,1-1.702-.66129,1.53727,1.53727,0,0,1-.77343-1.45278,1.40479,1.40479,0,0,1,.02578-.25781c.01718-.09153.03179-.183.043-.275a2.37954,2.37954,0,0,1,.10312-.37813q.069-.18885.15513-.37812a4.20619,4.20619,0,0,1,1.3664-1.58168,4.4918,4.4918,0,0,1,2.72466-.72188h.24922a1.73759,1.73759,0,0,1,.24923.01719,4.90279,4.90279,0,0,1,2.07152.54183,1.93975,1.93975,0,0,1,.93671,1.89923v.2664a1.39248,1.39248,0,0,1-.03438.30121v-.01846Zm6.618,3.67812h2.47456a5.20184,5.20184,0,0,1-1.37456,1.77934,4.93974,4.93974,0,0,1-1.68481.90234,5.65288,5.65288,0,0,1-.79879.1809,5.39639,5.39639,0,0,1-.78246.05973,4.51646,4.51646,0,0,1-2.65547-.73048,2.92368,2.92368,0,0,1-1.04028-2.56995,6.28784,6.28784,0,0,1,.052-.79019q.05157-.41251.15468-.89375a7.95278,7.95278,0,0,1,.26641-.92856,5.93183,5.93183,0,0,1,2.23438-2.92145,4.79465,4.79465,0,0,1,2.86171-.77387c.12633,0,.25221.003.379.00859a2.82571,2.82571,0,0,1,.37726.04341,3.63631,3.63631,0,0,1,1.8309.868,3.08176,3.08176,0,0,1,.83359,2.44879,7.46831,7.46831,0,0,1-.043.77387,8.64133,8.64133,0,0,1-.1461.89374l-.10312.4125h-6.27388c-.01159.09153-.02019.1895-.0262.29262-.00559.10312-.00774.21184-.00774.32613,0,.05758.00257.11473.00774.17231a1.48552,1.48552,0,0,1,.009.15468,1.73833,1.73833,0,0,0,.41251.90235,2.18684,2.18684,0,0,0,1.46137.39531,1.68126,1.68126,0,0,0,.17144-.02578,2.2,2.2,0,0,0,.81684-.30894,1.59318,1.59318,0,0,0,.593-.65355v-.018Zm.7047-2.802a.93447.93447,0,0,0,.01718-.18v-.18a1.44558,1.44558,0,0,0-.41293-1.16918,1.56768,1.56768,0,0,0-.91094-.37813h-.1375a2.07846,2.07846,0,0,0-1.41841.50145,3.08144,3.08144,0,0,0-.868,1.40637h3.73058Zm12.51337-.84175-1.34062,6.32543h-2.40669l1.18636-5.552a1.68867,1.68867,0,0,0,.05972-.25781,1.8348,1.8348,0,0,0,.0262-.30981v-.15425a1.18609,1.18609,0,0,0-.24923-.73906,1.24648,1.24648,0,0,0-1.02307-.32657,2.26387,2.26387,0,0,0-1.45193.53324,2.65659,2.65659,0,0,0-.88558,1.58168l-1.11718,5.225H240.0086l1.94262-9.14462h2.3027l-.275,1.341h.03439c.06918-.08077.14909-.17187.24062-.275a4.49644,4.49644,0,0,1,.32657-.32657,4.3021,4.3021,0,0,1,1.00548-.66172,3.37543,3.37543,0,0,1,1.50391-.30121,2.9404,2.9404,0,0,1,1.89105.57578,2.05542,2.05542,0,0,1,.72146,1.71058,2.72651,2.72651,0,0,1-.02578.36953c-.01718.13191-.03738.2664-.05972.4039v-.01759Zm5.12187,6.325h-2.52656l-1.34063-9.14462h2.6817l.46407,6.73837h.03438l3.36918-6.73837h2.561l-5.24309,9.14462Zm13.92361-4.57188v.01719a4.15243,4.15243,0,0,0,.11172-.66988q.02577-.32742.02578-.61875a3.15959,3.15959,0,0,0-1.1086-2.66449,4.25984,4.25984,0,0,0-2.69027-.85938h-.16329a.8186.8186,0,0,0-.16328.01719,5.89609,5.89609,0,0,0-3.31762,1.2547,5.70519,5.70519,0,0,0-2.04574,3.541q-.069.34353-.11172.67934a4.91744,4.91744,0,0,0-.043.62734,3.11318,3.11318,0,0,0,1.1086,2.63829,4.2853,4.2853,0,0,0,2.69027.85078h.16328a.82776.82776,0,0,0,.16329-.01719,5.96492,5.96492,0,0,0,3.32622-1.24609,5.66739,5.66739,0,0,0,2.05432-3.5501Zm-2.475,0v.01719a3.93977,3.93977,0,0,1-.095.39532,4.04542,4.04542,0,0,1-.14611.41293,3.89665,3.89665,0,0,1-.87655,1.35781,2.24146,2.24146,0,0,1-1.68482.61875,1.51644,1.51644,0,0,1-1.3578-.54183,2.16455,2.16455,0,0,1-.361-1.2289,4.00055,4.00055,0,0,1,.03394-.51563q.03482-.25716.08636-.49844a3.93054,3.93054,0,0,1,.09452-.39532c.03952-.1375.08292-.275.1289-.41249a3.90184,3.90184,0,0,1,.87655-1.35867,2.24146,2.24146,0,0,1,1.68482-.61875,1.50429,1.50429,0,0,1,1.3664.55043,2.2776,2.2776,0,0,1,.35235,1.25469v.16329a.82694.82694,0,0,1-.01762.16371,2.1,2.1,0,0,1-.02578.33516c-.01671.10868-.0369.2088-.05925.30075Zm5.65513,4.57188h-2.40669l2.63011-12.34149h2.40624l-2.62966,12.34149Zm7.21919,0h-2.52656l-1.34063-9.14462h2.6817l.46362,6.73837h.0348l3.36877-6.73837h2.56137l-5.24307,9.14462Zm9.05825-9.14419h-2.40624l-1.94262,9.14462h2.40669l1.94217-9.14462Zm.22429-1.08281H285.9375l.48125-2.2348H288.825l-.4808,2.2348Zm14.55824,3.902-1.3402,6.32543h-2.40669l1.18636-5.552q.03415-.17208.06017-.35234a1.22848,1.22848,0,0,0,.009-.3184,1.11171,1.11171,0,0,0-.284-.86755,1.04092,1.04092,0,0,0-.71372-.24964,1.75745,1.75745,0,0,0-1.375.53324,2.8428,2.8428,0,0,0-.65314,1.34106l-1.16918,5.46562h-2.40624l1.16874-5.50043a2.51443,2.51443,0,0,0,.06058-.2664q.02577-.14568.04254-.30035a.59761.59761,0,0,0,.01717-.1461v-.14609a1.07146,1.07146,0,0,0-.232-.68794,1.16318,1.16318,0,0,0-.93629-.29261,1.587,1.587,0,0,0-1.28047.51605,2.7795,2.7795,0,0,0-.59383,1.27187l-1.1855,5.552h-2.40624l1.94175-9.14462h2.30357l-.27456,1.34106h.03393q.08636-.10378.20583-.24922.12115-.1463.25824-.3012a4.04579,4.04579,0,0,1,.9797-.69566,3.12366,3.12366,0,0,1,1.47813-.3184,2.38359,2.38359,0,0,1,1.46137.36094,2.6607,2.6607,0,0,1,.77343,1.1q.10379-.11989.26641-.284c.1087-.10829.232-.22043.36952-.33473a3.81449,3.81449,0,0,1,.88516-.5848,2.76,2.76,0,0,1,1.2289-.25781,2.93914,2.93914,0,0,1,1.89064.57578,2.05323,2.05323,0,0,1,.72187,1.71058,2.87305,2.87305,0,0,1-.02578.36952q-.02577.19788-.06058.40391v-.01674Zm6.80714,3.64375h2.475a5.21858,5.21858,0,0,1-1.375,1.77934,4.93978,4.93978,0,0,1-1.68482.90234,5.60461,5.60461,0,0,1-.79921.1809,5.392,5.392,0,0,1-.78246.05973,4.51646,4.51646,0,0,1-2.65547-.73048,2.9235,2.9235,0,0,1-1.03983-2.56995,6.365,6.365,0,0,1,.05156-.79019q.0509-.41251.15426-.89375a8.041,8.041,0,0,1,.2664-.92856,5.89732,5.89732,0,0,1,.5934-1.22031,5.96378,5.96378,0,0,1,1.64141-1.70114,4.79745,4.79745,0,0,1,2.86257-.77387q.18887,0,.37813.00859a2.82477,2.82477,0,0,1,.37771.04341,3.6377,3.6377,0,0,1,1.83134.868,3.08326,3.08326,0,0,1,.83317,2.44879,7.58081,7.58081,0,0,1-.04254.77387,8.64133,8.64133,0,0,1-.1461.89374l-.10312.4125h-6.2743c-.01159.09153-.02019.1895-.02578.29262-.006.10312-.0086.21184-.0086.32613a1.64854,1.64854,0,0,0,.0086.17231c.00559.05671.0086.1087.0086.15468a1.735,1.735,0,0,0,.41251.90235,1.64285,1.64285,0,0,0,1.28906.4039,1.65977,1.65977,0,0,0,.17231-.00859,1.69779,1.69779,0,0,0,.17231-.02578,2.20171,2.20171,0,0,0,.816-.30894,1.59325,1.59325,0,0,0,.593-.65355v-.018Zm.70511-2.802a.93447.93447,0,0,0,.01718-.18v-.18a1.44686,1.44686,0,0,0-.41251-1.16918,1.57114,1.57114,0,0,0-.91136-.37813h-.1375a2.07809,2.07809,0,0,0-1.418.50145,3.0708,3.0708,0,0,0-.868,1.40637h3.73013Zm12.51293-.84175-1.34063,6.32543h-2.40624l1.1855-5.552a1.67868,1.67868,0,0,0,.06058-.25781,1.881,1.881,0,0,0,.02578-.30981v-.15425a1.18614,1.18614,0,0,0-.24922-.73906,1.24606,1.24606,0,0,0-1.02266-.32657,2.26518,2.26518,0,0,0-1.45277.53324,2.65618,2.65618,0,0,0-.88516,1.58168l-1.11717,5.225h-2.40669l1.94262-9.14462h2.3027l-.275,1.341h.0348c.06832-.08077.1491-.17187.24021-.275a4.4072,4.4072,0,0,1,.32656-.32657,4.29667,4.29667,0,0,1,1.0059-.66172,3.37278,3.37278,0,0,1,1.50305-.30121,2.9404,2.9404,0,0,1,1.89105.57578,2.05567,2.05567,0,0,1,.72188,1.71058,2.80543,2.80543,0,0,1-.0262.36953c-.01718.13191-.03654.2664-.05972.4039v-.01759Zm5.53524-2.81919h1.49531l-.361,1.71919h-1.4953l-1.0652,4.96762c-.01159.08078-.02321.1491-.0348.20625a.8883.8883,0,0,0-.01718.17144.30029.30029,0,0,0,.18091.29262,1.9335,1.9335,0,0,0,.71285.08551c.08035,0,.16328-.00258.24922-.00859.08594-.00558.17446-.01417.26641-.02578l-.39531,1.80426c-.18306.01161-.36952.0202-.55817.02622-.18948.00558-.38114.00859-.57621.00859h-.30894a2.924,2.924,0,0,1-1.6934-.34375,1.154,1.154,0,0,1-.4387-.96293,2.09971,2.09971,0,0,1,.0262-.30894c.01717-.11473.03653-.229.05971-.34375l1.18636-5.56918h-1.2375l.361-1.71918h1.23708l.53326-2.475h2.40582l-.53242,2.4754Zm10.88012,4.57231v.01719a4.01511,4.01511,0,0,0,.11173-.66988q.02577-.32742.0262-.61875a3.15773,3.15773,0,0,0-1.10944-2.66449,4.25812,4.25812,0,0,0-2.69027-.85938h-.16329a.82512.82512,0,0,0-.16328.01719,5.89719,5.89719,0,0,0-3.31762,1.2547,5.71085,5.71085,0,0,0-2.04574,3.541c-.04511.229-.08293.45547-.11128.67934a4.92178,4.92178,0,0,0-.0434.62734,3.11432,3.11432,0,0,0,1.1086,2.63829,4.28528,4.28528,0,0,0,2.69027.85078h.16328a.818.818,0,0,0,.16329-.01719,5.96506,5.96506,0,0,0,3.32664-1.24609,5.66535,5.66535,0,0,0,2.05431-3.5501Zm-2.475,0v.01719a3.937,3.937,0,0,1-.24063.80825,3.8846,3.8846,0,0,1-.87655,1.35781,2.24012,2.24012,0,0,1-1.68481.61875,1.51514,1.51514,0,0,1-1.35739-.54183,2.16521,2.16521,0,0,1-.36179-1.2289,3.85386,3.85386,0,0,1,.03481-.51563q.03414-.25716.08594-.49844a4.042,4.042,0,0,1,.0941-.39532c.04039-.1375.08292-.275.12935-.41249a3.887,3.887,0,0,1,.87571-1.35867,2.24145,2.24145,0,0,1,1.68481-.61875,1.50289,1.50289,0,0,1,1.36641.55043,2.27414,2.27414,0,0,1,.35235,1.25469v.16329a.82662.82662,0,0,1-.01718.16371,2.15236,2.15236,0,0,1-.02578.33516,3.021,3.021,0,0,1-.05935.30075ZM26.98526,177.34867H24.4067l-.04254-.37813a2.4572,2.4572,0,0,0-.09539-.44645,1.856,1.856,0,0,0-.60113-.88515,2.34735,2.34735,0,0,0-1.54731-.40434,3.22325,3.22325,0,0,0-.76484.10312,3.41418,3.41418,0,0,0-.85121.34418,4.59,4.59,0,0,0-1.35782,1.32343,6.75748,6.75748,0,0,0-.99687,2.54376,6.94555,6.94555,0,0,0-.12891.76484,6.592,6.592,0,0,0-.04254.73047,3.31709,3.31709,0,0,0,.541,1.934,2.028,2.028,0,0,0,1.79609.782,3.23,3.23,0,0,0,1.90825-.593,3.80722,3.80722,0,0,0,1.30668-1.72734l2.5777-.0172a7.75655,7.75655,0,0,1-2.40583,3.29185,6.12491,6.12491,0,0,1-3.91918,1.26328,4.65818,4.65818,0,0,1-3.27422-1.12578,4.28436,4.28436,0,0,1-1.21172-3.36016,9.21411,9.21411,0,0,1,.05156-.94574,8.76544,8.76544,0,0,1,.17231-1.03125,8.29865,8.29865,0,0,1,2.68082-4.87352,6.74575,6.74575,0,0,1,4.38367-1.64141,4.42548,4.42548,0,0,1,3.14575.95434A3.94239,3.94239,0,0,1,26.95131,176.06c.02278.1259.03953.2548.05113.38671s.01719.26082.01719.38672c0,.09153-.003.18-.00859.2664-.006.08595-.01418.17446-.02578.26641v-.01761Zm4.41719-.84177-1.94176,9.14376H27.054l1.94262-9.14376Zm.22344-1.08367H29.21963l.48126-2.23438h2.40625l-.48125,2.23438Zm6.08567,7.5466h2.47457a5.19718,5.19718,0,0,1-1.37457,1.77891,4.92473,4.92473,0,0,1-1.68481.90235,5.52935,5.52935,0,0,1-.79922.1809,5.27908,5.27908,0,0,1-.78246.05973,4.5127,4.5127,0,0,1-2.65547-.73005,2.92549,2.92549,0,0,1-1.04027-2.56953,6.31192,6.31192,0,0,1,.052-.79106q.05157-.41252.15469-.89375a7.97776,7.97776,0,0,1,.26641-.92856,5.883,5.883,0,0,1,.59339-1.21987,5.96628,5.96628,0,0,1,1.64141-1.702,4.79667,4.79667,0,0,1,2.86172-.77343c.12676,0,.25223.00258.379.00774a2.84066,2.84066,0,0,1,.3777.0434,3.64037,3.64037,0,0,1,1.83047.868,3.08183,3.08183,0,0,1,.834,2.44964,7.56314,7.56314,0,0,1-.04254.77343,8.5351,8.5351,0,0,1-.14652.89375l-.1027.41293H34.27319c-.0116.09153-.02019.18863-.02621.29218-.00558.10312-.00773.21184-.00773.327,0,.05671.00258.11429.00773.17144a1.49764,1.49764,0,0,1,.009.15511,1.74075,1.74075,0,0,0,.41207.90235,1.64442,1.64442,0,0,0,1.28906.40391c.05758,0,.11473-.003.17231-.00859a1.73176,1.73176,0,0,0,.17187-.02622,2.171,2.171,0,0,0,.81684-.30894,1.59566,1.59566,0,0,0,.5934-.65312v-.01761Zm.70425-2.802a.90835.90835,0,0,0,.01719-.18048v-.18089a1.44561,1.44561,0,0,0-.4125-1.16875,1.5658,1.5658,0,0,0-.91051-.379h-.1375a2.07843,2.07843,0,0,0-1.4184.50144,3.07835,3.07835,0,0,0-.868,1.40679h3.72969Zm12.5138-.84262L49.589,185.65066H47.18231l1.18636-5.552a1.6498,1.6498,0,0,0,.05973-.25695,1.83482,1.83482,0,0,0,.02621-.30981v-.15468a1.18448,1.18448,0,0,0-.24922-.73907,1.24367,1.24367,0,0,0-1.02308-.32656,2.26572,2.26572,0,0,0-1.45192.53281,2.6614,2.6614,0,0,0-.88558,1.58124l-1.11719,5.22544H41.32137l1.94262-9.14375h2.30312l-.275,1.34019h.03438q.10377-.1199.24062-.275a4.49351,4.49351,0,0,1,.32657-.32657,4.31533,4.31533,0,0,1,1.00547-.66129,3.38755,3.38755,0,0,1,1.5039-.30035,2.94068,2.94068,0,0,1,1.89063.57535,2.054,2.054,0,0,1,.72188,1.71016,2.78881,2.78881,0,0,1-.02535.36952c-.01719.13192-.03739.26641-.05973.40434v-.01846Zm5.53481-2.81832h1.49532l-.36094,1.71919H56.10349l-1.06606,4.96762c-.0116.07992-.02277.14824-.03437.20582a.86735.86735,0,0,0-.01719.17231.299.299,0,0,0,.18047.29175,1.92519,1.92519,0,0,0,.71328.08551c.07993,0,.16329-.00258.24922-.00774q.12891-.009.26641-.02621l-.39489,1.80511q-.27522.01741-.55816.02578-.28423.009-.57578.00859h-.30981a2.93094,2.93094,0,0,1-1.6934-.34332,1.15474,1.15474,0,0,1-.43785-.9625,2.10936,2.10936,0,0,1,.02578-.30981q.02578-.17208.06059-.34332l1.18551-5.56919H52.46017l.3605-1.71918h1.2375l.53324-2.47586h2.40583l-.53282,2.47545Zm5.5,0H59.55817l-1.94262,9.14376h2.40668l1.94219-9.14376Zm-.20581-1.23835H60.02267l2.14844-2.50938h2.64731l-3.05981,2.50938Zm3.35157,10.38211,1.58168-7.425h1.56449l.36051-1.71918H67.05323l.08637-.34461a.79809.79809,0,0,0,.02578-.11129.60068.60068,0,0,1,.02578-.11172,1.18746,1.18746,0,0,1,.26641-.61017,1.11348,1.11348,0,0,1,.73046-.19808h.67075l.4125-1.92543c-.10313-.01117-.24363-.01934-.42152-.02578q-.26619-.00837-.79922-.00859a3.56362,3.56362,0,0,0-2.08872.59341,3.13093,3.13093,0,0,0-1.15973,2.00234l-.15511.7395H63.32311l-.36051,1.71918h1.323l-1.58082,7.425h2.40539Zm7.35668-9.14376-1.94176,9.14376H68.11842L70.061,176.5069Zm.22429-1.08367H70.28447l.48125-2.23438H73.172Z" style="fill:#fff;fill-rule:evenodd"/><path d="M78.96417,182.31628h2.44105a5.326,5.326,0,0,1-.29176.73132,4.83254,4.83254,0,0,1-.56761.90149,5.58109,5.58109,0,0,1-1.5559,1.34148,4.77645,4.77645,0,0,1-2.518.60113,3.11249,3.11249,0,0,1-2.72422-1.00547,3.7058,3.7058,0,0,1-.67934-2.20816,6.5738,6.5738,0,0,1,.0348-.67934,5.62417,5.62417,0,0,1,.10313-.64453A7.56708,7.56708,0,0,1,75.0192,177.71a4.75263,4.75263,0,0,1,3.65278-1.42613c.17145,0,.34934.00774.53282.02578a3.72614,3.72614,0,0,1,.55043.09453,3.659,3.659,0,0,1,1.55547.83316,2.42,2.42,0,0,1,.69609,1.95121v.29218a1.4376,1.4376,0,0,1-.03438.30981l-2.441-.01719v-.06917c0-.06832-.003-.1375-.0086-.20625-.006-.06832-.01418-.13664-.02535-.20583a1.51674,1.51674,0,0,0-.3184-.68793.97168.97168,0,0,0-.834-.29175h-.10356a1.88226,1.88226,0,0,0-1.46051.60156,3.85732,3.85732,0,0,0-.80824,1.34062,3.57543,3.57543,0,0,0-.12031.35235c-.03438.12031-.06274.23762-.08637.35234a.35181.35181,0,0,0-.02536.07691.49248.49248,0,0,0-.00859.09453,4.37829,4.37829,0,0,0-.08551.455c-.02321.16672-.04039.33516-.052.50746a.55818.55818,0,0,0-.01718.1375v.13751a2.08951,2.08951,0,0,0,.28359,1.08239,1.19723,1.19723,0,0,0,1.12578.48124,1.67613,1.67613,0,0,0,.9711-.275,2.60663,2.60663,0,0,0,.64453-.60156,2.43638,2.43638,0,0,0,.25008-.40391,1.16936,1.16936,0,0,0,.11085-.3184v-.01674Zm13.21848-1.23793a5.65864,5.65864,0,0,1-2.05348,3.54965,5.96485,5.96485,0,0,1-3.32578,1.24609.82432.82432,0,0,1-.16329.01719h-.16285a4.28938,4.28938,0,0,1-2.69027-.85035,3.11562,3.11562,0,0,1-1.10946-2.63871,4.92349,4.92349,0,0,1,.0434-.62734q.04318-.3358.11172-.67933a5.70556,5.70556,0,0,1,2.04531-3.54063,5.89537,5.89537,0,0,1,3.318-1.25469.81456.81456,0,0,1,.16328-.01719h.16328a4.25707,4.25707,0,0,1,2.69028.85894,3.15966,3.15966,0,0,1,1.1086,2.66449q0,.29262-.02536.61875a4.12093,4.12093,0,0,1-.11257.67031v-.01718Zm-2.47457,0c.02277-.09152.043-.19164.05973-.30035a2.143,2.143,0,0,0,.02578-.33516.82012.82012,0,0,0,.01762-.16328v-.16328a2.27915,2.27915,0,0,0-.35235-1.25512,1.504,1.504,0,0,0-1.3664-.54956,2.24143,2.24143,0,0,0-1.68481.61875,3.8864,3.8864,0,0,0-.87656,1.35781q-.06962.20626-.12891.4125a4.05458,4.05458,0,0,0-.095.39532c-.03394.1607-.06273.32657-.08593.49887a3.91206,3.91206,0,0,0-.03395.51563,2.1655,2.1655,0,0,0,.36094,1.2289,1.51787,1.51787,0,0,0,1.35781.54141,2.24209,2.24209,0,0,0,1.68481-.61875,3.87533,3.87533,0,0,0,.87614-1.35781,4.05114,4.05114,0,0,0,.14652-.4125c.03953-.1375.07133-.26942.09453-.39574v-.01764Zm13.90513,1.89148h2.475a5.18758,5.18758,0,0,1-1.375,1.77891,4.92464,4.92464,0,0,1-1.68481.90235,5.49855,5.49855,0,0,1-.79878.1809,5.265,5.265,0,0,1-.782.05973,4.51687,4.51687,0,0,1-2.6559-.73005,2.92624,2.92624,0,0,1-1.03942-2.56953,6.3101,6.3101,0,0,1,.052-.79106c.03351-.275.08551-.57278.15383-.89375a7.90961,7.90961,0,0,1,.26683-.92856,5.90183,5.90183,0,0,1,.593-1.21987,5.96615,5.96615,0,0,1,1.64141-1.702,4.79575,4.79575,0,0,1,2.86172-.77343q.1895,0,.37813.00774a2.83057,2.83057,0,0,1,.37812.0434,3.64493,3.64493,0,0,1,1.8309.868,3.08172,3.08172,0,0,1,.8336,2.44964,7.45433,7.45433,0,0,1-.0434.77343,8.41593,8.41593,0,0,1-.14609.89375l-.10313.41293h-6.27387c-.01117.09153-.01977.18863-.02578.29218-.00559.10312-.00859.21184-.00859.327,0,.05671.003.11429.00859.17144a1.48837,1.48837,0,0,1,.0086.15511,1.73855,1.73855,0,0,0,.41293.90235,1.64272,1.64272,0,0,0,1.28863.40391c.05758,0,.11472-.003.1723-.00859a1.70473,1.70473,0,0,0,.17145-.02622,2.17653,2.17653,0,0,0,.81684-.30894,1.59061,1.59061,0,0,0,.59253-.65312v-.01761Zm.70512-2.802a.9091.9091,0,0,0,.01718-.18048v-.18089a1.447,1.447,0,0,0-.4125-1.16875,1.56592,1.56592,0,0,0-.91137-.379H102.875a2.07843,2.07843,0,0,0-1.4184.50144,3.07486,3.07486,0,0,0-.868,1.40679h3.7297Zm13.11536,5.48282h-2.579l2.16605-10.15868h-3.72969l.46406-2.18324h10.03793l-.46449,2.18324h-3.72969l-2.16518,10.15868Zm9.98637-2.68083v.01719a1.6021,1.6021,0,0,1-.59254.65312,2.17621,2.17621,0,0,1-.81683.309,1.71577,1.71577,0,0,1-.17188.02621c-.05758.00558-.11472.00859-.1723.00859a1.64441,1.64441,0,0,1-1.28906-.40391,1.742,1.742,0,0,1-.41293-.90235,1.48744,1.48744,0,0,0-.00859-.15511c-.00559-.05715-.00859-.11473-.00859-.17144q0-.1721.00859-.327c.006-.10312.0146-.20023.02534-.29218h6.2743l.10312-.41293a8.3967,8.3967,0,0,0,.1461-.89375,7.45725,7.45725,0,0,0,.0434-.77343,3.0824,3.0824,0,0,0-.834-2.44964,3.64361,3.64361,0,0,0-1.83047-.868,2.83236,2.83236,0,0,0-.37813-.0434c-.1259-.00559-.2518-.00774-.37813-.00774a4.79681,4.79681,0,0,0-2.86172.77343,5.96642,5.96642,0,0,0-1.64141,1.702,5.87945,5.87945,0,0,0-.593,1.21987,7.99249,7.99249,0,0,0-.26684.92856c-.06832.32055-.12031.61876-.15383.89375a6.31192,6.31192,0,0,0-.052.79106,2.9242,2.9242,0,0,0,1.03985,2.56953,4.515,4.515,0,0,0,2.6559.73005,5.31619,5.31619,0,0,0,.7816-.05973,5.50324,5.50324,0,0,0,.79921-.1809,4.92473,4.92473,0,0,0,1.68481-.90235,5.1876,5.1876,0,0,0,1.375-1.77891h-2.475Zm.7047-2.802h-3.72969a3.07123,3.07123,0,0,1,.868-1.40679,2.07847,2.07847,0,0,1,1.4184-.50145h.13664a1.56326,1.56326,0,0,1,.91137.379,1.44644,1.44644,0,0,1,.41249,1.16875v.1809a.905.905,0,0,1-.01717.17961Zm9.04149,2.14844h2.44105a5.22851,5.22851,0,0,1-.29218.73132,4.81042,4.81042,0,0,1-.56763.90149,5.589,5.589,0,0,1-1.555,1.34148,4.78181,4.78181,0,0,1-2.51883.60113,3.11249,3.11249,0,0,1-2.72422-1.00547,3.70873,3.70873,0,0,1-.67933-2.20816,6.5738,6.5738,0,0,1,.0348-.67934,5.53141,5.53141,0,0,1,.10312-.64453,7.56049,7.56049,0,0,1,1.81371-3.64418,4.751,4.751,0,0,1,3.65235-1.42613c.17144,0,.34933.00774.53324.02578a3.74019,3.74019,0,0,1,.55.09453,3.66,3.66,0,0,1,1.555.83316,2.41993,2.41993,0,0,1,.69609,1.95121v.29218a1.38608,1.38608,0,0,1-.03437.30981l-2.44106-.01719v-.06917c0-.06832-.00258-.1375-.00859-.20625-.00558-.06832-.01417-.13664-.02578-.20583a1.51672,1.51672,0,0,0-.31839-.68793.97128.97128,0,0,0-.8336-.29175h-.10355a1.88228,1.88228,0,0,0-1.46051.60156,3.864,3.864,0,0,0-.80824,1.34062,3.57548,3.57548,0,0,0-.12032.35235q-.05154.18047-.08551.35234a.31191.31191,0,0,0-.02621.07691.49248.49248,0,0,0-.00859.09453,4.16766,4.16766,0,0,0-.08551.455c-.02319.16672-.04039.33516-.052.50746a.55772.55772,0,0,0-.01719.1375v.13751a2.08951,2.08951,0,0,0,.28359,1.08239,1.19792,1.19792,0,0,0,1.12665.48124,1.67758,1.67758,0,0,0,.97067-.275,2.61623,2.61623,0,0,0,.645-.60156,2.42864,2.42864,0,0,0,.24921-.40391,1.15855,1.15855,0,0,0,.11129-.3184v-.01674Zm13.02942-2.99106-1.34106,6.32544h-2.40625l1.18636-5.552a1.75454,1.75454,0,0,0,.05973-.25695,1.87987,1.87987,0,0,0,.02578-.30981v-.15468a1.18453,1.18453,0,0,0-.24921-.73907,1.24323,1.24323,0,0,0-1.02266-.32656,2.26714,2.26714,0,0,0-1.45278.53281,2.661,2.661,0,0,0-.88516,1.58124l-1.11719,5.22544h-2.40669l1.94262-9.14375h2.30355l-.27542,1.34019h.0348c.06832-.07993.1491-.17144.24062-.275a4.39685,4.39685,0,0,1,.32614-.32657,4.30972,4.30972,0,0,1,1.0059-.66129,3.385,3.385,0,0,1,1.50391-.30035,2.94311,2.94311,0,0,1,1.89062.57535,2.05647,2.05647,0,0,1,.72187,1.71016,2.79524,2.79524,0,0,1-.02621.36952c-.01719.13192-.03652.26641-.05973.40434v-.01846Zm10.6915,1.75313a5.66138,5.66138,0,0,1-2.05434,3.54965,5.96385,5.96385,0,0,1-3.32621,1.24609.81778.81778,0,0,1-.16328.01719h-.16286a4.29025,4.29025,0,0,1-2.69027-.85035,3.1163,3.1163,0,0,1-1.10858-2.63871,4.99471,4.99471,0,0,1,.04253-.62734q.04318-.3358.11173-.67933a5.704,5.704,0,0,1,2.04574-3.54063,5.89293,5.89293,0,0,1,3.31762-1.25469.81771.81771,0,0,1,.16328-.01719h.16329a4.25708,4.25708,0,0,1,2.69027.85894,3.15965,3.15965,0,0,1,1.10858,2.66449q0,.29262-.02578.61875a4.07078,4.07078,0,0,1-.11172.67031v-.01718Zm-2.475,0c.02277-.09152.043-.19164.05972-.30035a2.09223,2.09223,0,0,0,.02579-.33516.82008.82008,0,0,0,.01761-.16328v-.16328a2.27907,2.27907,0,0,0-.35235-1.25512,1.504,1.504,0,0,0-1.36641-.54956,2.24208,2.24208,0,0,0-1.6848.61875,3.8925,3.8925,0,0,0-.87656,1.35781c-.046.13751-.08852.275-.12891.4125a4.06039,4.06039,0,0,0-.095.39532c-.03437.1607-.06273.32657-.08594.49887a3.91086,3.91086,0,0,0-.03437.51563,2.16549,2.16549,0,0,0,.36093,1.2289,1.51739,1.51739,0,0,0,1.35782.54141,2.24207,2.24207,0,0,0,1.6848-.61875,3.87663,3.87663,0,0,0,.87657-1.35781,3.94365,3.94365,0,0,0,.14609-.4125,3.68894,3.68894,0,0,0,.09453-.39574v-.01764Zm5.65512,4.57231H161.6606l2.63012-12.3415H166.697l-2.62969,12.3415Zm12.10087-4.57231v.0172a4.10283,4.10283,0,0,0,.11172-.67032q.02578-.32613.02535-.61875a3.15964,3.15964,0,0,0-1.10859-2.66449,4.25965,4.25965,0,0,0-2.69027-.85894h-.16329a.82512.82512,0,0,0-.16328.01719,5.89285,5.89285,0,0,0-3.31762,1.2547,5.70284,5.70284,0,0,0-2.04574,3.54062q-.069.34417-.11172.67933a4.91526,4.91526,0,0,0-.04254.62734,3.11517,3.11517,0,0,0,1.10859,2.63871,4.29024,4.29024,0,0,0,2.69027.85036h.16285a.82442.82442,0,0,0,.16328-.0172,5.96365,5.96365,0,0,0,3.32621-1.24609,5.65888,5.65888,0,0,0,2.05478-3.54966Zm-2.475,0v.0172a3.80212,3.80212,0,0,1-.095.39573,3.97318,3.97318,0,0,1-.14609.4125,3.87877,3.87877,0,0,1-.87656,1.35782,2.24213,2.24213,0,0,1-1.68481.61875,1.51737,1.51737,0,0,1-1.35781-.54141,2.16549,2.16549,0,0,1-.36094-1.2289,3.91454,3.91454,0,0,1,.03437-.51564c.0232-.1723.052-.33815.08594-.49887a3.92811,3.92811,0,0,1,.09454-.39532c.04038-.1375.08292-.275.1289-.41249a3.89258,3.89258,0,0,1,.87656-1.35782,2.24147,2.24147,0,0,1,1.68481-.61875,1.504,1.504,0,0,1,1.3664.54957,2.27912,2.27912,0,0,1,.35235,1.25511v.16329a.8277.8277,0,0,1-.01761.16328,2.04478,2.04478,0,0,1-.02578.33515c-.01676.10916-.037.20928-.0593.3008Zm-.2578-5.8098h-1.736l2.14844-2.50938h2.64732l-3.05981,2.50938Zm13.76849,1.23835-1.83907,8.66251c-.046.24149-.10312.48727-.1723.7395a6.49311,6.49311,0,0,1-.27458.79062,4.85338,4.85338,0,0,1-1.5559,1.83906,5.84638,5.84638,0,0,1-3.51484.84262,5.0952,5.0952,0,0,1-2.37187-.55043,1.86549,1.86549,0,0,1-1.066-1.7875c0-.06919.003-.13751.00858-.20626.00559-.06918.01461-.1375.02579-.20582h2.61249a1.04965,1.04965,0,0,0,.21528.63594q.21528.29133,1.26328.29175a2.32734,2.32734,0,0,0,1.54731-.48985,2.7015,2.7015,0,0,0,.80739-1.59027l.24105-1.11719-.0348-.03437a3.83193,3.83193,0,0,1-1.02266.96293,3.08666,3.08666,0,0,1-1.71016.4125,3.17618,3.17618,0,0,1-2.22578-.79063,3.12315,3.12315,0,0,1-.868-2.42386,6.235,6.235,0,0,1,.043-.71328q.04317-.36932.1289-.782a6.18549,6.18549,0,0,1,1.71875-3.37777,4.67064,4.67064,0,0,1,2.68168-1.31441c.05758,0,.12031-.003.1895-.009.06831-.00559.1375-.00774.20582-.00774a2.5748,2.5748,0,0,1,1.40078.31754,2.17583,2.17583,0,0,1,.71329.69653,1.81638,1.81638,0,0,1,.1375.30894c.0348.10312.06273.19465.08594.275l.03437-.01719.29262-1.35738h2.30268Zm-7.32276,4.62345c-.01073.07992-.02578.15769-.04253.232a.95189.95189,0,0,0-.02578.21528c-.01161.06832-.0202.14007-.02622.21441-.00558.07434-.00859.14609-.00859.21484a2.27843,2.27843,0,0,0,.33559,1.17692,1.22109,1.22109,0,0,0,1.12578.50747,2.08773,2.08773,0,0,0,1.71017-.72188,4.09749,4.09749,0,0,0,.81683-1.58124,1.00563,1.00563,0,0,0,.05113-.17231c.01161-.05671.0232-.11429.0348-.17187a3.04727,3.04727,0,0,0,.06832-.43786c.01074-.14352.01719-.278.01719-.40434a2.149,2.149,0,0,0-.38671-1.32386,1.3978,1.3978,0,0,0-1.195-.51564,1.99682,1.99682,0,0,0-.36094.03481,1.81142,1.81142,0,0,0-.3605.1027,2.66714,2.66714,0,0,0-1.02309.84305,4.27857,4.27857,0,0,0-.73048,1.80426v-.01677Zm11.91225-4.62345-1.94262,9.14376H187.444l1.94261-9.14376Zm.22343-1.08367h-2.40668l.48125-2.23438h2.40625l-.48082,2.23438Zm6.27345,6.89305h2.44106a5.28277,5.28277,0,0,1-.29219.73132,4.81033,4.81033,0,0,1-.56762.90149,5.589,5.589,0,0,1-1.555,1.34148,4.78179,4.78179,0,0,1-2.51883.60113,3.1125,3.1125,0,0,1-2.72422-1.00547,3.70217,3.70217,0,0,1-.67848-2.20816,6.57423,6.57423,0,0,1,.03437-.67934,5.4437,5.4437,0,0,1,.10312-.64453A7.5605,7.5605,0,0,1,194.3461,177.71a4.751,4.751,0,0,1,3.65234-1.42613c.17144,0,.34934.00774.53325.02578a3.72455,3.72455,0,0,1,.54956.09453,3.66392,3.66392,0,0,1,1.55547.83316,2.42154,2.42154,0,0,1,.69653,1.95121v.29218a1.38608,1.38608,0,0,1-.03437.30981l-2.44106-.01719v-.06917c0-.06832-.00258-.1375-.00859-.20625-.00558-.06832-.01417-.13664-.02578-.20583a1.51663,1.51663,0,0,0-.3184-.68793.97175.97175,0,0,0-.83359-.29175h-.10356a1.88226,1.88226,0,0,0-1.4605.60156,3.86417,3.86417,0,0,0-.80825,1.34062,3.69421,3.69421,0,0,0-.12031.35235c-.03437.12031-.06316.23762-.08551.35234a.31191.31191,0,0,0-.02621.07691.49168.49168,0,0,0-.00859.09453,4.16527,4.16527,0,0,0-.08551.455c-.0232.16672-.04039.33516-.052.50746a.55773.55773,0,0,0-.0172.1375v.13751a2.08952,2.08952,0,0,0,.2836,1.08239,1.19758,1.19758,0,0,0,1.12621.48124,1.67758,1.67758,0,0,0,.97067-.275,2.61623,2.61623,0,0,0,.645-.60156,2.4294,2.4294,0,0,0,.24922-.40391,1.15923,1.15923,0,0,0,.11129-.3184v-.01674Zm13.21849-1.23793a5.66147,5.66147,0,0,1-2.05434,3.54965,5.965,5.965,0,0,1-3.32622,1.24609.82009.82009,0,0,1-.16285.01719H205.802a4.291,4.291,0,0,1-2.69027-.85035,3.11511,3.11511,0,0,1-1.10859-2.63871,4.91925,4.91925,0,0,1,.043-.62734q.04318-.3358.11173-.67933a5.70408,5.70408,0,0,1,2.04573-3.54063,5.893,5.893,0,0,1,3.31763-1.25469.81448.81448,0,0,1,.16328-.01719h.16328a4.25787,4.25787,0,0,1,2.69027.85894,3.15962,3.15962,0,0,1,1.10859,2.66449q0,.29262-.02578.61875a4.11566,4.11566,0,0,1-.11172.67031v-.01718Zm-2.475,0c.02278-.09152.043-.19164.05973-.30035a2.143,2.143,0,0,0,.02578-.33516.81934.81934,0,0,0,.01761-.16328v-.16328a2.27907,2.27907,0,0,0-.35235-1.25512,1.504,1.504,0,0,0-1.3664-.54956,2.24141,2.24141,0,0,0-1.6848.61875,3.89253,3.89253,0,0,0-.87657,1.35781c-.046.13751-.08938.275-.1289.4125a3.93,3.93,0,0,0-.09453.39532c-.03437.1607-.06273.32657-.08594.49887a3.91086,3.91086,0,0,0-.03437.51563,2.16549,2.16549,0,0,0,.36093,1.2289,1.51739,1.51739,0,0,0,1.35782.54141,2.24207,2.24207,0,0,0,1.6848-.61875,3.88877,3.88877,0,0,0,.87657-1.35781,4.1537,4.1537,0,0,0,.14609-.4125,3.90989,3.90989,0,0,0,.09453-.39574Z" style="fill:#fff;fill-rule:evenodd"/><path d="M109.06767,103.88666a56.0113,56.0113,0,0,1,.4675-6.81442,44.70624,44.70624,0,0,1,1.63539-7.59345A38.47729,38.47729,0,0,1,121.3344,73.55156q7.43724-7.28193,22.70255-7.59345,1.79115,0,3.81606.11731,2.02512.11665,4.128.428a29.36621,29.36621,0,0,1,10.9029,3.81606q4.98417,2.95969,4.98523,9.65766a19.67851,19.67851,0,0,1-.11731,2.10332,14.90794,14.90794,0,0,1-.428,2.25844l-17.13423-.0782a7.77513,7.77513,0,0,0,.11731-.81727q.03867-.42861.03867-.73992a5.05773,5.05773,0,0,0-1.59672-4.128,8.69359,8.69359,0,0,0-3.46544-1.79094A13.664,13.664,0,0,0,143.297,76.473q-.97324-.078-1.67363-.07821a8.48338,8.48338,0,0,0-1.4025.11731q-.70127.11666-1.40207.27242-3.50368,1.09056-6.77576,5.33458-3.271,4.24488-5.14036,12.656-.156.7006-.27242,1.40165-.11667.70123-.19465,1.40207-.234,1.47984-.35063,2.88191-.116,1.40121-.11645,2.72551a15.19348,15.19348,0,0,0,1.75227,7.55434q1.75312,3.11567,6.58067,3.11524h.85723a5.66278,5.66278,0,0,0,.93456-.07778,6.90869,6.90869,0,0,0,1.59673-.19464,11.5957,11.5957,0,0,0,1.75183-.584,13.24616,13.24616,0,0,0,4.20578-3.077,8.11309,8.11309,0,0,0,2.25887-4.71153l16.51118-.0782a3.62586,3.62586,0,0,1,.11688.42839,2.21258,2.21258,0,0,1,.03867.42883,11.26149,11.26149,0,0,1-1.01234,3.89427,20.37268,20.37268,0,0,1-3.27122,5.2177,30.5279,30.5279,0,0,1-9.38438,7.08769q-6.11467,3.19238-15.7717,3.193H131.8097q-13.08463,0-17.52395-5.3741a21.60252,21.60252,0,0,1-5.06216-11.91568q-.078-1.01255-.11644-2.06378-.03932-1.05189-.03911-2.06379v-.07863ZM177.8375,67.74948,166.156,124.13655h14.71981l8.56711-42.91335,10.43583,42.91335H221.9978L234.225,67.74948H219.50518L210.315,108.17064,200.5018,67.74948Zm65.65545,0h26.324q1.01256.078,2.02513.11645,1.01254.03931,2.02512.11687a26.81752,26.81752,0,0,1,11.1375,3.11524q5.06216,2.727,5.06216,10.20294,0,12.38338-7.86585,17.83505a31.72437,31.72437,0,0,1-18.5363,5.45188l-11.60414-.07777-4.284,19.626h-15.9659L243.493,67.74948ZM263.1198,93.4504a8.8199,8.8199,0,0,0,6.11316-2.14156,9.71641,9.71641,0,0,0,3.31031-4.86708,6.1417,6.1417,0,0,0,.23417-.93457,5.76108,5.76108,0,0,0,.07734-.93457,4.72922,4.72922,0,0,0-1.67448-3.62184q-1.67514-1.51852-5.647-1.51852l-7.94406-.0782L254.474,93.45083h8.64576Zm26.94657,15.96634v.07778q0,1.24653.07821,2.68726a25.6865,25.6865,0,0,0,.31151,2.84282,14.62554,14.62554,0,0,0,3.30947,7.12636q2.68768,3.23169,9.77411,3.23212a20.65256,20.65256,0,0,0,4.20622-.38973,14.11557,14.11557,0,0,0,3.66008-1.32386,17.37933,17.37933,0,0,0,2.68684-1.986,28.50243,28.50243,0,0,0,2.92058-3.077l-4.284,20.87252h14.72024l11.68193-54.59528H324.41177l-1.24611,4.98438q-.23333-.3893-.4675-.74035-.234-.35-.54485-.73949A19.00972,19.00972,0,0,0,318.22,84.76642a9.293,9.293,0,0,0-5.491-1.6745q-10.28028.38929-15.18688,6.30825a31.19793,31.19793,0,0,0-6.54244,12.92845q-.38929,1.86914-.623,3.66094-.23134,1.79179-.31023,3.42718Zm15.88857-4.284v.0782q.156-1.09054.46706-2.45309a19.77848,19.77848,0,0,1,.85636-2.76547,17.70954,17.70954,0,0,1,2.921-5.2568,6.0507,6.0507,0,0,1,4.94527-2.37488q3.349,0,4.51731,2.29668a11.09577,11.09577,0,0,1,1.1679,5.10168,21.78906,21.78906,0,0,1-.19465,2.92059,12.53206,12.53206,0,0,1-.584,2.53129q-1.79115,6.85266-4.16669,8.95641a8.23389,8.23389,0,0,1-5.64653,2.10247q-2.80369,0-3.85515-1.86872a8.91986,8.91986,0,0,1-1.051-4.43953q0-.62327.03824-1.207.0393-.58395.11731-1.207.078-.54527.19464-1.16875Q305.79878,105.75623,305.95494,105.13276Z" style="fill:#fff;fill-rule:evenodd"/></svg>