<svg xmlns="http://www.w3.org/2000/svg" viewBox="0 0 116.5 86.5"><defs><style>.cls-1,.cls-4,.cls-7,.cls-9{font-size:12px;font-family:MyriadPro-Regular, Myriad Pro;}.cls-1{fill:#ccc;}.cls-12,.cls-2,.cls-3,.cls-5,.cls-8{fill:none;stroke-miterlimit:10;}.cls-2{stroke:#000;}.cls-3{stroke:#ccc;}.cls-4,.cls-6{fill:#39b54a;}.cls-5{stroke:#39b54a;}.cls-11,.cls-7{fill:#c1272d;}.cls-8{stroke:#c1272d;}.cls-10,.cls-9{fill:#0071bc;}.cls-12{stroke:#0071bc;}</style></defs><g id="Camada_2" data-name="Camada 2"><g id="Camada_1-2" data-name="Camada 1"><text class="cls-1" transform="translate(54.61 43.83)">C</text><line class="cls-2" x1="58.5" y1="33.5" x2="58.5" y2="17.5"/><line class="cls-2" x1="59" y1="62.5" x2="59" y2="46.5"/><line class="cls-3" x1="58.5" y1="33.5" x2="58.5" y2="17.5"/><line class="cls-3" x1="59" y1="62.5" x2="59" y2="46.5"/><line class="cls-3" x1="65.25" y1="39.75" x2="81.25" y2="39.75"/><line class="cls-3" x1="36.25" y1="40.25" x2="52.25" y2="40.25"/><text class="cls-4" transform="translate(27.7 43.9)">N</text><text class="cls-1" transform="translate(54.36 16.62)">H</text><line class="cls-5" x1="21" y1="25" x2="26.5" y2="33.93"/><line class="cls-5" x1="20.95" y1="54.56" x2="26.45" y2="45.64"/><text class="cls-4" transform="translate(13.3 23.7)">H</text><text class="cls-4" transform="translate(12.4 63.62)">H</text><path class="cls-6" d="M11.31,72.75a3.1,3.1,0,0,1-1,.19A1.76,1.76,0,0,1,9,72.49a1.74,1.74,0,0,1-.47-1.26,1.7,1.7,0,0,1,1.83-1.74,2,2,0,0,1,.84.16l-.1.35a1.78,1.78,0,0,0-.75-.14A1.26,1.26,0,0,0,9,71.21a1.24,1.24,0,0,0,1.3,1.36,1.46,1.46,0,0,0,.59-.09v-1H10.2v-.35h1.11Z"/><path class="cls-6" d="M12,71.23c0-.28,0-.53,0-.75h.38l0,.47h0a.73.73,0,0,1,.67-.53l.12,0v.41H13a.61.61,0,0,0-.59.56,1.25,1.25,0,0,0,0,.21V72.9H12Z"/><path class="cls-6" d="M15.62,72.24c0,.25,0,.47,0,.66h-.39l0-.4h0a.9.9,0,0,1-.8.46c-.38,0-.83-.22-.83-1.07V70.48H14v1.34c0,.46.14.77.54.77a.65.65,0,0,0,.58-.4.85.85,0,0,0,0-.23V70.48h.44Z"/><path class="cls-6" d="M16.35,71.27c0-.31,0-.56,0-.79h.39l0,.41h0a1,1,0,0,1,.86-.47,1.1,1.1,0,0,1,1,1.23A1.15,1.15,0,0,1,17.54,73a.87.87,0,0,1-.75-.39h0v1.32h-.43Zm.43.64a.9.9,0,0,0,0,.18.68.68,0,0,0,.66.52c.47,0,.74-.38.74-.94s-.26-.9-.72-.9a.72.72,0,0,0-.67.55,1,1,0,0,0,0,.18Z"/><path class="cls-6" d="M20.53,72.9l0-.31h0a.89.89,0,0,1-.74.37.69.69,0,0,1-.74-.7c0-.59.52-.91,1.46-.9v0a.5.5,0,0,0-.55-.56,1.19,1.19,0,0,0-.63.18l-.1-.29a1.5,1.5,0,0,1,.79-.22c.74,0,.92.51.92,1v.91a3.45,3.45,0,0,0,0,.58Zm-.06-1.24c-.48,0-1,.08-1,.55a.39.39,0,0,0,.42.42.6.6,0,0,0,.58-.41.32.32,0,0,0,0-.14Z"/><path class="cls-6" d="M21.6,71.13c0-.25,0-.45,0-.65H22l0,.39h0a.84.84,0,0,1,.76-.45.72.72,0,0,1,.69.49h0a1.09,1.09,0,0,1,.27-.32.85.85,0,0,1,.54-.17c.32,0,.79.21.79,1V72.9h-.43V71.53c0-.47-.17-.75-.52-.75a.59.59,0,0,0-.53.4.73.73,0,0,0,0,.22v1.5h-.43V71.45c0-.39-.17-.67-.51-.67a.6.6,0,0,0-.54.44.54.54,0,0,0,0,.22V72.9H21.6Z"/><path class="cls-6" d="M26,71.77a.78.78,0,0,0,.83.84,1.62,1.62,0,0,0,.67-.13l.07.32a1.93,1.93,0,0,1-.8.15,1.12,1.12,0,0,1-1.19-1.22,1.18,1.18,0,0,1,1.13-1.31,1,1,0,0,1,1,1.14,1.22,1.22,0,0,1,0,.21Zm1.29-.32a.63.63,0,0,0-.61-.71.73.73,0,0,0-.68.71Z"/><path class="cls-6" d="M28.28,71.13c0-.25,0-.45,0-.65h.39l0,.4h0a.89.89,0,0,1,.8-.46c.34,0,.86.2.86,1V72.9H29.9V71.5c0-.39-.15-.71-.56-.71a.61.61,0,0,0-.59.45.6.6,0,0,0,0,.2V72.9h-.44Z"/><path class="cls-6" d="M31.56,69.78v.7h.63v.33h-.63v1.31c0,.3.09.47.33.47a1.32,1.32,0,0,0,.26,0l0,.33a1.22,1.22,0,0,1-.39.06.62.62,0,0,1-.48-.19.91.91,0,0,1-.17-.63V70.81h-.37v-.33h.37V69.9Z"/><path class="cls-6" d="M34.85,71.67A1.19,1.19,0,0,1,33.64,73a1.16,1.16,0,0,1-1.16-1.25,1.19,1.19,0,0,1,1.2-1.29A1.15,1.15,0,0,1,34.85,71.67Zm-1.92,0c0,.53.3.93.73.93s.74-.39.74-.94-.21-.93-.73-.93S32.93,71.23,32.93,71.69Z"/><path class="cls-6" d="M16.77,78.9l0-.31h0A.89.89,0,0,1,16,79a.69.69,0,0,1-.74-.7c0-.59.52-.91,1.46-.9v0a.5.5,0,0,0-.55-.56,1.19,1.19,0,0,0-.63.18l-.1-.29a1.5,1.5,0,0,1,.79-.22c.74,0,.92.51.92,1v.91a3.45,3.45,0,0,0,0,.58Zm-.06-1.24c-.48,0-1,.08-1,.55a.39.39,0,0,0,.42.42.6.6,0,0,0,.58-.41.32.32,0,0,0,0-.14Z"/><path class="cls-6" d="M17.84,77.13c0-.25,0-.45,0-.65h.39l0,.39h0a.84.84,0,0,1,.76-.45.72.72,0,0,1,.69.49h0a1,1,0,0,1,.27-.32.8.8,0,0,1,.53-.17c.32,0,.8.21.8,1V78.9h-.43V77.53c0-.47-.17-.75-.53-.75a.58.58,0,0,0-.52.4.73.73,0,0,0,0,.22v1.5h-.43V77.45c0-.39-.17-.67-.51-.67a.6.6,0,0,0-.54.44.54.54,0,0,0,0,.22V78.9h-.43Z"/><path class="cls-6" d="M22.5,75.8a.25.25,0,0,1-.28.27A.26.26,0,0,1,22,75.8a.27.27,0,0,1,.27-.28A.26.26,0,0,1,22.5,75.8ZM22,78.9V76.48h.44V78.9Z"/><path class="cls-6" d="M23.18,77.13c0-.25,0-.45,0-.65h.39l0,.4h0a.89.89,0,0,1,.8-.46c.33,0,.85.2.85,1V78.9H24.8V77.5c0-.39-.14-.71-.56-.71a.62.62,0,0,0-.59.45.6.6,0,0,0,0,.2V78.9h-.44Z"/><path class="cls-6" d="M28.15,77.67A1.19,1.19,0,0,1,26.94,79a1.16,1.16,0,0,1-1.16-1.25A1.19,1.19,0,0,1,27,76.42,1.15,1.15,0,0,1,28.15,77.67Zm-1.92,0c0,.53.3.93.73.93s.74-.39.74-.94-.21-.93-.73-.93S26.23,77.23,26.23,77.69Z"/><text class="cls-7" transform="translate(83.35 42.86)">C</text><line class="cls-8" x1="97" y1="24" x2="91.51" y2="32.89"/><line class="cls-8" x1="99" y1="25" x2="93.51" y2="33.89"/><line class="cls-8" x1="97.06" y1="53.52" x2="91.56" y2="44.6"/><text class="cls-7" transform="translate(96.89 22.66)">O</text><text class="cls-7" transform="translate(97.79 62.58)">OH</text><text class="cls-9" transform="translate(56.06 72.62)">R</text><path class="cls-10" d="M50.65,78.42a3.2,3.2,0,0,1-1,.18,1.58,1.58,0,0,1-1.73-1.7,1.69,1.69,0,0,1,1.83-1.74,2.12,2.12,0,0,1,.84.15l-.11.36a1.71,1.71,0,0,0-.74-.15,1.26,1.26,0,0,0-1.36,1.36,1.23,1.23,0,0,0,1.3,1.36,1.4,1.4,0,0,0,.58-.09v-1h-.68V76.8h1.11Z"/><path class="cls-10" d="M51.29,76.9c0-.28,0-.53,0-.75h.39v.47h0a.74.74,0,0,1,.68-.53h.12v.42h-.15a.61.61,0,0,0-.59.56,1.25,1.25,0,0,0,0,.21v1.29h-.44Z"/><path class="cls-10" d="M55,77.91c0,.25,0,.47,0,.66h-.39l0-.4h0a.89.89,0,0,1-.8.45c-.38,0-.84-.21-.84-1.06V76.15h.44v1.34c0,.46.14.77.54.77a.65.65,0,0,0,.59-.4.85.85,0,0,0,0-.23V76.15H55Z"/><path class="cls-10" d="M55.68,76.94c0-.31,0-.56,0-.79h.4l0,.41h0a1,1,0,0,1,.86-.47,1.1,1.1,0,0,1,1,1.23,1.15,1.15,0,0,1-1.1,1.3.85.85,0,0,1-.75-.38h0v1.32h-.44Zm.44.64a.9.9,0,0,0,0,.18.67.67,0,0,0,.66.52c.47,0,.74-.38.74-.94s-.26-.9-.72-.9a.71.71,0,0,0-.67.55.52.52,0,0,0,0,.18Z"/><path class="cls-10" d="M59.87,78.57l0-.31h0a.9.9,0,0,1-.74.36.69.69,0,0,1-.74-.69c0-.59.52-.91,1.45-.9v0a.5.5,0,0,0-.55-.56,1.22,1.22,0,0,0-.63.18l-.1-.29a1.51,1.51,0,0,1,.8-.22c.74,0,.92.51.92,1V78a3.45,3.45,0,0,0,0,.58Zm-.06-1.24c-.49,0-1,.08-1,.55a.39.39,0,0,0,.41.42.6.6,0,0,0,.59-.41.58.58,0,0,0,0-.14Z"/><path class="cls-10" d="M60.94,76.8c0-.25,0-.45,0-.65h.38l0,.39h0a.83.83,0,0,1,.76-.45.72.72,0,0,1,.69.49h0a1,1,0,0,1,.27-.32.8.8,0,0,1,.53-.17c.32,0,.8.21.8,1v1.43H64V77.2c0-.47-.17-.75-.53-.75a.58.58,0,0,0-.52.4.73.73,0,0,0,0,.22v1.5h-.43V77.12c0-.39-.17-.67-.51-.67a.6.6,0,0,0-.55.44.78.78,0,0,0,0,.22v1.46h-.43Z"/><path class="cls-10" d="M65.35,77.44a.78.78,0,0,0,.84.84,1.62,1.62,0,0,0,.67-.13l.07.32a2,2,0,0,1-.81.15,1.13,1.13,0,0,1-1.19-1.22,1.18,1.18,0,0,1,1.14-1.31,1,1,0,0,1,1,1.14c0,.09,0,.16,0,.21Zm1.3-.32a.63.63,0,0,0-.61-.71.72.72,0,0,0-.68.71Z"/><path class="cls-10" d="M67.61,76.8c0-.25,0-.45,0-.65H68l0,.4h0a.87.87,0,0,1,.8-.46c.34,0,.86.2.86,1v1.45h-.44v-1.4c0-.39-.15-.71-.57-.71a.62.62,0,0,0-.59.45.6.6,0,0,0,0,.2v1.46h-.44Z"/><path class="cls-10" d="M70.9,75.45v.7h.63v.33H70.9v1.31c0,.3.08.47.33.47a1.43,1.43,0,0,0,.26,0v.33a1.13,1.13,0,0,1-.39.06.6.6,0,0,1-.47-.19.87.87,0,0,1-.17-.63V76.48h-.38v-.33h.38v-.59Z"/><path class="cls-10" d="M74.19,77.34A1.18,1.18,0,0,1,73,78.62a1.15,1.15,0,0,1-1.16-1.24A1.19,1.19,0,0,1,73,76.09,1.15,1.15,0,0,1,74.19,77.34Zm-1.93,0c0,.53.31.93.74.93s.74-.39.74-.94-.21-.93-.73-.93S72.26,76.9,72.26,77.36Z"/><path class="cls-10" d="M60.07,81.24a4.19,4.19,0,0,1,.84-.07,1.37,1.37,0,0,1,1,.27.84.84,0,0,1,.27.64.89.89,0,0,1-.64.87h0a.84.84,0,0,1,.5.68,5.47,5.47,0,0,0,.26.93h-.45a4.45,4.45,0,0,1-.23-.81c-.1-.46-.28-.64-.67-.65h-.41v1.46h-.44Zm.44,1.54H61c.47,0,.76-.26.76-.64s-.31-.63-.77-.64a1.79,1.79,0,0,0-.43,0Z"/><path class="cls-11" d="M86.65,73.42a3.2,3.2,0,0,1-1,.18,1.58,1.58,0,0,1-1.73-1.7,1.69,1.69,0,0,1,1.83-1.74,2.12,2.12,0,0,1,.84.15l-.11.36a1.71,1.71,0,0,0-.74-.15,1.27,1.27,0,0,0-1.36,1.36,1.23,1.23,0,0,0,1.3,1.36,1.4,1.4,0,0,0,.58-.09v-1h-.68V71.8h1.11Z"/><path class="cls-11" d="M87.29,71.9c0-.28,0-.53,0-.75h.39v.47h0a.74.74,0,0,1,.68-.53l.12,0v.41h-.15a.61.61,0,0,0-.59.56,1.25,1.25,0,0,0,0,.21v1.29h-.44Z"/><path class="cls-11" d="M91,72.91c0,.25,0,.47,0,.66h-.4l0-.4h0a.89.89,0,0,1-.8.45c-.38,0-.84-.21-.84-1.06V71.15h.44v1.34c0,.46.14.77.54.77a.65.65,0,0,0,.59-.4.85.85,0,0,0,0-.23V71.15H91Z"/><path class="cls-11" d="M91.68,71.94c0-.31,0-.56,0-.79h.4l0,.41h0a1,1,0,0,1,.86-.47,1.1,1.1,0,0,1,1,1.23,1.15,1.15,0,0,1-1.11,1.3.83.83,0,0,1-.74-.38h0v1.32h-.44Zm.44.64a.9.9,0,0,0,0,.18.67.67,0,0,0,.66.52c.47,0,.74-.38.74-.94s-.26-.9-.72-.9a.7.7,0,0,0-.67.55.52.52,0,0,0,0,.18Z"/><path class="cls-11" d="M95.87,73.57l0-.31h0a.92.92,0,0,1-.74.36.69.69,0,0,1-.74-.69c0-.59.52-.91,1.45-.9v0a.5.5,0,0,0-.55-.56,1.22,1.22,0,0,0-.63.18l-.1-.29a1.51,1.51,0,0,1,.8-.22c.74,0,.92.51.92,1V73a3.45,3.45,0,0,0,0,.58Zm-.07-1.24c-.48,0-1,.08-1,.55a.39.39,0,0,0,.41.42.6.6,0,0,0,.59-.41.59.59,0,0,0,0-.14Z"/><path class="cls-11" d="M96.94,71.8c0-.25,0-.45,0-.65h.38l0,.39h0a.83.83,0,0,1,.76-.45.72.72,0,0,1,.69.49h0a1,1,0,0,1,.27-.32.8.8,0,0,1,.53-.17c.32,0,.8.21.8,1v1.43H100V72.2c0-.47-.17-.75-.53-.75a.58.58,0,0,0-.52.4.73.73,0,0,0,0,.22v1.5h-.43V72.12c0-.39-.17-.67-.51-.67a.6.6,0,0,0-.55.44.78.78,0,0,0,0,.22v1.46h-.43Z"/><path class="cls-11" d="M101.35,72.44a.78.78,0,0,0,.83.84,1.63,1.63,0,0,0,.68-.13l.07.32a2,2,0,0,1-.81.15,1.13,1.13,0,0,1-1.19-1.22,1.18,1.18,0,0,1,1.14-1.31,1,1,0,0,1,1,1.14c0,.09,0,.16,0,.21Zm1.3-.32a.63.63,0,0,0-.61-.71.72.72,0,0,0-.68.71Z"/><path class="cls-11" d="M103.61,71.8c0-.25,0-.45,0-.65H104l0,.4h0a.89.89,0,0,1,.8-.46c.34,0,.86.2.86,1v1.45h-.44v-1.4c0-.39-.15-.71-.57-.71a.62.62,0,0,0-.59.45.6.6,0,0,0,0,.2v1.46h-.44Z"/><path class="cls-11" d="M106.9,70.45v.7h.63v.33h-.63v1.31c0,.3.08.47.33.47a1.2,1.2,0,0,0,.25,0l0,.33a1.18,1.18,0,0,1-.39.06.6.6,0,0,1-.47-.19.87.87,0,0,1-.17-.63V71.48h-.38v-.33h.38v-.59Z"/><path class="cls-11" d="M110.19,72.34A1.18,1.18,0,0,1,109,73.62a1.15,1.15,0,0,1-1.16-1.24,1.19,1.19,0,0,1,1.2-1.29A1.16,1.16,0,0,1,110.19,72.34Zm-1.93,0c0,.53.31.93.74.93s.74-.39.74-.94-.21-.93-.73-.93S108.26,71.9,108.26,72.36Z"/><path class="cls-11" d="M89.68,79.48a1.65,1.65,0,0,1-.7.14,1.15,1.15,0,0,1-1.2-1.24,1.23,1.23,0,0,1,1.3-1.28,1.48,1.48,0,0,1,.61.12l-.1.34a1,1,0,0,0-.51-.11.91.91,0,0,0,0,1.82,1.31,1.31,0,0,0,.54-.12Z"/><path class="cls-11" d="M91.53,79.57l0-.31h0a.89.89,0,0,1-.74.36.69.69,0,0,1-.74-.69c0-.59.52-.91,1.46-.9v0a.5.5,0,0,0-.55-.56,1.19,1.19,0,0,0-.63.18l-.1-.29a1.5,1.5,0,0,1,.79-.22c.74,0,.92.51.92,1V79a3.45,3.45,0,0,0,0,.58Zm-.06-1.24c-.48,0-1,.08-1,.55a.39.39,0,0,0,.42.42.6.6,0,0,0,.58-.41.32.32,0,0,0,0-.14Z"/><path class="cls-11" d="M92.6,77.9c0-.28,0-.53,0-.75H93v.47h0a.74.74,0,0,1,.67-.53l.13,0v.41h-.15a.61.61,0,0,0-.59.56,1.25,1.25,0,0,0,0,.21v1.29H92.6Z"/><path class="cls-11" d="M94.24,79.57c0-.17,0-.41,0-.63V76h.43v1.53h0a.92.92,0,0,1,.83-.45c.6,0,1,.5,1,1.24a1.15,1.15,0,0,1-1.09,1.29.86.86,0,0,1-.81-.45h0l0,.4Zm.45-1a.88.88,0,0,0,0,.16.68.68,0,0,0,.66.51c.46,0,.74-.37.74-.93s-.25-.9-.72-.9a.71.71,0,0,0-.67.54.84.84,0,0,0,0,.18Z"/><path class="cls-11" d="M99.29,78.34a1.18,1.18,0,0,1-1.2,1.28,1.15,1.15,0,0,1-1.16-1.24,1.19,1.19,0,0,1,1.2-1.29A1.15,1.15,0,0,1,99.29,78.34Zm-1.92,0c0,.53.31.93.74.93s.73-.39.73-.94-.2-.93-.72-.93S97.37,77.9,97.37,78.36Z"/><path class="cls-11" d="M100,77.15l.35.52c.09.13.16.26.24.39h0l.24-.4.34-.51h.47l-.82,1.17.85,1.25h-.5l-.36-.55-.26-.42h0c-.08.15-.16.28-.25.42l-.35.55h-.49l.86-1.24-.82-1.18Z"/><path class="cls-11" d="M102.58,76.46a.26.26,0,0,1-.28.28.28.28,0,0,1,0-.55A.26.26,0,0,1,102.58,76.46Zm-.49,3.11V77.15h.44v2.42Z"/><path class="cls-11" d="M103.26,76h.44v3.56h-.44Z"/><path class="cls-11" d="M105.78,79.57l0-.31h0a.89.89,0,0,1-.74.36.69.69,0,0,1-.74-.69c0-.59.52-.91,1.46-.9v0a.5.5,0,0,0-.55-.56,1.19,1.19,0,0,0-.63.18l-.1-.29a1.5,1.5,0,0,1,.79-.22c.74,0,.92.51.92,1V79a3.45,3.45,0,0,0,0,.58Zm-.06-1.24c-.48,0-1,.08-1,.55a.39.39,0,0,0,.42.42.6.6,0,0,0,.58-.41.32.32,0,0,0,0-.14Z"/><rect class="cls-5" x="0.5" y="0.5" width="43.5" height="81.5"/><rect class="cls-12" x="47" y="54" width="29" height="32"/><rect class="cls-8" x="78" y="11" width="38" height="72"/></g></g></svg>