<svg xmlns="http://www.w3.org/2000/svg" viewBox="0 0 116.5 86.5"><defs><style>.cls-1,.cls-4,.cls-7,.cls-9{font-size:12px;}.cls-1{fill:#ccc;}.cls-1,.cls-4,.cls-7{font-family:ArialMT, Arial;}.cls-12,.cls-2,.cls-3,.cls-5,.cls-8{fill:none;stroke-miterlimit:10;}.cls-2{stroke:#000;}.cls-3{stroke:#ccc;}.cls-4,.cls-6{fill:#39b54a;}.cls-5{stroke:#39b54a;}.cls-11,.cls-7{fill:#c1272d;}.cls-8{stroke:#c1272d;}.cls-10,.cls-9{fill:#0071bc;}.cls-9{font-family:MyriadPro-Regular, Myriad Pro;}.cls-12{stroke:#0071bc;}</style></defs><g id="Camada_2" data-name="Camada 2"><g id="Camada_1-2" data-name="Camada 1"><text class="cls-1" transform="translate(54.61 43.83)">C</text><line class="cls-2" x1="58.5" y1="33.5" x2="58.5" y2="17.5"/><line class="cls-2" x1="59" y1="62.5" x2="59" y2="46.5"/><line class="cls-3" x1="58.5" y1="33.5" x2="58.5" y2="17.5"/><line class="cls-3" x1="59" y1="62.5" x2="59" y2="46.5"/><line class="cls-3" x1="65.25" y1="39.75" x2="81.25" y2="39.75"/><line class="cls-3" x1="36.25" y1="40.25" x2="52.25" y2="40.25"/><text class="cls-4" transform="translate(27.7 43.9)">N</text><text class="cls-1" transform="translate(54.36 16.62)">H</text><line class="cls-5" x1="21" y1="25" x2="26.5" y2="33.93"/><line class="cls-5" x1="20.95" y1="54.56" x2="26.45" y2="45.64"/><text class="cls-4" transform="translate(13.3 23.7)">H</text><text class="cls-4" transform="translate(12.4 63.62)">H</text><path class="cls-6" d="M9.86,71.5v-.42h1.52V72.4a2.42,2.42,0,0,1-.72.42A2.22,2.22,0,0,1,9.9,73a2,2,0,0,1-1-.23,1.46,1.46,0,0,1-.65-.65,2,2,0,0,1-.22-1,2.17,2.17,0,0,1,.22-1,1.42,1.42,0,0,1,.63-.67,1.92,1.92,0,0,1,.94-.22,1.75,1.75,0,0,1,.7.13,1.16,1.16,0,0,1,.5.35,1.84,1.84,0,0,1,.27.58l-.43.12a1.23,1.23,0,0,0-.2-.43.82.82,0,0,0-.34-.25,1.35,1.35,0,0,0-.5-.09,1.6,1.6,0,0,0-.56.09,1.34,1.34,0,0,0-.38.26,1.38,1.38,0,0,0-.23.36,1.88,1.88,0,0,0-.13.72,1.76,1.76,0,0,0,.16.8,1.11,1.11,0,0,0,.48.48,1.56,1.56,0,0,0,.67.15,1.73,1.73,0,0,0,.6-.11,1.52,1.52,0,0,0,.45-.26V71.5Z"/><path class="cls-6" d="M12,72.9V70.31h.39v.39a1.17,1.17,0,0,1,.28-.36.49.49,0,0,1,.28-.09.94.94,0,0,1,.46.14l-.16.41a.55.55,0,0,0-.32-.1.43.43,0,0,0-.26.09.51.51,0,0,0-.16.24,1.7,1.7,0,0,0-.07.51V72.9Z"/><path class="cls-6" d="M15.39,72.9v-.38a1,1,0,0,1-.83.44,1,1,0,0,1-.42-.09.65.65,0,0,1-.3-.22,1,1,0,0,1-.14-.33,3.52,3.52,0,0,1,0-.41v-1.6h.44v1.44a4.17,4.17,0,0,0,0,.46.47.47,0,0,0,.18.27.52.52,0,0,0,.33.1.69.69,0,0,0,.37-.1.57.57,0,0,0,.25-.28,1.29,1.29,0,0,0,.07-.5V70.31h.44V72.9Z"/><path class="cls-6" d="M16.47,73.89V70.31h.4v.33a.88.88,0,0,1,.32-.29.83.83,0,0,1,.43-.1,1.07,1.07,0,0,1,.59.17,1,1,0,0,1,.38.48,1.72,1.72,0,0,1,.13.68,1.81,1.81,0,0,1-.14.72,1.13,1.13,0,0,1-.42.49,1.08,1.08,0,0,1-.57.17.87.87,0,0,1-.4-.09.94.94,0,0,1-.28-.24v1.26Zm.4-2.27a1.11,1.11,0,0,0,.2.74.62.62,0,0,0,.49.24.66.66,0,0,0,.5-.25,1.18,1.18,0,0,0,.21-.77,1.17,1.17,0,0,0-.2-.74.61.61,0,0,0-.49-.25.66.66,0,0,0-.5.26A1.22,1.22,0,0,0,16.87,71.62Z"/><path class="cls-6" d="M20.94,72.58a1.43,1.43,0,0,1-.47.29A1.28,1.28,0,0,1,20,73a.93.93,0,0,1-.66-.21.7.7,0,0,1-.23-.53.68.68,0,0,1,.09-.35.6.6,0,0,1,.22-.25.94.94,0,0,1,.32-.15l.39-.06a4.1,4.1,0,0,0,.78-.16.59.59,0,0,0,0-.11.46.46,0,0,0-.13-.38.73.73,0,0,0-.5-.15.82.82,0,0,0-.46.11.66.66,0,0,0-.21.39l-.43-.06a.93.93,0,0,1,.19-.45.86.86,0,0,1,.39-.26,1.74,1.74,0,0,1,.59-.09,1.31,1.31,0,0,1,.53.08.71.71,0,0,1,.31.19.83.83,0,0,1,.14.3,3.38,3.38,0,0,1,0,.41v.58a5.92,5.92,0,0,0,0,.78.89.89,0,0,0,.11.31H21A.8.8,0,0,1,20.94,72.58Zm0-1a3.16,3.16,0,0,1-.71.16,2.3,2.3,0,0,0-.39.09.41.41,0,0,0-.17.15.36.36,0,0,0-.06.2.38.38,0,0,0,.13.3.57.57,0,0,0,.39.11.84.84,0,0,0,.45-.11.65.65,0,0,0,.29-.3,1,1,0,0,0,.07-.44Z"/><path class="cls-6" d="M22,72.9V70.31h.39v.36a.9.9,0,0,1,.33-.31,1,1,0,0,1,.46-.11.84.84,0,0,1,.47.12.66.66,0,0,1,.26.33.94.94,0,0,1,.8-.45.81.81,0,0,1,.6.21,1,1,0,0,1,.2.66V72.9h-.43V71.27a1.07,1.07,0,0,0-.05-.38.4.4,0,0,0-.15-.19.47.47,0,0,0-.27-.07.61.61,0,0,0-.45.18.81.81,0,0,0-.18.58V72.9h-.44V71.22a.73.73,0,0,0-.11-.44.4.4,0,0,0-.35-.15.59.59,0,0,0-.34.1.53.53,0,0,0-.23.28,1.57,1.57,0,0,0-.07.54V72.9Z"/><path class="cls-6" d="M28,72.06l.45.06a1.11,1.11,0,0,1-.39.62,1.21,1.21,0,0,1-.75.22,1.19,1.19,0,0,1-.9-.35,1.38,1.38,0,0,1-.33-1,1.41,1.41,0,0,1,.34-1,1.22,1.22,0,0,1,1.72,0,1.42,1.42,0,0,1,.33,1v.12H26.5a1,1,0,0,0,.24.65.75.75,0,0,0,.55.23.71.71,0,0,0,.41-.13A.86.86,0,0,0,28,72.06Zm-1.44-.71H28a.84.84,0,0,0-.16-.49.67.67,0,0,0-.55-.25.73.73,0,0,0-.51.2A.83.83,0,0,0,26.53,71.35Z"/><path class="cls-6" d="M29,72.9V70.31h.39v.37a.93.93,0,0,1,.83-.43,1.22,1.22,0,0,1,.43.08.68.68,0,0,1,.29.22.89.89,0,0,1,.14.33,3.66,3.66,0,0,1,0,.43V72.9h-.44V71.32a1,1,0,0,0-.05-.4.37.37,0,0,0-.18-.21.62.62,0,0,0-.31-.08.7.7,0,0,0-.48.18.85.85,0,0,0-.2.67V72.9Z"/><path class="cls-6" d="M32.72,72.51l.06.39-.33,0a.74.74,0,0,1-.37-.07.46.46,0,0,1-.19-.2,1.51,1.51,0,0,1-.05-.52V70.65h-.33v-.34h.33v-.64l.43-.27v.91h.45v.34h-.45v1.52a.62.62,0,0,0,0,.24.18.18,0,0,0,.07.08.33.33,0,0,0,.15,0Z"/><path class="cls-6" d="M33,71.6a1.34,1.34,0,0,1,.4-1.06,1.19,1.19,0,0,1,.82-.29,1.17,1.17,0,0,1,.87.35,1.32,1.32,0,0,1,.34,1,1.69,1.69,0,0,1-.15.78,1,1,0,0,1-.44.45,1.22,1.22,0,0,1-.62.16,1.16,1.16,0,0,1-.88-.35A1.37,1.37,0,0,1,33,71.6Zm.45,0a1.14,1.14,0,0,0,.22.75.73.73,0,0,0,.55.25.69.69,0,0,0,.54-.25,1.11,1.11,0,0,0,.22-.76,1.06,1.06,0,0,0-.22-.73.68.68,0,0,0-.54-.25.7.7,0,0,0-.55.25A1.11,1.11,0,0,0,33.43,71.6Z"/><path class="cls-6" d="M16.91,78.58a1.43,1.43,0,0,1-.47.29A1.28,1.28,0,0,1,16,79a.93.93,0,0,1-.66-.21.7.7,0,0,1-.23-.53.68.68,0,0,1,.09-.35.62.62,0,0,1,.23-.25.81.81,0,0,1,.31-.15l.39-.06a4.43,4.43,0,0,0,.79-.16v-.11a.46.46,0,0,0-.13-.38.73.73,0,0,0-.5-.15.76.76,0,0,0-.45.11.61.61,0,0,0-.22.39l-.43-.06a1,1,0,0,1,.19-.45.86.86,0,0,1,.39-.26,1.74,1.74,0,0,1,.59-.09,1.4,1.4,0,0,1,.54.08.68.68,0,0,1,.3.19.7.7,0,0,1,.14.3,3.38,3.38,0,0,1,0,.41v.58a5.92,5.92,0,0,0,0,.78.89.89,0,0,0,.11.31H17A1.35,1.35,0,0,1,16.91,78.58Zm0-1a3.27,3.27,0,0,1-.72.16,2.3,2.3,0,0,0-.39.09.41.41,0,0,0-.17.15.36.36,0,0,0-.06.2.38.38,0,0,0,.13.3.57.57,0,0,0,.39.11.84.84,0,0,0,.45-.11.67.67,0,0,0,.3-.3,1.22,1.22,0,0,0,.07-.44Z"/><path class="cls-6" d="M18,78.9V76.31h.39v.36a.9.9,0,0,1,.79-.42.84.84,0,0,1,.47.12.61.61,0,0,1,.26.33,1,1,0,0,1,.8-.45.81.81,0,0,1,.6.21.9.9,0,0,1,.2.66V78.9h-.43V77.27a1.49,1.49,0,0,0,0-.38.42.42,0,0,0-.16-.19.44.44,0,0,0-.26-.07.62.62,0,0,0-.46.18.81.81,0,0,0-.18.58V78.9h-.44V77.22a.66.66,0,0,0-.11-.44.39.39,0,0,0-.35-.15.59.59,0,0,0-.34.1.53.53,0,0,0-.23.28,1.57,1.57,0,0,0-.07.54V78.9Z"/><path class="cls-6" d="M22.17,75.83v-.51h.44v.51Zm0,3.07V76.31h.44V78.9Z"/><path class="cls-6" d="M23.28,78.9V76.31h.39v.37a.93.93,0,0,1,.83-.43,1.22,1.22,0,0,1,.43.08.68.68,0,0,1,.29.22.89.89,0,0,1,.14.33,2.26,2.26,0,0,1,0,.43V78.9h-.44V77.32a1,1,0,0,0-.05-.4.37.37,0,0,0-.18-.21.61.61,0,0,0-.3-.08.72.72,0,0,0-.49.18.85.85,0,0,0-.2.67V78.9Z"/><path class="cls-6" d="M25.89,77.6a1.34,1.34,0,0,1,.4-1.06,1.19,1.19,0,0,1,.82-.29,1.15,1.15,0,0,1,.87.35,1.32,1.32,0,0,1,.34,1,1.69,1.69,0,0,1-.15.78,1,1,0,0,1-.43.45,1.23,1.23,0,0,1-.63.16,1.17,1.17,0,0,1-.88-.35A1.42,1.42,0,0,1,25.89,77.6Zm.46,0a1.14,1.14,0,0,0,.21.75.73.73,0,0,0,.55.25.69.69,0,0,0,.54-.25,1.11,1.11,0,0,0,.22-.76,1.06,1.06,0,0,0-.22-.73.66.66,0,0,0-.54-.25.7.7,0,0,0-.55.25A1.11,1.11,0,0,0,26.35,77.6Z"/><text class="cls-7" transform="translate(83.35 42.86)">C</text><line class="cls-8" x1="97" y1="24" x2="91.51" y2="32.89"/><line class="cls-8" x1="99" y1="25" x2="93.51" y2="33.89"/><line class="cls-8" x1="97.06" y1="53.52" x2="91.56" y2="44.6"/><text class="cls-7" transform="translate(96.89 22.66)">O</text><text class="cls-7" transform="translate(97.79 62.58)">OH</text><text class="cls-9" transform="translate(56.06 72.62)">R</text><path class="cls-10" d="M49.2,77.16v-.42h1.52v1.33a3.36,3.36,0,0,1-.72.42,2.28,2.28,0,0,1-.77.14,2,2,0,0,1-.95-.23,1.46,1.46,0,0,1-.65-.65,2,2,0,0,1-.22-1,2.29,2.29,0,0,1,.21-1,1.47,1.47,0,0,1,.63-.67,2,2,0,0,1,1-.22,1.94,1.94,0,0,1,.7.12,1.21,1.21,0,0,1,.49.35,1.54,1.54,0,0,1,.27.59l-.42.12a1.58,1.58,0,0,0-.2-.43.77.77,0,0,0-.35-.25,1.1,1.1,0,0,0-.49-.1,1.56,1.56,0,0,0-.56.1,1,1,0,0,0-.38.26,1.16,1.16,0,0,0-.23.36,1.89,1.89,0,0,0-.14.72,1.78,1.78,0,0,0,.17.8,1,1,0,0,0,.48.47,1.41,1.41,0,0,0,.67.16,1.76,1.76,0,0,0,1-.37v-.67Z"/><path class="cls-10" d="M51.35,78.57V76h.4v.4A1,1,0,0,1,52,76a.54.54,0,0,1,.28-.08.79.79,0,0,1,.45.14l-.15.41a.57.57,0,0,0-.32-.1.41.41,0,0,0-.26.09.38.38,0,0,0-.16.24,1.6,1.6,0,0,0-.08.51v1.36Z"/><path class="cls-10" d="M54.72,78.57v-.38a1,1,0,0,1-.82.44,1,1,0,0,1-.43-.09.68.68,0,0,1-.29-.22A.82.82,0,0,1,53,78a2,2,0,0,1,0-.41V76h.44v1.44a2.37,2.37,0,0,0,0,.47.5.5,0,0,0,.18.27.59.59,0,0,0,.33.1.82.82,0,0,0,.37-.1.55.55,0,0,0,.24-.28,1.36,1.36,0,0,0,.08-.51V76h.44v2.6Z"/><path class="cls-10" d="M55.8,79.56V76h.4v.34a1.27,1.27,0,0,1,.32-.3,1,1,0,0,1,.44-.09,1,1,0,0,1,.58.17,1,1,0,0,1,.39.48,1.87,1.87,0,0,1,.13.68,1.66,1.66,0,0,1-.15.72,1.1,1.1,0,0,1-.41.49,1.12,1.12,0,0,1-.58.17.76.76,0,0,1-.39-.1,1,1,0,0,1-.29-.23v1.26Zm.4-2.27a1.17,1.17,0,0,0,.2.74.62.62,0,0,0,.5.23.65.65,0,0,0,.5-.24,1.18,1.18,0,0,0,.21-.77,1.11,1.11,0,0,0-.21-.74.59.59,0,0,0-.48-.25.64.64,0,0,0-.5.26A1.16,1.16,0,0,0,56.2,77.29Z"/><path class="cls-10" d="M60.28,78.25a1.77,1.77,0,0,1-.47.29,1.33,1.33,0,0,1-.49.09.92.92,0,0,1-.65-.21.68.68,0,0,1-.23-.54.66.66,0,0,1,.08-.34.83.83,0,0,1,.23-.26,1,1,0,0,1,.32-.14,2.86,2.86,0,0,1,.39-.07,3.83,3.83,0,0,0,.78-.15v-.11a.49.49,0,0,0-.12-.38.73.73,0,0,0-.5-.15.8.8,0,0,0-.46.11.66.66,0,0,0-.22.38l-.43-.06a1.19,1.19,0,0,1,.19-.44.86.86,0,0,1,.39-.26,1.78,1.78,0,0,1,.59-.09,1.65,1.65,0,0,1,.54.07.83.83,0,0,1,.31.2.69.69,0,0,1,.13.3,2,2,0,0,1,0,.41v.58a5.92,5.92,0,0,0,0,.78,1.28,1.28,0,0,0,.11.31h-.46A1,1,0,0,1,60.28,78.25Zm0-1a3.27,3.27,0,0,1-.72.16,1.93,1.93,0,0,0-.38.09.34.34,0,0,0-.17.14.4.4,0,0,0-.07.21.36.36,0,0,0,.14.29.57.57,0,0,0,.39.12.94.94,0,0,0,.45-.11.65.65,0,0,0,.29-.3,1,1,0,0,0,.07-.44Z"/><path class="cls-10" d="M61.37,78.57V76h.39v.37a1,1,0,0,1,.32-.31.9.9,0,0,1,.46-.11A.88.88,0,0,1,63,76a.66.66,0,0,1,.26.33.92.92,0,0,1,.8-.45.79.79,0,0,1,.59.21.9.9,0,0,1,.21.66v1.78h-.44V76.93a1.21,1.21,0,0,0,0-.38.39.39,0,0,0-.16-.18A.44.44,0,0,0,64,76.3a.61.61,0,0,0-.45.18.79.79,0,0,0-.18.58v1.51h-.44V76.88a.77.77,0,0,0-.11-.44.42.42,0,0,0-.35-.14.7.7,0,0,0-.35.09.54.54,0,0,0-.22.29,1.57,1.57,0,0,0-.07.54v1.35Z"/><path class="cls-10" d="M67.31,77.73l.45.06a1.11,1.11,0,0,1-.4.62,1.23,1.23,0,0,1-.74.22,1.19,1.19,0,0,1-.9-.35,1.41,1.41,0,0,1-.34-1,1.45,1.45,0,0,1,.34-1,1.16,1.16,0,0,1,.88-.36,1.1,1.1,0,0,1,.85.35,1.42,1.42,0,0,1,.32,1v.11H65.84a1,1,0,0,0,.24.66.73.73,0,0,0,.54.22.74.74,0,0,0,.42-.12A.92.92,0,0,0,67.31,77.73ZM65.86,77h1.45a.81.81,0,0,0-.17-.49.66.66,0,0,0-.54-.25.69.69,0,0,0-.51.2A.84.84,0,0,0,65.86,77Z"/><path class="cls-10" d="M68.31,78.57V76h.4v.37a.93.93,0,0,1,.82-.42A1,1,0,0,1,70,76a.78.78,0,0,1,.3.22.82.82,0,0,1,.13.33,2,2,0,0,1,0,.42v1.6H70V77a1.3,1.3,0,0,0,0-.4.46.46,0,0,0-.18-.21.53.53,0,0,0-.31-.08.68.68,0,0,0-.48.18.84.84,0,0,0-.21.67v1.42Z"/><path class="cls-10" d="M72.05,78.17l.07.39a1.48,1.48,0,0,1-.34,0,.76.76,0,0,1-.37-.07.38.38,0,0,1-.18-.2,1.47,1.47,0,0,1-.06-.52V76.32h-.32V76h.32v-.64l.44-.26V76h.44v.35h-.44v1.51a1,1,0,0,0,0,.24.18.18,0,0,0,.08.09.28.28,0,0,0,.15,0A.72.72,0,0,0,72.05,78.17Z"/><path class="cls-10" d="M72.32,77.27a1.35,1.35,0,0,1,.4-1.07,1.19,1.19,0,0,1,.81-.28,1.15,1.15,0,0,1,.88.35,1.34,1.34,0,0,1,.34,1,1.71,1.71,0,0,1-.15.79,1.12,1.12,0,0,1-.44.45,1.34,1.34,0,0,1-.63.16,1.19,1.19,0,0,1-.88-.35A1.43,1.43,0,0,1,72.32,77.27Zm.45,0A1.1,1.1,0,0,0,73,78a.68.68,0,0,0,.54.24.72.72,0,0,0,.55-.24,1.17,1.17,0,0,0,.22-.76,1.1,1.1,0,0,0-.22-.73.7.7,0,0,0-.55-.25.66.66,0,0,0-.54.25A1.06,1.06,0,0,0,72.77,77.27Z"/><path class="cls-10" d="M59.62,84.57V81h1.59a2.28,2.28,0,0,1,.73.09.84.84,0,0,1,.4.35,1,1,0,0,1,.14.53.93.93,0,0,1-.24.65,1.31,1.31,0,0,1-.76.33,1.13,1.13,0,0,1,.28.18,2.4,2.4,0,0,1,.4.47l.62,1h-.6l-.47-.75c-.14-.21-.25-.38-.34-.49a1.34,1.34,0,0,0-.24-.24.51.51,0,0,0-.22-.09.87.87,0,0,0-.26,0H60.1v1.59Zm.48-2h1a1.36,1.36,0,0,0,.5-.07.51.51,0,0,0,.28-.21A.64.64,0,0,0,62,82a.52.52,0,0,0-.19-.41.84.84,0,0,0-.58-.17H60.1Z"/><path class="cls-11" d="M85.2,72.16v-.42h1.52v1.33a2.69,2.69,0,0,1-.72.42,2.28,2.28,0,0,1-.77.14,2,2,0,0,1-1-.23,1.53,1.53,0,0,1-.66-.65,2.11,2.11,0,0,1-.21-1,2.3,2.3,0,0,1,.21-1,1.47,1.47,0,0,1,.63-.67,2,2,0,0,1,1-.22,1.94,1.94,0,0,1,.7.12,1.21,1.21,0,0,1,.49.35,1.54,1.54,0,0,1,.27.59l-.42.12a1.58,1.58,0,0,0-.2-.43.77.77,0,0,0-.35-.25,1.13,1.13,0,0,0-.49-.1,1.56,1.56,0,0,0-.56.1,1,1,0,0,0-.38.26,1.16,1.16,0,0,0-.23.36,1.89,1.89,0,0,0-.14.72,1.78,1.78,0,0,0,.17.8,1.11,1.11,0,0,0,.48.48,1.53,1.53,0,0,0,.67.15,1.76,1.76,0,0,0,1-.37v-.67Z"/><path class="cls-11" d="M87.35,73.57V71h.4v.39A1,1,0,0,1,88,71a.54.54,0,0,1,.28-.08.79.79,0,0,1,.45.14l-.15.41a.57.57,0,0,0-.32-.1.41.41,0,0,0-.26.09.45.45,0,0,0-.16.24,1.6,1.6,0,0,0-.08.51v1.36Z"/><path class="cls-11" d="M90.72,73.57v-.38a1,1,0,0,1-.82.44,1,1,0,0,1-.43-.09.68.68,0,0,1-.29-.22A.82.82,0,0,1,89,73a1.94,1.94,0,0,1,0-.41V71h.44v1.43a2.37,2.37,0,0,0,0,.47.5.5,0,0,0,.18.27.52.52,0,0,0,.33.1.82.82,0,0,0,.37-.1.55.55,0,0,0,.24-.28,1.32,1.32,0,0,0,.08-.51V71h.44v2.59Z"/><path class="cls-11" d="M91.8,74.56V71h.4v.33a1.07,1.07,0,0,1,.32-.29.87.87,0,0,1,.44-.1,1,1,0,0,1,.58.17,1,1,0,0,1,.39.48,1.87,1.87,0,0,1,.12.68,1.65,1.65,0,0,1-.14.72,1.1,1.1,0,0,1-.41.49,1.12,1.12,0,0,1-.58.17.76.76,0,0,1-.39-.1,1,1,0,0,1-.29-.23v1.26Zm.4-2.27a1.17,1.17,0,0,0,.2.74.63.63,0,0,0,.5.24.66.66,0,0,0,.5-.25,1.18,1.18,0,0,0,.21-.77,1.11,1.11,0,0,0-.21-.74.59.59,0,0,0-.48-.25.64.64,0,0,0-.5.26A1.16,1.16,0,0,0,92.2,72.29Z"/><path class="cls-11" d="M96.28,73.25a1.77,1.77,0,0,1-.47.29,1.33,1.33,0,0,1-.49.09.92.92,0,0,1-.65-.21.68.68,0,0,1-.23-.54.66.66,0,0,1,.08-.34.83.83,0,0,1,.23-.26,1,1,0,0,1,.32-.14,2.86,2.86,0,0,1,.39-.07,3.83,3.83,0,0,0,.78-.15v-.11a.49.49,0,0,0-.12-.38.73.73,0,0,0-.5-.15.8.8,0,0,0-.46.11.66.66,0,0,0-.22.38l-.43-.06a1.19,1.19,0,0,1,.19-.44.86.86,0,0,1,.39-.26,1.78,1.78,0,0,1,.59-.09,1.65,1.65,0,0,1,.54.07.83.83,0,0,1,.31.2.69.69,0,0,1,.13.3,2,2,0,0,1,0,.41v.58a5.92,5.92,0,0,0,0,.78,1.28,1.28,0,0,0,.11.31h-.46A1,1,0,0,1,96.28,73.25Zm0-1a3.27,3.27,0,0,1-.72.16,1.93,1.93,0,0,0-.38.09.34.34,0,0,0-.17.14.35.35,0,0,0-.07.21.39.39,0,0,0,.14.3.62.62,0,0,0,.39.11.84.84,0,0,0,.45-.11.65.65,0,0,0,.29-.3,1,1,0,0,0,.07-.44Z"/><path class="cls-11" d="M97.37,73.57V71h.39v.36a1,1,0,0,1,.32-.31,1,1,0,0,1,.46-.11A.88.88,0,0,1,99,71a.66.66,0,0,1,.26.33.92.92,0,0,1,.8-.45.8.8,0,0,1,.59.21.9.9,0,0,1,.21.66v1.78h-.44V71.93a1.1,1.1,0,0,0,0-.37.37.37,0,0,0-.16-.19.44.44,0,0,0-.26-.07.61.61,0,0,0-.45.18.79.79,0,0,0-.18.58v1.51h-.44V71.88a.77.77,0,0,0-.11-.44.42.42,0,0,0-.35-.14.62.62,0,0,0-.35.1.52.52,0,0,0-.22.28,1.54,1.54,0,0,0-.08.54v1.35Z"/><path class="cls-11" d="M103.31,72.73l.45.06a1.11,1.11,0,0,1-.4.62,1.23,1.23,0,0,1-.74.22,1.19,1.19,0,0,1-.9-.35,1.41,1.41,0,0,1-.34-1,1.45,1.45,0,0,1,.34-1,1.15,1.15,0,0,1,.87-.36,1.09,1.09,0,0,1,.85.35,1.42,1.42,0,0,1,.33,1v.11h-1.93a.94.94,0,0,0,.24.66.73.73,0,0,0,.54.23.69.69,0,0,0,.41-.13A.85.85,0,0,0,103.31,72.73ZM101.86,72h1.45a.81.81,0,0,0-.17-.49.66.66,0,0,0-.54-.25.73.73,0,0,0-.51.2A.84.84,0,0,0,101.86,72Z"/><path class="cls-11" d="M104.31,73.57V71h.4v.36a.93.93,0,0,1,.82-.42A1,1,0,0,1,106,71a.78.78,0,0,1,.3.22.82.82,0,0,1,.13.33,2,2,0,0,1,0,.42v1.6H106V72a1.3,1.3,0,0,0,0-.4.46.46,0,0,0-.18-.21.53.53,0,0,0-.31-.08.72.72,0,0,0-.49.18.88.88,0,0,0-.2.67v1.42Z"/><path class="cls-11" d="M108.05,73.17l.07.39a1.48,1.48,0,0,1-.34,0,.76.76,0,0,1-.37-.07.38.38,0,0,1-.18-.2,1.43,1.43,0,0,1-.06-.52V71.32h-.32V71h.32v-.65l.44-.26V71h.44v.34h-.44v1.51a1,1,0,0,0,0,.24.18.18,0,0,0,.08.09.28.28,0,0,0,.15,0A.72.72,0,0,0,108.05,73.17Z"/><path class="cls-11" d="M108.32,72.27a1.35,1.35,0,0,1,.4-1.07,1.19,1.19,0,0,1,.81-.28,1.15,1.15,0,0,1,.88.35,1.34,1.34,0,0,1,.34,1,1.71,1.71,0,0,1-.15.79,1.12,1.12,0,0,1-.44.45,1.34,1.34,0,0,1-.63.16,1.19,1.19,0,0,1-.88-.35A1.43,1.43,0,0,1,108.32,72.27Zm.45,0A1.1,1.1,0,0,0,109,73a.69.69,0,0,0,.54.25.73.73,0,0,0,.55-.25,1.17,1.17,0,0,0,.21-.76,1.1,1.1,0,0,0-.21-.73.7.7,0,0,0-.55-.25.66.66,0,0,0-.54.25A1.06,1.06,0,0,0,108.77,72.27Z"/><path class="cls-11" d="M89.05,78.62l.43,0a1.06,1.06,0,0,1-1.07,1,1.13,1.13,0,0,1-.86-.35,1.4,1.4,0,0,1-.32-1,1.67,1.67,0,0,1,.14-.73,1,1,0,0,1,.42-.48,1.29,1.29,0,0,1,.62-.15,1.09,1.09,0,0,1,.69.21,1,1,0,0,1,.34.61L89,77.8a.74.74,0,0,0-.22-.39.55.55,0,0,0-.38-.13.65.65,0,0,0-.53.24,1.1,1.1,0,0,0-.21.75,1.19,1.19,0,0,0,.2.76.64.64,0,0,0,.52.24.63.63,0,0,0,.43-.16A.77.77,0,0,0,89.05,78.62Z"/><path class="cls-11" d="M91.55,79.25a1.62,1.62,0,0,1-.47.29,1.28,1.28,0,0,1-.48.09.93.93,0,0,1-.66-.21.71.71,0,0,1-.23-.54.67.67,0,0,1,.09-.34.72.72,0,0,1,.23-.26,1,1,0,0,1,.31-.14,3.62,3.62,0,0,1,.39-.07,3.81,3.81,0,0,0,.79-.15v-.11a.46.46,0,0,0-.13-.38.73.73,0,0,0-.5-.15.76.76,0,0,0-.45.11.61.61,0,0,0-.22.38l-.43-.06a1,1,0,0,1,.19-.44.86.86,0,0,1,.39-.26,1.74,1.74,0,0,1,.59-.09,1.65,1.65,0,0,1,.54.07.78.78,0,0,1,.3.2.7.7,0,0,1,.14.3,3.25,3.25,0,0,1,0,.41v.58a5.92,5.92,0,0,0,0,.78,1,1,0,0,0,.11.31h-.46A1,1,0,0,1,91.55,79.25Zm0-1a3.27,3.27,0,0,1-.72.16,1.93,1.93,0,0,0-.38.09.37.37,0,0,0-.18.14.42.42,0,0,0-.06.21.38.38,0,0,0,.13.3.62.62,0,0,0,.39.11.84.84,0,0,0,.45-.11.67.67,0,0,0,.3-.3,1.22,1.22,0,0,0,.07-.44Z"/><path class="cls-11" d="M92.64,79.57V77H93v.39a1.12,1.12,0,0,1,.28-.37.57.57,0,0,1,.28-.08.79.79,0,0,1,.45.14l-.15.41a.55.55,0,0,0-.32-.1.43.43,0,0,0-.26.09.51.51,0,0,0-.16.24,1.61,1.61,0,0,0-.07.51v1.36Z"/><path class="cls-11" d="M94.71,79.57H94.3V76h.44v1.28a.87.87,0,0,1,.71-.35,1.22,1.22,0,0,1,.46.09,1.06,1.06,0,0,1,.35.27,1.33,1.33,0,0,1,.21.43,1.49,1.49,0,0,1,.08.52,1.47,1.47,0,0,1-.33,1,1,1,0,0,1-.79.37.84.84,0,0,1-.72-.39Zm0-1.32a1.45,1.45,0,0,0,.12.68.66.66,0,0,0,.57.34.64.64,0,0,0,.49-.25,1.16,1.16,0,0,0,.21-.75,1.12,1.12,0,0,0-.2-.75.6.6,0,0,0-.48-.24.62.62,0,0,0-.5.25A1.09,1.09,0,0,0,94.71,78.25Z"/><path class="cls-11" d="M96.92,78.27a1.38,1.38,0,0,1,.4-1.07,1.24,1.24,0,0,1,.82-.28,1.12,1.12,0,0,1,.87.35,1.3,1.3,0,0,1,.34,1,1.71,1.71,0,0,1-.15.79,1.1,1.1,0,0,1-.43.45,1.37,1.37,0,0,1-.63.16,1.17,1.17,0,0,1-.88-.35A1.43,1.43,0,0,1,96.92,78.27Zm.45,0a1.16,1.16,0,0,0,.22.75.73.73,0,0,0,.55.25.69.69,0,0,0,.54-.25,1.11,1.11,0,0,0,.22-.76,1,1,0,0,0-.22-.73.66.66,0,0,0-.54-.25.7.7,0,0,0-.55.25A1.11,1.11,0,0,0,97.37,78.27Z"/><path class="cls-11" d="M99.58,79.57l.94-1.35L99.65,77h.55l.39.6.18.29c.08-.1.14-.2.2-.28l.44-.61h.52L101,78.2l1,1.37h-.54l-.53-.81-.14-.22-.68,1Z"/><path class="cls-11" d="M102.37,76.49V76h.44v.5Zm0,3.08V77h.44v2.59Z"/><path class="cls-11" d="M103.47,79.57V76h.44v3.58Z"/><path class="cls-11" d="M106.28,79.25a1.62,1.62,0,0,1-.47.29,1.28,1.28,0,0,1-.48.09.93.93,0,0,1-.66-.21.71.71,0,0,1-.23-.54.67.67,0,0,1,.09-.34.7.7,0,0,1,.22-.26,1.15,1.15,0,0,1,.32-.14,3.62,3.62,0,0,1,.39-.07,3.81,3.81,0,0,0,.79-.15v-.11a.46.46,0,0,0-.13-.38.73.73,0,0,0-.5-.15.82.82,0,0,0-.46.11.66.66,0,0,0-.21.38l-.43-.06a1,1,0,0,1,.19-.44.86.86,0,0,1,.39-.26,1.74,1.74,0,0,1,.59-.09,1.65,1.65,0,0,1,.54.07.78.78,0,0,1,.3.2.7.7,0,0,1,.14.3,3.25,3.25,0,0,1,0,.41v.58a5.92,5.92,0,0,0,0,.78,1,1,0,0,0,.11.31h-.46A.8.8,0,0,1,106.28,79.25Zm0-1a3.42,3.42,0,0,1-.72.16,2.3,2.3,0,0,0-.39.09.39.39,0,0,0-.17.14.42.42,0,0,0-.06.21.38.38,0,0,0,.13.3.62.62,0,0,0,.39.11.84.84,0,0,0,.45-.11.6.6,0,0,0,.29-.3,1,1,0,0,0,.08-.44Z"/><rect class="cls-5" x="0.5" y="0.5" width="43.5" height="81.5"/><rect class="cls-12" x="47" y="54" width="29" height="32"/><rect class="cls-8" x="78" y="11" width="38" height="72"/></g></g></svg>